<?xml version="1.0" encoding="utf-8"?>
<!-- Generator: Adobe Illustrator 25.2.3, SVG Export Plug-In . SVG Version: 6.00 Build 0)  -->
<svg version="1.1" id="Layer_1" xmlns="http://www.w3.org/2000/svg" xmlns:xlink="http://www.w3.org/1999/xlink" x="0px" y="0px"
	 viewBox="0 0 50 50" style="enable-background:new 0 0 50 50;" xml:space="preserve">
<style type="text/css">
	.st0{fill:#064D55;}
	.st1{fill:none;stroke:#FFFFFF;stroke-width:2.5;stroke-linecap:round;stroke-linejoin:round;}
</style>
<g id="Kameros_ikona" transform="translate(15 15)">
	<g transform="matrix(1, 0, 0, 1, -15, -15)">
		<path id="Rectangle_21-2" class="st0" d="M15,0h20c8.3,0,15,6.7,15,15v20c0,8.3-6.7,15-15,15H15C6.7,50,0,43.3,0,35V15
			C0,6.7,6.7,0,15,0z"/>
	</g>
	<g id="foto" transform="translate(11 14)">
		<path id="Path_12" class="st1" d="M12.6,5.1c0,1.4-1.1,2.5-2.5,2.5l0,0h-22.6c-1.4,0-2.5-1.1-2.5-2.5l0,0V-8.7
			c0-1.4,1.1-2.5,2.5-2.5l0,0h5L-5-15h7.5l2.5,3.8h5c1.4,0,2.5,1.1,2.5,2.5l0,0L12.6,5.1z"/>
		<ellipse id="Ellipse_18" class="st1" cx="-1.2" cy="-2.2" rx="4.9" ry="4.9"/>
	</g>
</g>
</svg>
