<?xml version="1.0" encoding="utf-8"?>
<!-- Generator: Adobe Illustrator 25.2.3, SVG Export Plug-In . SVG Version: 6.00 Build 0)  -->
<svg version="1.1" id="Layer_1" xmlns="http://www.w3.org/2000/svg" xmlns:xlink="http://www.w3.org/1999/xlink" x="0px" y="0px"
	 viewBox="0 0 50 50" style="enable-background:new 0 0 50 50;" xml:space="preserve">
<style type="text/css">
	.st0{fill:#064D55;}
	.st1{fill:none;stroke:#FFFFFF;stroke-width:2.5;stroke-linecap:round;stroke-linejoin:round;}
</style>
<g id="Group_333" transform="translate(-156 -578)">
	<g transform="matrix(1, 0, 0, 1, 156, 578)">
		<path id="Rectangle_111-2" class="st0" d="M15,0h20c8.3,0,15,6.7,15,15v20c0,8.3-6.7,15-15,15H15C6.7,50,0,43.3,0,35V15
			C0,6.7,6.7,0,15,0z"/>
	</g>
	<g id="foto_nubrauktas" transform="translate(182 604)">
		<line id="Line_7" class="st1" x1="-15" y1="-15" x2="12.1" y2="13.3"/>
		<path id="Path_11" class="st1" d="M10.1,10.9h-22.6c-1.4,0-2.5-1.1-2.5-2.5c0,0,0,0,0,0V-5.5c0-1.4,1.1-2.5,2.5-2.5c0,0,0,0,0,0
			h3.8 M-5-11.8h7.5L5.1-8h5c1.4,0,2.5,1.1,2.5,2.5c0,0,0,0,0,0V6.3 M2.9,3.7C1.4,5.9-1.7,6.5-4,5c-1.1-0.7-1.8-1.9-2.1-3.2
			c-0.4-2,0.4-4,2.1-5.2"/>
	</g>
</g>
</svg>
