<?xml version="1.0" encoding="utf-8"?>
<!-- Generator: Adobe Illustrator 25.2.3, SVG Export Plug-In . SVG Version: 6.00 Build 0)  -->
<svg version="1.1" id="Layer_1" xmlns="http://www.w3.org/2000/svg" xmlns:xlink="http://www.w3.org/1999/xlink" x="0px" y="0px"
	 viewBox="0 0 50 50" style="enable-background:new 0 0 50 50;" xml:space="preserve">
<style type="text/css">
	.st0{fill:#064D55;}
	.st1{fill:none;stroke:#FFFFFF;stroke-width:2.5;stroke-linecap:round;stroke-linejoin:round;}
	.st2{fill:none;stroke:#FFFFFF;stroke-width:2.5;stroke-linecap:round;}
</style>
<g id="Group_341" transform="translate(-143 -651)">
	<g id="Group_340">
		<g transform="matrix(1, 0, 0, 1, 143, 651)">
			<path id="Path_509-2" class="st0" d="M14.7,0h20.6C43.5,0.1,50.1,6.8,50,15v20c0.1,8.2-6.5,14.9-14.7,15H14.7
				C6.5,49.9,0,43.2,0,35V15C0,6.8,6.5,0.1,14.7,0z"/>
		</g>
	</g>
	<g id="garsas_off">
		<g id="garsas_off-2" transform="translate(2416 -359)">
			<g id="pauzė" transform="translate(-2231 1038)">
				<rect id="Rectangle_86" x="-9" y="-11" class="st1" width="4" height="16"/>
				<rect id="Rectangle_87" x="-1" y="-11" class="st1" width="4" height="16"/>
			</g>
			<g id="garsas_įjungtas" transform="translate(-2254 1033.958)">
				<path id="Path_510" class="st1" d="M1.4-10l-8,6.4H-13V6h6.4l8,6.4L1.4-10z"/>
			</g>
		</g>
		<path id="Path_522" class="st2" d="M168.7,670.5c0.6,0.6,1,1.2,1.4,1.9c0.6,1.1,0.9,2.4,1,3.7c0,1-0.2,1.9-0.5,2.8
			c-0.4,1.1-1.1,2-1.8,2.9"/>
	</g>
</g>
</svg>
