<svg xmlns="http://www.w3.org/2000/svg" width="21.265" height="24.673" viewBox="0 0 21.265 24.673"><defs><style>.a{fill:#fff;stroke:#B3E0F5;stroke-width:1.5px;}.b{fill:#B3E0F5;}</style></defs><g transform="translate(0.755 0.75)"><path class="a" d="M149.018,119.059c.863,0,4.356.13,6.234,2.157a7.742,7.742,0,0,1,2.135,6.055,12.168,12.168,0,0,1-1.565,4.665,11.476,11.476,0,0,0-1.938,7.248v2.306h-8.7v-2.534s.211-.8-1.225-.971c0,0-4.561,0-3.463-2.28a.911.911,0,0,0-.256-.976s-.387-.357.2-.7c0,0-1.069-.372-.5-.992v-.279s-.074-.295-.552-.295h-.037s-1.147-.155-.9-.806l1.565-3.409a1.044,1.044,0,0,0-.062-1.038s-.341-.4.093-1.565a8.46,8.46,0,0,1,2.867-4.882,9.624,9.624,0,0,1,5.852-1.7h.051s.07,0,.2,0m0-.371c-.109,0-.179,0-.2,0h-.045a9.952,9.952,0,0,0-6.085,1.786,8.264,8.264,0,0,0-2.444,3.289,8.727,8.727,0,0,0-.551,1.786c-.425,1.163-.155,1.707-.043,1.865a.673.673,0,0,1,.054.643.334.334,0,0,0-.019.036l-1.565,3.409-.01.023a.777.777,0,0,0,.048.7,1.694,1.694,0,0,0,1.148.608.394.394,0,0,0,.05,0h.037a.393.393,0,0,1,.181.033v.038a.789.789,0,0,0-.147.669,1,1,0,0,0,.4.546.7.7,0,0,0-.079.254.769.769,0,0,0,.241.625.364.364,0,0,0,.038.031c.2.142.139.46.119.542a1.511,1.511,0,0,0,.016,1.514,3.191,3.191,0,0,0,2.25,1.126,10.073,10.073,0,0,0,1.524.142c.575.071.772.244.838.341a.275.275,0,0,1,.05.165.373.373,0,0,0-.012.094v2.534a.372.372,0,0,0,.371.372h8.7a.372.372,0,0,0,.371-.372v-2.306s0-.007,0-.01a12.958,12.958,0,0,1,.881-5.214,7.671,7.671,0,0,1,.974-1.789c.007-.009.015-.019.021-.029a12.413,12.413,0,0,0,1.625-4.831,7.662,7.662,0,0,0-.953-4.6,7.982,7.982,0,0,0-1.285-1.753c-1.958-2.1-5.469-2.268-6.5-2.268Z" transform="translate(-138.048 -118.688)"/><g transform="translate(10.879 5.295)"><g transform="translate(0)"><path class="b" d="M266.9,182.087v-1.221h-.557a2.254,2.254,0,0,0-.22-.529l.394-.4-.863-.862-.394.394a2.326,2.326,0,0,0-.53-.221V178.7h-1.22v.555a2.326,2.326,0,0,0-.53.221l-.394-.394-.863.862.4.4a2.309,2.309,0,0,0-.221.529h-.557v1.221h.557a2.289,2.289,0,0,0,.221.529l-.4.4.863.862.394-.394a2.322,2.322,0,0,0,.53.221v.555h1.22V183.7a2.321,2.321,0,0,0,.53-.221l.394.394.863-.862-.394-.4a2.235,2.235,0,0,0,.22-.529Zm-2.78.476a1.086,1.086,0,1,1,1.086-1.087A1.087,1.087,0,0,1,264.124,182.563Z" transform="translate(-261.344 -178.697)"/></g></g><g transform="translate(6.767 2.269)"><g transform="translate(0 0)"><path class="b" d="M219.251,147.157v-.989H218.8a1.875,1.875,0,0,0-.179-.431l.319-.32-.7-.7-.32.319a1.877,1.877,0,0,0-.431-.178v-.451H216.5v.451a1.876,1.876,0,0,0-.431.178l-.32-.319-.7.7.319.32a1.875,1.875,0,0,0-.178.431h-.451v.989h.451a1.9,1.9,0,0,0,.178.431l-.319.32.7.7.32-.319a1.876,1.876,0,0,0,.431.178v.451h.989v-.451a1.877,1.877,0,0,0,.431-.178l.32.319.7-.7-.319-.32a1.9,1.9,0,0,0,.179-.431Zm-2.255.386a.881.881,0,1,1,.882-.88A.882.882,0,0,1,217,147.542Z" transform="translate(-214.741 -144.407)"/></g></g></g></svg>