<svg xmlns="http://www.w3.org/2000/svg" width="23.653" height="23.631" viewBox="0 0 23.653 23.631"><defs><style>.a{fill:#054b52;}</style></defs><path class="a" d="M284.7,192.9V178.478c.352-.075.7-.163,1.064-.22q2.229-.356,4.468-.69c1-.149,2-.259,2.995-.444a11.124,11.124,0,0,0,2.6-.857c.044-.022.092-.035.171-.066v.69c0,1.706-.013,3.412-.018,5.118-.009,2.665-.026,5.334-.026,8a.649.649,0,0,1-.365.642,9.519,9.519,0,0,1-3.28,1.134c-.989.154-1.992.224-2.986.365-1.262.18-2.515.391-3.773.589C285.267,192.786,284.99,192.844,284.7,192.9Zm1.3-1.6c.07-.018.114-.022.154-.035a25.98,25.98,0,0,1,4.45-.853,12.575,12.575,0,0,0,3.109-.717c.07-.026.167-.1.167-.158.018-.325.009-.651.009-.989-.026.009-.062.018-.092.031-.686.211-1.359.475-2.053.616-.967.2-1.952.286-2.924.453-.879.15-1.75.347-2.625.519-.145.026-.211.084-.2.246C286.006,190.706,286,191,286,191.3Zm0-9.964a27.732,27.732,0,0,1,4.947-.95,12.683,12.683,0,0,0,2.726-.646c.158-.053.246-.132.237-.308-.009-.286,0-.572,0-.853-.009,0-.026-.009-.035,0-.07.022-.136.048-.207.075a14,14,0,0,1-3.465.84,29.809,29.809,0,0,0-4.037.7c-.119.031-.167.079-.163.207C286,180.7,286,181,286,181.34Zm0,7.955c.057,0,.079,0,.1,0a33.8,33.8,0,0,1,5-.945,24.884,24.884,0,0,0,2.616-.633c.114-.026.2-.075.194-.22-.009-.308,0-.611,0-.928-.04.013-.092.022-.136.04a17.347,17.347,0,0,1-4.111.95c-1.174.145-2.331.418-3.491.642a.225.225,0,0,0-.15.158C285.988,188.666,286,188.978,286,189.295Zm7.893-8.724a.713.713,0,0,0-.119.035,17.345,17.345,0,0,1-4.2.967c-1.143.136-2.273.409-3.408.629-.066.013-.163.092-.167.145-.018.317-.009.638-.009.972a1.622,1.622,0,0,0,.167-.04c.695-.167,1.385-.369,2.089-.5,1.077-.189,2.172-.3,3.25-.5.743-.141,1.473-.374,2.2-.572.07-.018.167-.1.172-.154C293.9,181.235,293.89,180.905,293.89,180.571Zm0,2c-.04.013-.088.026-.136.04-.616.189-1.218.435-1.842.563-1.038.207-2.1.317-3.14.5-.862.15-1.719.339-2.581.519-.075.013-.185.1-.185.154-.018.317-.009.638-.009.976.092-.022.15-.031.207-.048a24.852,24.852,0,0,1,4.279-.831,13.281,13.281,0,0,0,3.223-.73c.075-.026.172-.11.176-.171C293.9,183.218,293.89,182.9,293.89,182.567Z" transform="translate(-272.344 -169.27)"/><path class="a" d="M3.7,176.1c.409.163.778.317,1.156.449a18.508,18.508,0,0,0,4.089.866c1.535.176,3.06.409,4.586.633.506.075,1.007.189,1.517.286v14.432c-.233-.044-.457-.079-.677-.119-1.961-.356-3.927-.638-5.914-.813a11.23,11.23,0,0,1-4.195-1.187.835.835,0,0,1-.519-.866c.013-3.21,0-6.416-.018-9.626,0-1.266-.018-2.533-.026-3.8C3.7,176.28,3.7,176.21,3.7,176.1Zm6.759,7.766a5.261,5.261,0,0,0,.967-1.645,2.222,2.222,0,0,0-.532-2.559,2.474,2.474,0,0,0-.721-.444c-.246-.1-.365.009-.383.273-.026.343-.04.686-.084,1.029a1.5,1.5,0,0,1-.585,1.2,8.533,8.533,0,0,0-1.614,1.416q-.422.462-.857.91a.368.368,0,0,1-.237.114c-.475,0-.95-.026-1.425-.048-.352-.018-.347-.018-.466.325a5.853,5.853,0,0,0-.092,3.333.277.277,0,0,0,.317.251c.449,0,.893,0,1.337.022a.41.41,0,0,1,.259.145c.207.246.387.519.6.756a2.6,2.6,0,0,0,2.045,1.073,2.64,2.64,0,0,1,.418.009,1.827,1.827,0,0,1,.466.092,2.561,2.561,0,0,0,1.117.189.822.822,0,0,0,.787-.677.246.246,0,0,1,.145-.163,1.092,1.092,0,0,0,.827-.95.326.326,0,0,1,.132-.189.944.944,0,0,0,.479-1.02.256.256,0,0,1,.084-.264.983.983,0,0,0,.1-1.385,3.569,3.569,0,0,0-.726-.66A7.97,7.97,0,0,0,10.459,183.866Z" transform="translate(-3.7 -169.174)"/><path class="a" d="M172.5,25.044a7.786,7.786,0,0,1,1.587-4.8,4.1,4.1,0,0,1,2.48-1.587,3.552,3.552,0,0,1,3.113.9,5.39,5.39,0,0,1,1.741,3.381,7.157,7.157,0,0,1-.2,3.021.23.23,0,0,1-.22.193l-3.865.7a.718.718,0,0,1-.237,0c-1.376-.242-2.753-.488-4.125-.726-.123-.022-.2-.048-.2-.2C172.562,25.611,172.522,25.29,172.5,25.044Zm2.907-.171a2.052,2.052,0,0,0,1.266,1.284,1.734,1.734,0,0,0,1.689-.624c-.492,0-1.011.044-1.53.013A2.623,2.623,0,0,1,175.407,24.872Zm3.052-1.28a1.088,1.088,0,0,0,.048.3.534.534,0,0,0,.215.33.408.408,0,0,0,.141.048.452.452,0,0,0,.444-.264,1.175,1.175,0,0,0,.128-1.051.433.433,0,0,0-.361-.325.483.483,0,0,0-.356.207A1.053,1.053,0,0,0,178.458,23.593Zm-2.775-.778a2,2,0,0,0-.044-.325c-.053-.167-.132-.334-.334-.369a.45.45,0,0,0-.457.242,1.185,1.185,0,0,0-.141,1.069.388.388,0,0,0,.712.136A1.08,1.08,0,0,0,175.684,22.814Z" transform="translate(-165.077 -18.593)"/><path class="a" d="M31.532,262.294c.048-.062.11-.15.193-.255a3.856,3.856,0,0,0-1.565-.682,1.024,1.024,0,0,0-1.209.928.347.347,0,0,1-.145.207,1.009,1.009,0,0,0-.532.853.46.46,0,0,1-.123.237.8.8,0,0,0-.163.954c-.189.22-.387.479-.237.765a2.854,2.854,0,0,0,.558.594,1.337,1.337,0,0,1-.857-.295,5.042,5.042,0,0,1-1.35-1.477.325.325,0,0,0-.3-.176c-.449,0-.893,0-1.337-.022a.245.245,0,0,1-.176-.128,5.084,5.084,0,0,1,.128-2.977c.5,0,.989-.013,1.477,0a.674.674,0,0,0,.58-.242,11.1,11.1,0,0,1,2.141-2.071,2.261,2.261,0,0,0,1.016-1.926c.018-.215.04-.435.062-.686a1.937,1.937,0,0,1,.985,1.086A1.739,1.739,0,0,1,30.706,258a4.708,4.708,0,0,1-1.086,2.005c-.07.084-.145.145-.088.286a.332.332,0,0,0,.259.22,6.541,6.541,0,0,1,2.81,1.464.714.714,0,0,1,.29.814.873.873,0,0,1-.787.58,1.546,1.546,0,0,1-.651-.057c-.62-.22-1.227-.475-1.834-.73-.132-.053-.312-.11-.295-.308a.539.539,0,0,1,.317-.466.873.873,0,0,1,.7-.031C30.745,261.937,31.119,262.113,31.532,262.294Z" transform="translate(-23.23 -245.465)"/><path class="a" d="M130.872,412.97a.561.561,0,0,1-.471.629,1.74,1.74,0,0,1-1.126.062c-.677-.246-1.337-.545-2-.831-.145-.066-.317-.154-.255-.378a.76.76,0,0,1,.466-.457c.057,0,.119.044.171.075a8.548,8.548,0,0,0,2.326.893A4.279,4.279,0,0,0,130.872,412.97Z" transform="translate(-121.585 -394.695)"/><path class="a" d="M118.3,435.5a5.674,5.674,0,0,0,3.39,1.02c-.084.246-.163.462-.427.545a1.521,1.521,0,0,1-1.016.013c-.642-.259-1.28-.541-1.9-.857C117.978,436.023,117.987,435.781,118.3,435.5Z" transform="translate(-113.04 -417.168)"/><path class="a" d="M116.89,460.3c-.062.264-.18.391-.444.387a2.033,2.033,0,0,1-.77-.119c-.5-.22-.976-.5-1.46-.756a.244.244,0,0,1-.136-.312c.062-.2.167-.242.352-.136a8.208,8.208,0,0,0,1.988.857C116.573,460.263,116.736,460.276,116.89,460.3Z" transform="translate(-109.212 -439.93)"/></svg>