<?xml version="1.0" encoding="utf-8"?>
<!-- Generator: Adobe Illustrator 25.2.3, SVG Export Plug-In . SVG Version: 6.00 Build 0)  -->
<svg version="1.1" id="Layer_1" xmlns="http://www.w3.org/2000/svg" xmlns:xlink="http://www.w3.org/1999/xlink" x="0px" y="0px"
	 viewBox="0 0 50 50" style="enable-background:new 0 0 50 50;" xml:space="preserve">
<style type="text/css">
	.st0{fill:#064D55;}
	.st1{fill:#FFFFFF;stroke:#FFFFFF;stroke-width:1.5;stroke-linejoin:round;}
</style>
<g id="Group_334" transform="translate(-236 -569)">
	<g transform="matrix(1, 0, 0, 1, 236, 569)">
		<path id="Rectangle_112-2" class="st0" d="M15,0h20c8.3,0,15,6.7,15,15v20c0,8.3-6.7,15-15,15H15C6.7,50,0,43.3,0,35V15
			C0,6.7,6.7,0,15,0z"/>
	</g>
	<g id="Component_62_3" transform="translate(260 599)">
		<path id="Path_146" class="st1" d="M-3.3,4c0.1,0.1,0.2,0.2,0.2,0.4c0,0.2-0.1,0.3-0.2,0.4C-3.4,4.9-3.5,5-3.7,5h-10.8
			c-0.2,0-0.3-0.1-0.4-0.2C-14.9,4.7-15,4.6-15,4.4v-18.8c0-0.1,0.1-0.3,0.2-0.4c0.1-0.1,0.2-0.2,0.4-0.2h10.8
			c0.2,0,0.3,0.1,0.4,0.2c0.1,0.1,0.2,0.2,0.2,0.4c0,0.2-0.1,0.3-0.2,0.4c-0.1,0.1-0.3,0.1-0.4,0.1h-10.1v8H-5
			c0.1,0,0.3,0.1,0.4,0.2c0.1,0.1,0.2,0.2,0.2,0.4c0,0.2-0.1,0.3-0.2,0.4C-4.7-4.8-4.8-4.8-5-4.8h-8.8v8.6h10.1
			C-3.5,3.8-3.4,3.9-3.3,4z"/>
		<path id="Path_147" class="st1" d="M16.2-14.5V4.4c0,0.2-0.1,0.4-0.2,0.5C15.9,4.9,15.7,5,15.6,5c-0.1,0-0.2,0-0.2,0
			c-0.1,0-0.2-0.1-0.2-0.2L2.3-12.8V4.5c0,0.1-0.1,0.3-0.2,0.3C2,4.9,1.9,5,1.7,5c-0.1,0-0.3,0-0.4-0.1C1.2,4.8,1.2,4.6,1.2,4.5
			v-18.9c0-0.2,0.1-0.3,0.2-0.4C1.5-14.9,1.6-15,1.7-15c0.1,0,0.2,0,0.2,0c0.1,0,0.1,0.1,0.2,0.2l13,17.7v-17.4
			c0-0.1,0.1-0.3,0.2-0.4c0.1-0.1,0.2-0.2,0.4-0.2c0.1,0,0.3,0.1,0.4,0.2C16.1-14.7,16.2-14.6,16.2-14.5z"/>
	</g>
</g>
</svg>
