<svg xmlns="http://www.w3.org/2000/svg" width="18.347" height="50.107" viewBox="0 0 18.347 50.107"><defs><style>.a{fill:#B3E0F5;}.b{fill:#ef9f8d;}</style></defs><path class="a" d="M402.722,379.051v3.166l-11.361,31.158H389.88a1.814,1.814,0,0,1-1.29-.514,1.613,1.613,0,0,1-.545-1.215v-3.455a1.618,1.618,0,0,1,.545-1.215,1.823,1.823,0,0,1,1.29-.513h1.835V384.237H389.88a1.818,1.818,0,0,1-1.29-.514,1.615,1.615,0,0,1-.545-1.215v-3.456a1.621,1.621,0,0,1,.545-1.215,1.821,1.821,0,0,1,1.29-.512h11.009a1.82,1.82,0,0,1,1.29.512A1.62,1.62,0,0,1,402.722,379.051Z" transform="translate(-388.045 -363.268)"/><ellipse class="a" cx="6.164" cy="5.806" rx="6.164" ry="5.806" transform="translate(2.632)"/><path class="b" d="M416.616,424.51v3.455a1.615,1.615,0,0,1-.545,1.215,1.815,1.815,0,0,1-1.29.514h-13.2l11.361-31.158v24.245h1.835a1.818,1.818,0,0,1,1.29.513A1.616,1.616,0,0,1,416.616,424.51Z" transform="translate(-398.269 -379.587)"/></svg>