<svg xmlns="http://www.w3.org/2000/svg" width="252" height="45.346" viewBox="0 0 252 45.346"><defs><style>.a{fill:#e7e8e9;}.b,.c{fill:#8f8f90;}.b{font-size:9px;font-family:SegoeUI, Segoe UI;letter-spacing:0.05em;}.d{fill:#cbcccc;}.e{fill:#626365;}.f,.g{fill:none;stroke:#002733;stroke-linecap:round;stroke-width:2px;}.g{stroke-linejoin:round;}</style></defs><g transform="translate(0 1)"><g transform="translate(0 20.346)"><g transform="translate(-0.395 0.101)"><rect class="a" width="252" height="24" rx="12" transform="translate(0.395 -0.101)"/><text class="b" transform="translate(79.395 15.899)"><tspan x="0" y="0">igem-vilnius-ar.com</tspan></text><path class="c" d="M5.808-14.616a2.991,2.991,0,0,0,1.744-.562l1.85,1.85a.445.445,0,0,0,.32.129.428.428,0,0,0,.433-.445.43.43,0,0,0-.125-.312L8.193-15.8a2.989,2.989,0,0,0,.617-1.818,3.009,3.009,0,0,0-3-3,3.009,3.009,0,0,0-3,3A3.009,3.009,0,0,0,5.808-14.616Zm0-.648a2.368,2.368,0,0,1-2.353-2.353A2.368,2.368,0,0,1,5.808-19.97a2.368,2.368,0,0,1,2.353,2.353A2.368,2.368,0,0,1,5.808-15.264Z" transform="translate(64.733 28.516)"/></g><rect class="d" width="27" height="20" rx="10" transform="translate(3 2)"/><path class="e" d="M329.609,269.829h-.624q.01-.568.019-1.135a3.111,3.111,0,0,0-4.69-2.661,2.78,2.78,0,0,0-1.465,2.466v1.331h-.6a.585.585,0,0,0-.585.585v4.8a.942.942,0,0,0,.937.937h6.661a.942.942,0,0,0,.937-.937v-4.8A.585.585,0,0,0,329.609,269.829Zm-5.41-1.309a1.853,1.853,0,0,1,.657-1.206,1.778,1.778,0,0,1,2.123-.051,1.8,1.8,0,0,1,.664,1.247v1.337H324.2Z" transform="translate(-309.821 -258.882)"/></g><g transform="translate(9.853)"><line class="f" y2="15.103" transform="translate(6.253)"/><path class="g" d="M6,9l6.253,6.334L18.507,9" transform="translate(-6 0.918)"/></g></g></svg>