<svg xmlns="http://www.w3.org/2000/svg" width="139.851" height="110.687" viewBox="0 0 139.851 110.687"><defs><style>.a,.i{fill:#fff;}.b{fill:#faccbf;opacity:0.45;}.c{fill:#002733;}.d{fill:#ebe2e2;}.e{fill:#ef9f8d;}.f{fill:#108387;}.g{fill:#054d54;}.h{fill:#a86b62;}.i{opacity:0.4;}</style></defs><g transform="translate(66.104 9.673)"><path class="a" d="M498.649,411.881H449.431l9.759-49.218h49.218Z" transform="translate(-434.661 -346.407)"/><path class="b" d="M420,328.213l69.4,39.838H435.707l-17.578-30.406Z" transform="translate(-418.129 -328.213)"/><g transform="translate(18.634 19.822)"><path class="c" d="M466.118,370.22l-8.5,42.85c2.4,0,42.448,0,42.641,0,0,0,8.5-42.853,8.5-42.853Zm27.876,34.966H467.053l5.368-27.078h26.944Z" transform="translate(-457.618 -370.22)"/><line class="c" x1="0.113" transform="translate(51.137 0)"/><line class="c" x1="0.072" transform="translate(41.746 7.888)"/><path class="c" d="M496.231,407.462c.013-.192.023-.366.035-.54a7.828,7.828,0,0,1,.737-2.84,5.025,5.025,0,0,1,1.364-1.768,5.112,5.112,0,0,1,2.1-1.012,8.6,8.6,0,0,1,2.263-.188c.625.021,1.249.075,1.873.112.25.015.5.023.75.031a1.373,1.373,0,0,0,.185-.02c-.013-.074-.021-.139-.037-.2-.111-.462-.232-.921-.335-1.385a7.993,7.993,0,0,1-.134-2.463,11.193,11.193,0,0,1,.654-2.766c.1-.29.219-.577.33-.864.018-.046.04-.092.061-.137a.6.6,0,0,1,1.111.425c-.027.1-.072.186-.107.28-.1.257-.2.514-.293.771a1.408,1.408,0,0,0-.036.138c.155.131,2.828,1.706,3.1,1.831.063-.025.044-.083.046-.128a9.859,9.859,0,0,0-.072-1.473c-.006-.05-.016-.1-.017-.149a.607.607,0,0,1,.532-.623A.591.591,0,0,1,511,395a10.7,10.7,0,0,1,.078,2,8.83,8.83,0,0,1-.126,1.092,5.564,5.564,0,0,1-.815,2.055,5.024,5.024,0,0,1-1.15,1.174,5.187,5.187,0,0,1-1.754.883c-.047.013-.091.034-.146.055a1.548,1.548,0,0,0,.021.18,3.174,3.174,0,0,1,.076.82,5.36,5.36,0,0,1-.317,1.738,4.273,4.273,0,0,1-1.719,2.119,7.11,7.11,0,0,1-2.253.933,5.1,5.1,0,0,1-1.239.145c-.567,0-1.134-.028-1.7-.037-.459-.007-.918-.016-1.376,0-.283.008-.564.056-.845.09a.944.944,0,0,0-.16.046c-.043.086,0,.157.017.225a6.987,6.987,0,0,0,.35.963c.176.4.359.789.533,1.186a8.086,8.086,0,0,1,.584,1.96c.011.066.016.132.022.2a.6.6,0,0,1-.528.623.6.6,0,0,1-.663-.513c-.017-.1-.028-.2-.049-.3-.035-.171-.075-.341-.115-.52a1.4,1.4,0,0,0-.176-.025q-1.515,0-3.029,0a1.523,1.523,0,0,0-.171.018,3.248,3.248,0,0,0-.171.659,7.887,7.887,0,0,0-.143,1.867,1.455,1.455,0,0,1,0,.15.577.577,0,0,1-.469.543.588.588,0,0,1-.65-.311.705.705,0,0,1-.078-.312,10.12,10.12,0,0,1,.05-1.425,9.385,9.385,0,0,1,.6-2.394,8.018,8.018,0,0,1,1.559-2.545,3.725,3.725,0,0,1,1.089-.83C496.158,407.5,496.187,407.485,496.231,407.462Zm3.858-4.779c.066.056.1.089.141.118q.6.449,1.2.9,1.514,1.127,3.029,2.253c.045.033.1.059.138.085a2.019,2.019,0,0,0,.678-.675c-.064-.049-.128-.1-.195-.15l-2.56-1.877c-.39-.285-.782-.568-1.168-.858a.329.329,0,0,0-.276-.076c-.09.018-.182.027-.27.05A3.253,3.253,0,0,0,500.089,402.682Zm-1.134.7c-.1.11-.2.21-.294.317a1.122,1.122,0,0,0-.25.374c.092.069.178.134.265.2l1.973,1.452c.5.365,1,.727,1.487,1.1a.406.406,0,0,0,.392.086c.255-.076.512-.147.767-.224.018-.005.028-.035.042-.053C503.134,406.445,499.155,403.487,498.955,403.382Zm10.728-5.191c-.048-.034-.1-.076-.155-.108-1.034-.6-2.063-1.215-3.112-1.82a.882.882,0,0,0-.063.151,5.983,5.983,0,0,0-.14,1.1l.744.459.746.455c.256.156.51.315.768.468s.485.316.745.442A2.98,2.98,0,0,0,509.683,398.191Zm-13.292,10.577a.284.284,0,0,0-.068.028c-.072.057-.144.113-.211.175a6,6,0,0,0-1.271,1.807.49.49,0,0,0-.02.126h2.165c.067,0,.133,0,.2-.007a.039.039,0,0,0,.024-.007c.006,0,.008-.013.026-.048-.129-.328-.308-.656-.444-1S496.525,409.129,496.391,408.768Zm3.833-1.82c-.009-.026-.009-.045-.019-.053q-1.134-.841-2.27-1.679a.269.269,0,0,0-.068-.025,4.241,4.241,0,0,0-.357,1.342,1.79,1.79,0,0,0-.034.525,1.736,1.736,0,0,0,.211-.013,5.519,5.519,0,0,1,1.019-.09c.417,0,.834,0,1.25,0A.772.772,0,0,0,500.224,406.947Zm5.638-4.5h-.329a10.365,10.365,0,0,1-1.122-.037c-.339-.036-.68-.049-1.021-.07-.038,0-.084-.017-.117.045.04.034.08.072.124.1,1.19.9,2.232,1.648,2.425,1.747A3,3,0,0,0,505.862,402.448Zm.909-1.358a3.975,3.975,0,0,0,1.6-.814c-.021-.029-.031-.055-.05-.066q-.979-.6-1.959-1.2a.248.248,0,0,0-.07-.015A11.175,11.175,0,0,0,506.772,401.09Z" transform="translate(-476.215 -382.288)"/></g></g><path class="c" d="M327.724,418.4H284.416a6.2,6.2,0,0,1-6.228-7.745l18.651-95.2a9.916,9.916,0,0,1,9.263-7.745h43.309a6.2,6.2,0,0,1,6.228,7.745l-18.651,95.2A9.917,9.917,0,0,1,327.724,418.4Z" transform="translate(-278.04 -307.715)"/><path class="d" d="M356.208,319.264l-18.218,92.989a7.317,7.317,0,0,1-6.817,5.735H289.587a4.577,4.577,0,0,1-4.569-5.735l18.219-92.989a7.315,7.315,0,0,1,6.816-5.735h41.586A4.578,4.578,0,0,1,356.208,319.264Z" transform="translate(-281.668 -310.786)"/><g transform="translate(9.458 95.769)"><path class="e" d="M303.088,517.577h-3.675a1.291,1.291,0,0,1-1.3-1.615l.72-3.675a2.061,2.061,0,0,1,1.931-1.615h3.675a1.29,1.29,0,0,1,1.3,1.615l-.72,3.675A2.061,2.061,0,0,1,303.088,517.577Z" transform="translate(-298.083 -510.672)"/><path class="e" d="M320.83,517.577h-3.675a1.29,1.29,0,0,1-1.3-1.615l.72-3.675a2.06,2.06,0,0,1,1.931-1.615h3.675a1.29,1.29,0,0,1,1.3,1.615l-.72,3.675A2.062,2.062,0,0,1,320.83,517.577Z" transform="translate(-307.453 -510.672)"/><path class="e" d="M338.571,517.577H334.9a1.291,1.291,0,0,1-1.3-1.615l.72-3.675a2.06,2.06,0,0,1,1.931-1.615h3.675a1.29,1.29,0,0,1,1.3,1.615l-.72,3.675A2.062,2.062,0,0,1,338.571,517.577Z" transform="translate(-316.823 -510.672)"/><path class="e" d="M356.312,517.577h-3.675a1.291,1.291,0,0,1-1.3-1.615l.72-3.675a2.061,2.061,0,0,1,1.931-1.615h3.675a1.29,1.29,0,0,1,1.3,1.615l-.72,3.675A2.061,2.061,0,0,1,356.312,517.577Z" transform="translate(-326.193 -510.672)"/><path class="e" d="M374.053,517.577h-3.675a1.291,1.291,0,0,1-1.3-1.615l.72-3.675a2.061,2.061,0,0,1,1.931-1.615h3.675a1.29,1.29,0,0,1,1.3,1.615l-.72,3.675A2.061,2.061,0,0,1,374.053,517.577Z" transform="translate(-335.562 -510.672)"/></g><path class="e" d="M368.18,344.9H333.822a2.665,2.665,0,0,1-2.682-3.336l1.215-6.2a4.257,4.257,0,0,1,3.989-3.336H370.7a2.665,2.665,0,0,1,2.682,3.336l-1.215,6.2A4.257,4.257,0,0,1,368.18,344.9Z" transform="translate(-306.05 -320.554)"/><path class="e" d="M357.264,389.605s-1.54,5.536,2.543,9.275c3.027,2.771,8.07,6.525,5.849,16.053,0,0,1.19-3.53-2.767-7.356S353.6,396.665,357.264,389.605Z" transform="translate(-319.232 -350.964)"/><path class="f" d="M357.818,436.485l5.391,4.984s.222.046.707-1.016l-5.167-4.361Z" transform="translate(-320.173 -375.515)"/><path class="g" d="M351.835,373.283s12.448,6.463,14.417,12.724c1.183,3.762-.516,8.5-.516,8.5,8.919-12.27-6.84-22.755-6.84-22.755Z" transform="translate(-317.014 -341.536)"/><path class="g" d="M354.982,458.015c-7.244-.853-12.346-5.256-12.92-11.192a15.656,15.656,0,0,1,1.978-8.574c-11.163,11.419,1.489,22.678,1.489,22.678Z" transform="translate(-310.466 -376.653)"/><path class="f" d="M362.36,407s-.463,3.557-6.42,6.405c-4.487,2.146-11.482,4.554-15.467,14.867,0,0,1.069-3.594,7.056-6.563S360.883,415.953,362.36,407Z" transform="translate(-311.013 -360.151)"/><path class="c" d="M342.342,454.646l1.4,1.784-.142-1.045-.972-.924Z" transform="translate(-312 -385.216)"/><path class="f" d="M346.542,443.443l7.552,5.26s.17-.046.933-.877l-7.869-4.938Z" transform="translate(-314.218 -379.104)"/><path class="f" d="M342.7,453.646l7.172,2.492-1.123.784-6.282-2.65S342.078,454.246,342.7,453.646Z" transform="translate(-312.003 -384.786)"/><path class="e" d="M363.269,390.673l7.6-1.092a.287.287,0,0,0-.131-.507c-1.488.107-6.559.461-6.559.461Z" transform="translate(-323.052 -350.682)"/><path class="e" d="M372,383.315l2.509.069s.515-.43-.132-.584c-.329-.046-1.213-.246-1.213-.246Z" transform="translate(-327.663 -347.239)"/><path class="c" d="M373.583,384.313l-2.9,1.658-.432-.356,2.645-1.3" transform="translate(-326.737 -348.169)"/><path class="c" d="M377.351,390.148l-1.313,1.292-.461-.481,1.105-.713" transform="translate(-329.552 -351.25)"/><path class="c" d="M381.445,395.866l-.627,1.514-.3-.512.316-.67" transform="translate(-332.164 -354.27)"/><path class="c" d="M383.445,403.685l-.325,1.837-.083-1.1-.045-.316" transform="translate(-333.469 -358.4)"/><path class="h" d="M366.613,414.824h1.569l.519.646-1.39.031Z" transform="translate(-324.818 -364.282)"/><path class="e" d="M366.5,408.264l7.71-5.752s.467-.185.616.154c0,0,.1.166-.243.512s-2.1,1.549-7.36,5.794C366.162,409.217,366.5,408.264,366.5,408.264Z" transform="translate(-324.733 -357.753)"/><path class="h" d="M360.584,406.163l1.042.646-.606-.831-.809-.738" transform="translate(-321.437 -359.221)"/><path class="e" d="M359.93,399.62c1.764-.875,10.305-5.022,10.305-5.022s.585,0,.294.538c-1,.692-10.226,5.406-10.226,5.406S359.2,400.543,359.93,399.62Z" transform="translate(-321.156 -353.6)"/><path class="h" d="M375.483,426.878a5.9,5.9,0,0,1-1.106,2.464l.44.892Z" transform="translate(-328.919 -370.648)"/><path class="c" d="M343.037,464.168l2.593,1.131-.447-1.015-2.073-.369Z" transform="translate(-312.367 -390.208)"/><path class="f" d="M342.8,462.643l4.026.415-1.369.765-2.613-.323S342.174,463.243,342.8,462.643Z" transform="translate(-312.101 -389.537)"/><path class="e" d="M315.665,448.892c10.422-3.629,16.749-5.831,20.973-11.011a20.732,20.732,0,0,0,4.426-11c4.655,16.635-24.024,28.162-24.024,28.162l-7.834-4.1C310.756,450.5,312.992,449.823,315.665,448.892Z" transform="translate(-294.5 -370.648)"/><path class="c" d="M348.162,472.129l.08.138a14.073,14.073,0,0,1-2.793,3.184l-.743-1.076Z" transform="translate(-313.249 -394.547)"/><path class="h" d="M357.369,403.9a4.929,4.929,0,0,1,1.01-2.253l-.348-.969A10.214,10.214,0,0,0,357.369,403.9Z" transform="translate(-319.936 -356.8)"/><path class="e" d="M373.139,375.009c-6.513,1.06-11.2,4.252-12.711,5.891a19.522,19.522,0,0,0-3.153,4.834h0a12.479,12.479,0,0,0-.834,3.989,9.056,9.056,0,0,1-.407-6.551,12.3,12.3,0,0,1,2.54-4.408,17.72,17.72,0,0,1,9.487-5.556Z" transform="translate(-319.008 -342.303)"/><path class="c" d="M376.624,392.6" transform="translate(-330.105 -352.544)"/><path class="i" d="M351.391,314.025l-61.537,104.46h-.515a4.577,4.577,0,0,1-4.568-5.736L302.99,319.76a7.316,7.316,0,0,1,6.816-5.735Z" transform="translate(-281.537 -311.047)"/><path class="c" d="M377.417,314.643h-17.38a2.062,2.062,0,0,1-2.07-2.574l.079-.4a3.3,3.3,0,0,1,3.078-2.574h17.38a2.061,2.061,0,0,1,2.07,2.574l-.079.4A3.3,3.3,0,0,1,377.417,314.643Z" transform="translate(-320.226 -308.441)"/></svg>