<svg xmlns="http://www.w3.org/2000/svg" width="57.373" height="108" viewBox="0 0 57.373 108"><defs><style>.a{fill:#002733;}.b{fill:#ebe2e2;}.c{fill:#054d54;}.d{opacity:0.2;}.e,.k{fill:#fff;}.f{fill:#1b8489;}.g,.i{opacity:0.3;}.h{fill:#ff4f5b;}.j{fill:#ef9f8d;}.k{opacity:0.4;}.l,.m,.n{fill:none;stroke:#002733;}.l{stroke-miterlimit:10;stroke-width:0.7px;}.m,.n{stroke-linecap:round;}.n{stroke-linejoin:round;}</style></defs><g transform="translate(-257.186 -418)"><g transform="translate(257.186 418)"><g transform="translate(0 0)"><rect class="a" width="57.373" height="108" rx="8"/><path class="b" d="M401.4,282v90.732a5.592,5.592,0,0,1-5.555,5.6H355.27a5.591,5.591,0,0,1-5.554-5.6V282a5.591,5.591,0,0,1,5.554-5.6h40.576A5.592,5.592,0,0,1,401.4,282Z" transform="translate(-346.872 -273.731)"/><g transform="translate(10.271 35.026)"><path class="c" d="M401.39,387.581a12.662,12.662,0,0,0,.882-4.9c1.061-.89,4.971-1.8,4.971-1.8l-.288-1.469a22.368,22.368,0,0,1-5.207-.152,12.651,12.651,0,0,0-1.689-3.536,8.478,8.478,0,0,1,2.152-2.764l-.992-1.121a12.557,12.557,0,0,1-2.913,1.835,12.83,12.83,0,0,0-2.338-1.764c-.261-1.333.939-5.239.939-5.239l-1.414-.49a22.068,22.068,0,0,1-2.758,4.395,12.644,12.644,0,0,0-3.734-.4,9.186,9.186,0,0,1-1.3-3.287l-1.468.294a12.322,12.322,0,0,1,.132,3.381,12.677,12.677,0,0,0-3.064,1.223c-1.332-.514-4.073-3.415-4.073-3.415l-1.138,1a21.206,21.206,0,0,1,2.441,4.5,12.821,12.821,0,0,0-2.448,3.433,9,9,0,0,1-3.219-.5l-.474,1.438a12.394,12.394,0,0,1,2.813,1.414,12.661,12.661,0,0,0-.419,3.382,23.172,23.172,0,0,1-4.719,1.609l.292,1.487a20.012,20.012,0,0,1,4.868.123,12.68,12.68,0,0,0,1.764,3.827,9.063,9.063,0,0,1-2.037,2.506l1,1.134a12.382,12.382,0,0,1,2.64-1.722,12.809,12.809,0,0,0,4.559,2.878,21.572,21.572,0,0,1,.284,5.146l1.509.132a19.537,19.537,0,0,1,1.431-4.556,12.114,12.114,0,0,0,5.08-.571,9.242,9.242,0,0,1,1.507,2.787l1.429-.5a12.506,12.506,0,0,1-.609-3.3,12.734,12.734,0,0,0,3.989-3.524,22.972,22.972,0,0,1,4.641,1.879l.753-1.314A21.267,21.267,0,0,1,401.39,387.581Zm-14.641-17.105-.048.011Z" transform="translate(-371.232 -365.358)"/><g class="d" transform="translate(14.251 5.884)"><path class="e" d="M421.5,394.759c-.629-.205-.729-1.5-1.2-3.184-.047-.212-.132-.429-.193-.653s-.157-.451-.235-.684a13.9,13.9,0,0,0-.631-1.42,9.763,9.763,0,0,0-4.792-4.6,14.019,14.019,0,0,0-1.445-.571c-.236-.068-.467-.147-.694-.206s-.447-.127-.661-.166c-1.705-.4-3-.451-3.231-1.07a.613.613,0,0,1,.072-.508,2.006,2.006,0,0,1,.55-.61,5.977,5.977,0,0,1,2.58-1.062,8.244,8.244,0,0,1,.928-.123c.326-.028.665-.026,1.02-.024a10.484,10.484,0,0,1,4.611,1.266,10.257,10.257,0,0,1,3.977,3.815,10.488,10.488,0,0,1,1.457,4.553c.017.354.032.694.018,1.02a8.308,8.308,0,0,1-.084.933,5.98,5.98,0,0,1-.953,2.622,2,2,0,0,1-.587.575A.613.613,0,0,1,421.5,394.759Z" transform="translate(-408.385 -379.88)"/></g><path class="f" d="M388.189,369.833c.184.2-.175.828-.8,1.394a4.173,4.173,0,0,1-.627.473c-.391.236-.72.319-.841.184-.184-.2.175-.828.8-1.394S388.006,369.629,388.189,369.833Z" transform="translate(-379.939 -367.621)"/><path class="g" d="M388.431,373.148a4.878,4.878,0,0,0,1.114-1.028c.194.2.417.432.647.66a5.006,5.006,0,0,1-1.553.627Z" transform="translate(-381.553 -369.104)"/><path class="f" d="M377.225,392.712c.262.082.268.8.014,1.608a4.177,4.177,0,0,1-.3.725c-.217.4-.459.64-.632.585-.262-.082-.268-.8-.014-1.608S376.963,392.629,377.225,392.712Z" transform="translate(-373.781 -382.082)"/><path class="g" d="M378.443,396.407a3.364,3.364,0,0,0,.44-1.45c.268.092.563.177.876.256a4.836,4.836,0,0,1-1.006,1.305Z" transform="translate(-375.255 -383.502)"/><path class="f" d="M370.081,414.479c.269-.057.627.568.8,1.395a4.179,4.179,0,0,1,.093.78c.007.456-.086.783-.264.82-.268.057-.627-.568-.8-1.395S369.812,414.535,370.081,414.479Z" transform="translate(-369.817 -395.809)"/><path class="g" d="M372.389,417.278a4.868,4.868,0,0,0-.328-1.48c.272-.066.583-.143.9-.227a5,5,0,0,1-.239,1.658Z" transform="translate(-371.232 -396.499)"/><path class="f" d="M383,436.907c.2-.185.828.172,1.4.8a4.208,4.208,0,0,1,.475.625c.237.39.322.718.187.841-.2.185-.828-.172-1.4-.8S382.8,437.092,383,436.907Z" transform="translate(-378.089 -409.921)"/><path class="g" d="M386.321,437.721a3.362,3.362,0,0,0-1.032-1.11c.214-.184.436-.4.662-.628a4.836,4.836,0,0,1,.622,1.526Z" transform="translate(-379.572 -409.369)"/><path class="f" d="M406.2,458.13c.02-.274.72-.445,1.563-.383a4.191,4.191,0,0,1,.775.127c.44.119.728.3.715.481-.02.273-.72.445-1.563.383S406.18,458.4,406.2,458.13Z" transform="translate(-392.756 -423.083)"/><path class="g" d="M409.772,456.327a4.87,4.87,0,0,0-1.512-.1c.012-.28.024-.6.03-.923a5,5,0,0,1,1.527.689Z" transform="translate(-394.055 -421.553)"/><path class="f" d="M432.561,451.491c-.095-.258.472-.7,1.265-.993a4.172,4.172,0,0,1,.759-.2c.45-.073.787-.027.849.144.094.258-.473.7-1.266.992S432.656,451.749,432.561,451.491Z" transform="translate(-409.371 -418.372)"/><path class="g" d="M434.895,449.709a3.363,3.363,0,0,0-1.417.537c-.09-.268-.2-.554-.331-.851a4.841,4.841,0,0,1,1.648,0Z" transform="translate(-409.746 -417.775)"/><path class="f" d="M459.458,434.766c-.24-.133-.1-.84.309-1.579a4.192,4.192,0,0,1,.44-.65c.293-.35.577-.535.736-.447.24.133.1.84-.308,1.579S459.7,434.9,459.458,434.766Z" transform="translate(-426.261 -406.901)"/><path class="g" d="M458.932,433.169a4.874,4.874,0,0,0-.722,1.333c-.249-.128-.534-.274-.825-.415a5,5,0,0,1,1.267-1.1Z" transform="translate(-425.028 -407.483)"/><path class="g" d="M401.524,416.3c.174.973-.215,1.856-.869,1.974s-1.326-.576-1.5-1.549.214-1.856.869-1.973S401.35,415.326,401.524,416.3Z" transform="translate(-388.288 -395.973)"/><path class="h" d="M399.837,413.817c.174.973-.215,1.856-.869,1.973s-1.326-.576-1.5-1.548.215-1.856.869-1.974S399.663,412.844,399.837,413.817Z" transform="translate(-387.224 -394.409)"/><path class="f" d="M399.837,413.817c.174.973-.215,1.856-.869,1.973s-1.326-.576-1.5-1.548.215-1.856.869-1.974S399.663,412.844,399.837,413.817Z" transform="translate(-387.224 -394.409)"/><path class="g" d="M397.982,390.946c.778-.609,1.74-.68,2.15-.156s.112,1.441-.665,2.051-1.74.68-2.151.156S397.2,391.555,397.982,390.946Z" transform="translate(-387.039 -380.653)"/><path class="h" d="M396.124,388.7c.777-.609,1.74-.679,2.151-.156s.112,1.441-.666,2.051-1.74.68-2.151.156S395.346,389.306,396.124,388.7Z" transform="translate(-385.868 -379.236)"/><path class="f" d="M396.124,388.7c.777-.609,1.74-.679,2.151-.156s.112,1.441-.666,2.051-1.74.68-2.151.156S395.346,389.306,396.124,388.7Z" transform="translate(-385.868 -379.236)"/><path class="g" d="M413.648,429.936a1.178,1.178,0,1,1-1.367-.951A1.177,1.177,0,0,1,413.648,429.936Z" transform="translate(-395.979 -404.945)"/><path class="h" d="M413.347,428.256a1.178,1.178,0,1,1-1.367-.951A1.178,1.178,0,0,1,413.347,428.256Z" transform="translate(-395.789 -403.885)"/><path class="f" d="M413.347,428.256a1.178,1.178,0,1,1-1.367-.951A1.178,1.178,0,0,1,413.347,428.256Z" transform="translate(-395.789 -403.885)"/><circle class="g" cx="1.448" cy="1.448" r="1.448" transform="translate(20.848 11.082)"/><path class="h" d="M430.034,394.4a1.448,1.448,0,1,1-.444-2A1.448,1.448,0,0,1,430.034,394.4Z" transform="translate(-406.1 -381.75)"/><path class="f" d="M430.034,394.4a1.448,1.448,0,1,1-.444-2A1.448,1.448,0,0,1,430.034,394.4Z" transform="translate(-406.1 -381.75)"/><path class="g" d="M431.241,430.607a.864.864,0,1,1-1-.7A.864.864,0,0,1,431.241,430.607Z" transform="translate(-407.464 -405.531)"/><path class="h" d="M431.02,429.375a.864.864,0,1,1-1-.7A.863.863,0,0,1,431.02,429.375Z" transform="translate(-407.324 -404.754)"/><path class="f" d="M431.02,429.375a.864.864,0,1,1-1-.7A.863.863,0,0,1,431.02,429.375Z" transform="translate(-407.324 -404.754)"/><path class="f" d="M467.278,402.591c-.265.055-.619-.562-.791-1.378a4.136,4.136,0,0,1-.091-.77c-.007-.45.085-.773.261-.81.265-.055.619.562.791,1.379S467.543,402.535,467.278,402.591Z" transform="translate(-430.709 -386.448)"/><path class="g" d="M465.441,402.008a4.8,4.8,0,0,0,.323,1.462c-.269.065-.576.141-.885.224a4.935,4.935,0,0,1,.237-1.638Z" transform="translate(-429.754 -387.948)"/><path class="f" d="M452.231,381.313c-.2.182-.819-.171-1.38-.788a4.129,4.129,0,0,1-.469-.618c-.234-.385-.317-.71-.185-.83.2-.183.818.17,1.38.788S452.431,381.13,452.231,381.313Z" transform="translate(-420.457 -373.459)"/><path class="g" d="M450.472,381.557a3.32,3.32,0,0,0,1.019,1.1c-.212.182-.431.392-.655.62a4.781,4.781,0,0,1-.614-1.508Z" transform="translate(-420.513 -375.054)"/><path class="f" d="M436.6,365.1c-.085.257-.8.253-1.589-.01a4.144,4.144,0,0,1-.712-.309c-.393-.221-.625-.463-.568-.633.085-.257.8-.253,1.589.01S436.689,364.841,436.6,365.1Z" transform="translate(-410.111 -363.957)"/><path class="g" d="M435.235,366.27a4.815,4.815,0,0,0,1.426.456c-.079.265-.168.569-.252.877a4.931,4.931,0,0,1-1.3-1.029Z" transform="translate(-410.986 -365.415)"/><g transform="translate(14.124 0.714)"><path class="f" d="M411,366.148c.057.265-.559.621-1.375.8a4.142,4.142,0,0,1-.77.094c-.45.009-.773-.083-.811-.258-.057-.265.559-.621,1.375-.8S410.943,365.883,411,366.148Z" transform="translate(-408.04 -365.89)"/></g><path class="g" d="M410.422,368.434a3.323,3.323,0,0,0,1.461-.329c.051.275.122.57.207.878a4.775,4.775,0,0,1-1.612-.228Z" transform="translate(-395.418 -366.572)"/><path class="g" d="M436.985,418.591c-.3.941-1.058,1.54-1.691,1.338s-.9-1.13-.6-2.071,1.058-1.54,1.691-1.337S437.286,417.65,436.985,418.591Z" transform="translate(-410.643 -397.073)"/><path class="h" d="M438.126,417.056c-.3.941-1.058,1.54-1.691,1.337s-.9-1.13-.6-2.071,1.058-1.54,1.691-1.337S438.427,416.114,438.126,417.056Z" transform="translate(-411.362 -396.105)"/><path class="f" d="M438.126,417.056c-.3.941-1.058,1.54-1.691,1.337s-.9-1.13-.6-2.071,1.058-1.54,1.691-1.337S438.427,416.114,438.126,417.056Z" transform="translate(-411.362 -396.105)"/><path class="g" d="M417.855,407.085a1.789,1.789,0,1,1-2.077-1.445A1.789,1.789,0,0,1,417.855,407.085Z" transform="translate(-397.866 -390.22)"/><path class="h" d="M417.358,404.316a1.789,1.789,0,1,1-2.077-1.445A1.789,1.789,0,0,1,417.358,404.316Z" transform="translate(-397.553 -388.474)"/><path class="f" d="M417.358,404.316a1.789,1.789,0,1,1-2.077-1.445A1.789,1.789,0,0,1,417.358,404.316Z" transform="translate(-397.553 -388.474)"/><g class="i" transform="translate(8.073 23.541)"><path d="M409.872,429.807c.1.118-.018.424-.366.857a7.438,7.438,0,0,1-1.774,1.51,10.938,10.938,0,0,1-1.434.763,11.88,11.88,0,0,1-11.8-1.373,10.96,10.96,0,0,1-1.221-1.072,7.43,7.43,0,0,1-1.38-1.877c-.239-.5-.284-.826-.159-.917.273-.2,1.112.594,2.576,1.543.364.239.775.478,1.217.722s.929.474,1.453.681a13.026,13.026,0,0,0,7.109.827c.557-.081,1.079-.207,1.57-.329s.941-.274,1.351-.423C408.653,430.13,409.651,429.549,409.872,429.807Z" transform="translate(-391.666 -427.666)"/></g><g class="i" transform="translate(6.274 19.132)"><path d="M387.7,415.765a1.092,1.092,0,1,1-.878,1.319A1.122,1.122,0,0,1,387.7,415.765Z" transform="translate(-386.795 -415.735)"/></g></g><g transform="translate(8.755 93.445)"><rect class="j" width="6.737" height="6.737" rx="3.369"/><rect class="j" width="6.737" height="6.737" rx="3.369" transform="translate(8.168)"/><rect class="j" width="6.737" height="6.737" rx="3.369" transform="translate(16.337)"/><rect class="j" width="6.737" height="6.737" rx="3.369" transform="translate(24.505)"/><rect class="j" width="6.737" height="6.737" rx="3.369" transform="translate(32.673)"/></g><rect class="j" width="40.033" height="12.561" rx="6.281" transform="translate(8.675 11.193)"/><path class="k" d="M395.846,276.408,355.772,378.332h-.5a5.591,5.591,0,0,1-5.554-5.6V282a5.591,5.591,0,0,1,5.554-5.6Z" transform="translate(-346.872 -273.731)"/><rect class="a" width="21.982" height="5.418" rx="2.709" transform="translate(17.696 0.633)"/></g><g transform="translate(34.484 95.058)"><path class="l" d="M439.634,529.544a.39.39,0,0,1-.39.39h-3.509a.39.39,0,0,1-.39-.39V527.4a.39.39,0,0,1,.39-.39h.78l.39-.585h1.17l.39.585h.78a.39.39,0,0,1,.39.39Z" transform="translate(-435.344 -526.424)"/><circle class="l" cx="0.78" cy="0.78" r="0.78" transform="translate(1.365 1.17)"/></g></g><g transform="translate(291.033 501.852)"><line class="m" y2="6.445" transform="translate(2.668)"/><path class="n" d="M6,9l2.668,2.7L11.337,9" transform="translate(-6 -4.768)"/></g></g></svg>