<svg xmlns="http://www.w3.org/2000/svg" width="140.148" height="110.461" viewBox="0 0 140.148 110.461"><defs><style>.a,.f{fill:#fff;}.b{fill:#002733;}.c{fill:#faccbf;opacity:0.45;}.d{fill:#ebe2e2;}.e{fill:#ef9f8d;}.f{opacity:0.4;}</style></defs><path class="a" d="M498.583,411.713h-49.5l9.814-49.5h49.5Z" transform="translate(-368.25 -336.552)"/><g transform="translate(86.23 30.163)"><g transform="translate(5.8 0)"><path class="b" d="M475.084,371.769l-2.23,11.249H484.1l2.231-11.249Zm7.215,9h-6.75l1.338-6.75h6.75Z" transform="translate(-472.854 -371.769)"/><path class="b" d="M486.553,383.573H484.3l.446-2.25H487Z" transform="translate(-478.912 -376.824)"/></g><g transform="translate(0 29.249)"><path class="b" d="M462.768,433.881l-2.23,11.249h11.249l2.231-11.249Zm7.215,9h-6.749l1.338-6.749h6.75Z" transform="translate(-460.538 -433.881)"/><path class="b" d="M474.237,445.686h-2.25l.446-2.25h2.25Z" transform="translate(-466.596 -438.936)"/></g><g transform="translate(17.523 14.626)"><path class="b" d="M499.98,402.827l-2.231,11.249H509l2.23-11.249Zm7.214,9h-6.749l1.338-6.749h6.749Z" transform="translate(-497.749 -402.827)"/><path class="b" d="M511.448,414.632H509.2l.446-2.25h2.25Z" transform="translate(-503.807 -407.883)"/></g><g transform="translate(29.693 26.999)"><path class="b" d="M525.823,429.1l-2.23,11.249h11.249l2.231-11.249Zm7.215,9h-6.749l1.338-6.75h6.75Z" transform="translate(-523.593 -429.103)"/><path class="b" d="M537.292,440.908h-2.25l.446-2.25h2.25Z" transform="translate(-529.651 -434.159)"/></g><path class="b" d="M491.453,455.241H489.2l.446-2.25h2.25Z" transform="translate(-475.704 -414.743)"/><path class="b" d="M501.955,450.463h-2.25l.446-2.25h2.25Z" transform="translate(-481.261 -412.215)"/><path class="b" d="M503.85,440.908H501.6l.446-2.25h2.25Z" transform="translate(-482.263 -407.159)"/><path class="b" d="M498.125,445.686h-2.25l.446-2.25h2.25Z" transform="translate(-479.234 -409.687)"/><path class="b" d="M488.57,445.686h-2.25l.446-2.25h2.25Z" transform="translate(-474.179 -409.687)"/><path class="b" d="M496.189,431.353h-2.25l.446-2.25h2.25Z" transform="translate(-478.21 -402.104)"/><path class="b" d="M510.522,431.353h-2.25l.446-2.25h2.25Z" transform="translate(-485.794 -402.104)"/><path class="b" d="M514.352,436.131H512.1l.446-2.25h2.25Z" transform="translate(-487.82 -404.632)"/><path class="b" d="M517.235,445.686h-2.25l.446-2.25h2.25Z" transform="translate(-489.345 -409.687)"/><path class="b" d="M513.4,440.908h-2.25l.446-2.25h2.25Z" transform="translate(-487.319 -407.159)"/><path class="b" d="M511.51,450.463h-2.25l.446-2.25h2.25Z" transform="translate(-486.316 -412.215)"/><path class="b" d="M510.563,455.241h-2.25l.446-2.25h2.25Z" transform="translate(-485.815 -414.743)"/><path class="b" d="M487.581,426.576h-2.25l.446-2.25h2.25Z" transform="translate(-473.656 -399.576)"/><path class="b" d="M526.749,421.8H524.5l.446-2.25h2.25Z" transform="translate(-494.379 -397.048)"/><path class="b" d="M531.526,421.8h-2.25l.446-2.25h2.25Z" transform="translate(-496.907 -397.048)"/><path class="b" d="M536.3,421.8h-2.25l.446-2.25h2.25Z" transform="translate(-499.435 -397.048)"/><path class="b" d="M536.3,421.8h-2.25l.446-2.25h2.25Z" transform="translate(-499.435 -397.048)"/><path class="b" d="M481.816,407.466h-2.25l.446-2.25h2.25Z" transform="translate(-470.605 -389.465)"/><path class="b" d="M487.54,402.688h-2.25l.446-2.25h2.25Z" transform="translate(-473.634 -386.938)"/><path class="b" d="M530.055,374.018H505.308l.446-2.25H530.5Z" transform="translate(-484.225 -371.769)"/><path class="b" d="M511.288,383.573h-7.874l.446-2.25h7.874Z" transform="translate(-483.223 -376.824)"/><path class="b" d="M517.267,393.128H501.519l.446-2.25h15.748Z" transform="translate(-482.22 -381.88)"/><path class="b" d="M494.254,417.021H492l.446-2.25h2.25Z" transform="translate(-477.186 -394.521)"/><path class="b" d="M498.043,397.911h-2.25l.446-2.25h2.25Z" transform="translate(-479.191 -384.41)"/><path class="b" d="M496.148,407.466H493.9l.446-2.25h2.25Z" transform="translate(-478.189 -389.465)"/><path class="b" d="M472.3,431.353h-2.25l.446-2.25h2.25Z" transform="translate(-465.572 -402.104)"/><path class="b" d="M480.945,421.8h-9l.446-2.25h9Z" transform="translate(-466.574 -397.048)"/><path class="b" d="M482.84,412.243h-9l.446-2.25h9Z" transform="translate(-467.577 -391.993)"/><path class="b" d="M468.471,413.937h-2.25l2.677-13.5h2.25Z" transform="translate(-463.545 -386.938)"/><path class="b" d="M520.118,455.241h-2.25l.446-2.25h2.25Z" transform="translate(-490.871 -414.743)"/><path class="b" d="M534.45,455.241H532.2l.446-2.25h2.25Z" transform="translate(-498.454 -414.743)"/><path class="b" d="M544.005,455.241h-2.25l.446-2.25h2.25Z" transform="translate(-503.509 -414.743)"/><path class="b" d="M550.636,421.8h-2.25l.446-2.25h2.25Z" transform="translate(-507.018 -397.048)"/><path class="b" d="M544.912,426.576h-2.25l.446-2.25h2.25Z" transform="translate(-503.989 -399.576)"/><path class="b" d="M542.029,417.021h-2.25l.446-2.25h2.25Z" transform="translate(-502.464 -394.521)"/><path class="b" d="M538.2,412.243h-2.25l.446-2.25h2.25Z" transform="translate(-500.437 -391.993)"/><path class="b" d="M534.368,407.466h-2.25l.446-2.25h2.25Z" transform="translate(-498.411 -389.465)"/><path class="b" d="M530.538,402.688h-2.25l.446-2.25h2.25Z" transform="translate(-496.384 -386.938)"/><path class="b" d="M536.263,397.911h-2.25l.446-2.25h2.25Z" transform="translate(-499.413 -384.41)"/><path class="b" d="M534.327,383.578h-2.25l.446-2.25h2.25Z" transform="translate(-498.389 -376.827)"/><path class="b" d="M524.772,383.578h-2.25l.446-2.25h2.25Z" transform="translate(-493.333 -376.827)"/><path class="b" d="M528.6,388.356h-2.25l.446-2.25h2.25Z" transform="translate(-495.36 -379.354)"/><path class="b" d="M530.5,378.8h-2.25l.446-2.25h2.25Z" transform="translate(-496.362 -374.299)"/><path class="b" d="M539.1,383.578h-2.25l.446-2.25h2.25Z" transform="translate(-500.917 -376.827)"/><path class="b" d="M542.935,388.356h-2.25l.446-2.25h2.25Z" transform="translate(-502.943 -379.354)"/><path class="b" d="M546.765,393.133h-2.25l.446-2.25h2.25Z" transform="translate(-504.97 -381.882)"/><path class="b" d="M549.607,378.8h-2.25l.446-2.25h2.25Z" transform="translate(-506.473 -374.299)"/><path class="b" d="M544.871,402.688h-2.25l.446-2.25h2.25Z" transform="translate(-503.967 -386.938)"/><path class="b" d="M554.426,387.519h-2.25l3.123-15.751h2.25Z" transform="translate(-509.023 -371.769)"/></g><path class="c" d="M419.68,329.231l69.79,40.063H435.476L417.8,338.716Z" transform="translate(-351.695 -319.099)"/><path class="b" d="M327.006,418.176H283.785a6.191,6.191,0,0,1-6.215-7.729l18.613-95a9.9,9.9,0,0,1,9.244-7.73h43.221a6.191,6.191,0,0,1,6.215,7.73l-18.613,95A9.9,9.9,0,0,1,327.006,418.176Z" transform="translate(-277.423 -307.715)"/><path class="d" d="M355.445,319.252l-18.181,92.8a7.3,7.3,0,0,1-6.8,5.723h-41.5a4.568,4.568,0,0,1-4.559-5.723l18.182-92.8a7.3,7.3,0,0,1,6.8-5.723h41.5A4.568,4.568,0,0,1,355.445,319.252Z" transform="translate(-281.057 -310.791)"/><g transform="translate(17.796 28.528)"><path class="a" d="M352.747,405.829H315.213l7.571-37.534h37.534Z" transform="translate(-315.213 -368.296)"/><g transform="translate(4.1 3.41)"><g transform="translate(4.474 0)"><path class="b" d="M335.142,375.538l-1.721,8.531h8.531l1.721-8.531Zm5.448,6.824h-5.118l1.033-5.118h5.118Z" transform="translate(-333.421 -375.538)"/><path class="b" d="M343.835,384.49h-1.706l.344-1.706h1.706Z" transform="translate(-338.028 -379.372)"/></g><g transform="translate(0 22.181)"><path class="b" d="M325.641,422.64l-1.721,8.53h8.531l1.721-8.53Zm5.448,6.824H325.97L327,424.346h5.118Z" transform="translate(-323.92 -422.64)"/><path class="b" d="M334.334,431.592h-1.706l.344-1.706h1.706Z" transform="translate(-328.527 -426.474)"/></g><g transform="translate(13.327 11.091)"><path class="b" d="M353.941,399.091l-1.721,8.53h8.531l1.72-8.53Zm5.447,6.824H354.27L355.3,400.8h5.118Z" transform="translate(-352.22 -399.091)"/><path class="b" d="M362.633,408.043h-1.706l.344-1.706h1.706Z" transform="translate(-356.827 -402.925)"/></g><g transform="translate(22.524 20.475)"><path class="b" d="M373.471,419.017l-1.721,8.531h8.53L382,419.017Zm5.448,6.824H373.8l1.033-5.118h5.118Z" transform="translate(-371.75 -419.017)"/><path class="b" d="M382.163,427.969h-1.706l.344-1.706h1.706Z" transform="translate(-376.357 -422.851)"/></g><path class="b" d="M347.364,438.838h-1.706l.344-1.706h1.706Z" transform="translate(-335.421 -408.127)"/><path class="b" d="M355.341,435.215h-1.706l.344-1.706h1.706Z" transform="translate(-339.642 -406.21)"/><path class="b" d="M356.8,427.969H355.1l.344-1.706h1.706Z" transform="translate(-340.415 -402.376)"/><path class="b" d="M352.449,431.592h-1.706l.344-1.706h1.706Z" transform="translate(-338.112 -404.293)"/><path class="b" d="M345.2,431.592H343.5l.344-1.706h1.706Z" transform="translate(-334.278 -404.293)"/><path class="b" d="M351.018,420.723h-1.706l.344-1.706h1.706Z" transform="translate(-337.355 -398.542)"/><path class="b" d="M361.887,420.723h-1.706l.344-1.706h1.706Z" transform="translate(-343.105 -398.542)"/><path class="b" d="M364.779,424.346h-1.706l.344-1.706h1.706Z" transform="translate(-344.636 -400.459)"/><path class="b" d="M366.94,431.592h-1.706l.344-1.706h1.706Z" transform="translate(-345.779 -404.293)"/><path class="b" d="M364.048,427.969h-1.706l.344-1.706h1.706Z" transform="translate(-344.249 -402.376)"/><path class="b" d="M362.587,435.215h-1.706l.344-1.706h1.706Z" transform="translate(-343.476 -406.21)"/><path class="b" d="M361.856,438.838H360.15l.344-1.706H362.2Z" transform="translate(-343.089 -408.127)"/><path class="b" d="M344.5,417.1H342.8l.344-1.706h1.706Z" transform="translate(-333.908 -396.625)"/><path class="b" d="M374.217,413.477h-1.706l.344-1.706h1.706Z" transform="translate(-349.629 -394.708)"/><path class="b" d="M377.84,413.477h-1.706l.344-1.706h1.706Z" transform="translate(-351.546 -394.708)"/><path class="b" d="M381.463,413.477h-1.706l.344-1.706h1.706Z" transform="translate(-353.463 -394.708)"/><path class="b" d="M381.463,413.477h-1.706l.344-1.706h1.706Z" transform="translate(-353.463 -394.708)"/><path class="b" d="M340.18,402.608h-1.706l.344-1.706h1.706Z" transform="translate(-331.621 -388.958)"/><path class="b" d="M344.534,398.985h-1.706l.344-1.706h1.706Z" transform="translate(-333.924 -387.041)"/><path class="b" d="M376.849,377.244H358.082l.344-1.706h18.767Z" transform="translate(-341.995 -375.538)"/><path class="b" d="M362.592,384.49h-5.971l.344-1.706h5.971Z" transform="translate(-341.222 -379.372)"/><path class="b" d="M367.1,391.736H355.159l.344-1.706h11.943Z" transform="translate(-340.448 -383.205)"/><path class="b" d="M349.588,409.854h-1.706l.344-1.706h1.706Z" transform="translate(-336.598 -392.792)"/><path class="b" d="M352.511,395.362H350.8l.344-1.706h1.706Z" transform="translate(-338.144 -385.124)"/><path class="b" d="M351.049,402.608h-1.706l.344-1.706h1.706Z" transform="translate(-337.371 -388.958)"/><path class="b" d="M332.9,420.723H331.2l.344-1.706h1.706Z" transform="translate(-327.77 -398.542)"/><path class="b" d="M339.483,413.477h-6.824l.344-1.706h6.824Z" transform="translate(-328.544 -394.708)"/><path class="b" d="M340.945,406.231h-6.824l.344-1.706h6.824Z" transform="translate(-329.317 -390.875)"/><path class="b" d="M330.011,407.516h-1.706l2.065-10.237h1.706Z" transform="translate(-326.24 -387.041)"/><path class="b" d="M369.1,438.838H367.4l.344-1.706h1.706Z" transform="translate(-346.923 -408.127)"/><path class="b" d="M379.971,438.838h-1.706l.344-1.706h1.706Z" transform="translate(-352.673 -408.127)"/><path class="b" d="M387.217,438.838h-1.706l.344-1.706h1.706Z" transform="translate(-356.507 -408.127)"/><path class="b" d="M392.332,413.477h-1.706l.344-1.706h1.706Z" transform="translate(-359.214 -394.708)"/><path class="b" d="M387.978,417.1h-1.706l.344-1.706h1.706Z" transform="translate(-356.91 -396.625)"/><path class="b" d="M385.817,409.854h-1.706l.344-1.706h1.706Z" transform="translate(-355.767 -392.792)"/><path class="b" d="M382.925,406.231h-1.706l.344-1.706h1.706Z" transform="translate(-354.236 -390.875)"/><path class="b" d="M380.033,402.608h-1.706l.344-1.706h1.706Z" transform="translate(-352.706 -388.958)"/><path class="b" d="M377.141,398.985h-1.706l.344-1.706h1.706Z" transform="translate(-351.176 -387.041)"/><path class="b" d="M381.494,395.362h-1.706l.344-1.706h1.706Z" transform="translate(-353.479 -385.124)"/><path class="b" d="M380.064,384.493h-1.706l.344-1.706h1.706Z" transform="translate(-352.723 -379.374)"/><path class="b" d="M372.818,384.493h-1.706l.344-1.706h1.706Z" transform="translate(-348.889 -379.374)"/><path class="b" d="M375.71,388.116H374l.344-1.706h1.706Z" transform="translate(-350.419 -381.29)"/><path class="b" d="M377.172,380.87h-1.706l.344-1.706h1.706Z" transform="translate(-351.192 -377.457)"/><path class="b" d="M383.687,384.493h-1.706l.344-1.706h1.706Z" transform="translate(-354.639 -379.374)"/><path class="b" d="M386.579,388.116h-1.706l.344-1.706h1.706Z" transform="translate(-356.17 -381.29)"/><path class="b" d="M389.471,391.739h-1.706l.344-1.706h1.706Z" transform="translate(-357.7 -383.207)"/><path class="b" d="M391.663,380.87h-1.706l.344-1.706h1.706Z" transform="translate(-358.86 -377.457)"/><path class="b" d="M388.009,398.985H386.3l.344-1.706h1.706Z" transform="translate(-356.927 -387.041)"/><path class="b" d="M395.255,387.482h-1.706l2.409-11.944h1.706Z" transform="translate(-360.76 -375.538)"/></g></g><g transform="translate(18.388 71.18)"><path class="e" d="M343.67,468.132H320.2a3.621,3.621,0,0,1-3.644-4.533l.039-.2a5.784,5.784,0,0,1,5.421-4.533h23.467a3.622,3.622,0,0,1,3.645,4.533l-.039.2A5.784,5.784,0,0,1,343.67,468.132Z" transform="translate(-316.472 -458.869)"/><g transform="translate(7.859 2.067)"><path d="M334.632,467.965a1.734,1.734,0,0,1-.842-.17,1.973,1.973,0,0,1-.605-.516.16.16,0,0,1-.019-.036.122.122,0,0,1,0-.062.187.187,0,0,1,.066-.1.163.163,0,0,1,.108-.049.119.119,0,0,1,.1.059,1.328,1.328,0,0,0,.522.458,1.568,1.568,0,0,0,.7.156,1.711,1.711,0,0,0,.616-.107,1.262,1.262,0,0,0,.472-.308.922.922,0,0,0,.242-.467.708.708,0,0,0-.078-.536,1.023,1.023,0,0,0-.389-.333,5.455,5.455,0,0,0-.538-.242q-.224-.092-.44-.19a1.546,1.546,0,0,1-.378-.238.779.779,0,0,1-.232-.353,1.049,1.049,0,0,1-.008-.526,1.235,1.235,0,0,1,.286-.579,1.585,1.585,0,0,1,.578-.412,1.981,1.981,0,0,1,.8-.154,1.829,1.829,0,0,1,.7.134.927.927,0,0,1,.477.4.232.232,0,0,1,.038.138.163.163,0,0,1-.067.091.186.186,0,0,1-.116.046.087.087,0,0,1-.078-.039.892.892,0,0,0-.231-.272,1.063,1.063,0,0,0-.341-.177,1.431,1.431,0,0,0-.432-.062,1.732,1.732,0,0,0-.6.1,1.332,1.332,0,0,0-.477.3.892.892,0,0,0-.25.475.619.619,0,0,0,.077.493,1.038,1.038,0,0,0,.379.32,5.509,5.509,0,0,0,.5.233c.155.056.307.118.458.186a1.561,1.561,0,0,1,.395.251.828.828,0,0,1,.243.38,1.173,1.173,0,0,1,.005.575,1.191,1.191,0,0,1-.282.556,1.654,1.654,0,0,1-.568.412A1.951,1.951,0,0,1,334.632,467.965Z" transform="translate(-333.161 -463.258)"/><path d="M345.7,463.7a.106.106,0,0,1,.041.089.178.178,0,0,1-.046.1.136.136,0,0,1-.091.049.143.143,0,0,1-.09-.023,1.944,1.944,0,0,0-.54-.3,1.912,1.912,0,0,0-.668-.111,2.212,2.212,0,0,0-.811.154,2.539,2.539,0,0,0-.723.435,2.7,2.7,0,0,0-.562.667,2.6,2.6,0,0,0-.324.85,2.134,2.134,0,0,0-.01.85,1.6,1.6,0,0,0,.3.667,1.464,1.464,0,0,0,.552.435,1.765,1.765,0,0,0,.751.154,2.285,2.285,0,0,0,.708-.112,3.245,3.245,0,0,0,.652-.294.16.16,0,0,1,.1-.026.094.094,0,0,1,.075.052.122.122,0,0,1,.006.1.153.153,0,0,1-.068.086,2.928,2.928,0,0,1-.438.216,3.457,3.457,0,0,1-.539.166,2.533,2.533,0,0,1-.549.062,1.984,1.984,0,0,1-.848-.176,1.733,1.733,0,0,1-.629-.494,1.809,1.809,0,0,1-.347-.745,2.257,2.257,0,0,1,0-.938,2.793,2.793,0,0,1,.364-.939,3.071,3.071,0,0,1,.639-.745,2.953,2.953,0,0,1,.822-.493,2.467,2.467,0,0,1,.918-.177,2.308,2.308,0,0,1,.745.117A1.884,1.884,0,0,1,345.7,463.7Z" transform="translate(-337.603 -463.258)"/><path d="M352.462,463.715l-2.469,4.159a.158.158,0,0,1-.057.062.143.143,0,0,1-.077.023.113.113,0,0,1-.092-.033.111.111,0,0,1-.023-.078.129.129,0,0,1,.019-.066l2.607-4.328a.141.141,0,0,1,.141-.085.123.123,0,0,1,.081.023.091.091,0,0,1,.033.062l.911,4.328a.164.164,0,0,1,0,.053.143.143,0,0,1-.057.091.176.176,0,0,1-.1.033.127.127,0,0,1-.077-.023.088.088,0,0,1-.037-.062l-.882-4.211ZM350.7,466.54l.143-.262h2.118l.015.262Z" transform="translate(-341.934 -463.317)"/><path d="M363.837,463.4a.1.1,0,0,1,.084.036.11.11,0,0,1,.016.088l-.844,4.309a.167.167,0,0,1-.063.107.171.171,0,0,1-.1.036.119.119,0,0,1-.052-.013.086.086,0,0,1-.041-.039l-2.222-4.145.1-.046-.809,4.133a.133.133,0,0,1-.051.078.152.152,0,0,1-.095.032.1.1,0,0,1-.085-.032.091.091,0,0,1-.017-.078l.849-4.335a.146.146,0,0,1,.059-.1.157.157,0,0,1,.085-.03.133.133,0,0,1,.05.01.08.08,0,0,1,.039.036l2.213,4.119-.078.131.818-4.172a.143.143,0,0,1,.056-.088A.151.151,0,0,1,363.837,463.4Z" transform="translate(-347.177 -463.331)"/></g></g><path class="f" d="M350.648,313.529,289.237,417.776h-.513a4.568,4.568,0,0,1-4.559-5.723l18.181-92.8a7.3,7.3,0,0,1,6.8-5.723Z" transform="translate(-280.932 -310.791)"/><path class="b" d="M376.76,314.632H359.415a2.058,2.058,0,0,1-2.065-2.569l.079-.4a3.289,3.289,0,0,1,3.072-2.569h17.345a2.057,2.057,0,0,1,2.065,2.569l-.079.4A3.288,3.288,0,0,1,376.76,314.632Z" transform="translate(-319.685 -308.443)"/></svg>