<?xml version="1.0" encoding="utf-8"?>
<!-- Generator: Adobe Illustrator 16.0.4, SVG Export Plug-In . SVG Version: 6.00 Build 0)  -->
<!DOCTYPE svg PUBLIC "-//W3C//DTD SVG 1.1//EN" "http://www.w3.org/Graphics/SVG/1.1/DTD/svg11.dtd">
<svg version="1.1" id="Layer_1" xmlns="http://www.w3.org/2000/svg" xmlns:xlink="http://www.w3.org/1999/xlink" x="0px" y="0px"
	 width="57.373px" height="108px" viewBox="0 0 57.373 108" enable-background="new 0 0 57.373 108" xml:space="preserve">
<g transform="translate(-257.186 -418)">
	<g transform="translate(257.186 418)">
		<g transform="translate(0 0)">
			<path fill="#002832" d="M8,0h41.373c4.418,0,8,3.582,8,8v92c0,4.418-3.582,8-8,8H8c-4.418,0-8-3.582-8-8V8C0,3.582,3.582,0,8,0z"
				/>
			<path fill="#EBE2E2" d="M54.528,8.269v90.732c0.004,3.077-2.479,5.579-5.555,5.601H8.398c-3.077-0.021-5.559-2.523-5.554-5.601
				V8.269c-0.005-3.077,2.478-5.58,5.554-5.6h40.576C52.051,2.69,54.532,5.192,54.528,8.269z"/>
			<g transform="translate(10.271 35.026)">
				<path fill="#035E7B" d="M30.158,22.223c0.615-1.56,0.916-3.225,0.883-4.9c1.061-0.89,4.971-1.8,4.971-1.8l-0.288-1.469
					c-1.735,0.152-3.483,0.101-5.207-0.152c-0.376-1.259-0.946-2.452-1.688-3.536c0.517-1.061,1.25-2.002,2.151-2.764l-0.992-1.121
					c-0.882,0.743-1.862,1.36-2.913,1.835c-0.709-0.675-1.494-1.267-2.338-1.764c-0.261-1.333,0.939-5.239,0.939-5.239l-1.414-0.49
					c-0.744,1.568-1.67,3.043-2.758,4.395c-1.219-0.319-2.477-0.454-3.734-0.4c-0.642-1.001-1.083-2.117-1.3-3.287l-1.468,0.294
					c0.199,1.116,0.244,2.253,0.132,3.381c-1.07,0.272-2.101,0.684-3.064,1.223c-1.332-0.514-4.073-3.415-4.073-3.415l-1.138,1
					c0.993,1.396,1.812,2.907,2.441,4.5c-1,1.001-1.827,2.161-2.448,3.433c-1.095,0.03-2.186-0.139-3.219-0.5l-0.474,1.438
					c0.994,0.35,1.939,0.825,2.813,1.414c-0.292,1.103-0.433,2.241-0.419,3.382c-1.511,0.705-3.093,1.244-4.719,1.609l0.292,1.487
					c1.622-0.157,3.256-0.115,4.868,0.123c0.37,1.365,0.966,2.658,1.764,3.827c-0.524,0.95-1.214,1.8-2.037,2.506l1,1.134
					c0.803-0.684,1.69-1.263,2.64-1.722c1.298,1.272,2.853,2.253,4.559,2.878c0.3,1.697,0.396,3.426,0.284,5.146l1.509,0.132
					c0.289-1.571,0.77-3.102,1.431-4.556c1.715,0.173,3.446-0.021,5.08-0.571c0.659,0.835,1.169,1.778,1.507,2.786l1.43-0.5
					c-0.352-1.066-0.556-2.177-0.609-3.299c1.562-0.881,2.922-2.082,3.988-3.524c1.611,0.455,3.168,1.085,4.642,1.879l0.753-1.313
					C32.539,24.699,31.271,23.531,30.158,22.223z M15.517,5.118l-0.048,0.011L15.517,5.118z"/>
				<g transform="translate(14.251 5.884)" opacity="0.1">
					<path fill="#FFFFFF" d="M13.115,14.879c-0.629-0.205-0.729-1.5-1.2-3.184c-0.047-0.212-0.132-0.429-0.192-0.653
						c-0.062-0.224-0.157-0.451-0.235-0.684c-0.184-0.485-0.395-0.959-0.631-1.42c-1.011-2.046-2.706-3.674-4.792-4.6
						C5.593,4.121,5.111,3.93,4.619,3.767C4.383,3.699,4.152,3.62,3.925,3.561S3.478,3.434,3.264,3.395
						c-1.705-0.4-3-0.451-3.231-1.07c-0.051-0.171-0.025-0.357,0.072-0.508c0.139-0.239,0.327-0.447,0.55-0.61
						c0.764-0.553,1.648-0.917,2.58-1.062c0.307-0.059,0.617-0.1,0.928-0.123c0.326-0.028,0.666-0.026,1.02-0.024
						c1.614,0.061,3.192,0.494,4.61,1.266c1.649,0.885,3.024,2.205,3.978,3.815c0.829,1.385,1.328,2.943,1.457,4.553
						c0.017,0.354,0.032,0.694,0.019,1.02c-0.012,0.312-0.039,0.624-0.084,0.933c-0.107,0.937-0.434,1.835-0.953,2.622
						c-0.154,0.23-0.354,0.426-0.588,0.574C13.475,14.887,13.29,14.923,13.115,14.879z"/>
				</g>
				<path fill="#049CBF" d="M8.25,2.212c0.184,0.2-0.175,0.828-0.8,1.394C7.256,3.783,7.046,3.941,6.823,4.079
					c-0.391,0.236-0.72,0.319-0.841,0.184c-0.184-0.2,0.175-0.828,0.8-1.394S8.067,2.008,8.25,2.212z"/>
				<path fill="#053F49" d="M6.878,4.044c0.423-0.282,0.798-0.629,1.114-1.028c0.194,0.2,0.417,0.432,0.647,0.66
					C8.16,3.971,7.635,4.183,7.086,4.303L6.878,4.044z"/>
				<path fill="#049CBF" d="M3.444,10.63c0.262,0.082,0.268,0.8,0.014,1.608c-0.077,0.25-0.177,0.493-0.3,0.725
					c-0.217,0.4-0.459,0.64-0.632,0.585c-0.262-0.082-0.268-0.8-0.014-1.608C2.766,11.132,3.182,10.547,3.444,10.63z"/>
				<path fill="#053F49" d="M3.188,12.905c0.255-0.443,0.405-0.939,0.44-1.45c0.268,0.092,0.563,0.177,0.876,0.256
					c-0.258,0.49-0.598,0.931-1.006,1.305L3.188,12.905z"/>
				<path fill="#049CBF" d="M0.264,18.67c0.269-0.057,0.627,0.568,0.8,1.395c0.056,0.257,0.086,0.519,0.093,0.78
					c0.007,0.456-0.086,0.783-0.264,0.82c-0.268,0.057-0.627-0.568-0.8-1.396C-0.08,19.443-0.005,18.726,0.264,18.67z"/>
				<path fill="#053F49" d="M1.157,20.779c-0.031-0.508-0.142-1.006-0.328-1.479c0.272-0.066,0.583-0.143,0.9-0.227
					c0.014,0.562-0.066,1.123-0.239,1.658L1.157,20.779z"/>
				<path fill="#049CBF" d="M4.911,26.986c0.2-0.185,0.828,0.172,1.4,0.801c0.177,0.192,0.336,0.402,0.475,0.625
					c0.237,0.39,0.322,0.717,0.187,0.84c-0.2,0.186-0.828-0.172-1.4-0.799C5.001,27.824,4.711,27.171,4.911,26.986z"/>
				<path fill="#053F49" d="M6.749,28.352c-0.255-0.444-0.608-0.823-1.032-1.11c0.214-0.184,0.436-0.399,0.662-0.627
					c0.293,0.469,0.503,0.984,0.622,1.525L6.749,28.352z"/>
				<path fill="#049CBF" d="M13.444,35.047c0.02-0.274,0.72-0.445,1.563-0.384c0.262,0.019,0.521,0.061,0.775,0.127
					c0.44,0.119,0.729,0.301,0.715,0.481c-0.02,0.273-0.72,0.445-1.563,0.384C14.091,35.593,13.424,35.317,13.444,35.047z"/>
				<path fill="#053F49" d="M15.717,34.774c-0.496-0.112-1.006-0.146-1.512-0.1c0.012-0.28,0.024-0.601,0.03-0.923
					c0.544,0.142,1.061,0.375,1.527,0.688L15.717,34.774z"/>
				<path fill="#049CBF" d="M23.19,33.119c-0.095-0.258,0.472-0.699,1.265-0.992c0.246-0.091,0.501-0.158,0.76-0.2
					c0.449-0.073,0.787-0.027,0.849,0.144c0.094,0.258-0.474,0.7-1.267,0.992S23.285,33.377,23.19,33.119z"/>
				<path fill="#053F49" d="M25.149,31.934c-0.507,0.069-0.991,0.253-1.417,0.537c-0.09-0.269-0.2-0.554-0.331-0.851
					c0.546-0.095,1.103-0.095,1.647,0L25.149,31.934z"/>
				<path fill="#049CBF" d="M33.197,27.865c-0.24-0.133-0.1-0.84,0.309-1.578c0.127-0.23,0.273-0.448,0.44-0.65
					c0.293-0.35,0.577-0.535,0.736-0.447c0.239,0.133,0.1,0.84-0.308,1.579C33.966,27.507,33.439,27.999,33.197,27.865z"/>
				<path fill="#053F49" d="M33.904,25.686c-0.309,0.404-0.553,0.854-0.722,1.333c-0.249-0.128-0.534-0.273-0.825-0.415
					c0.357-0.436,0.785-0.808,1.268-1.101L33.904,25.686z"/>
				<path fill="#053F49" d="M13.236,20.328c0.174,0.973-0.215,1.855-0.869,1.974c-0.654,0.118-1.326-0.576-1.5-1.55
					c-0.174-0.973,0.214-1.855,0.869-1.973C12.391,18.662,13.062,19.353,13.236,20.328z"/>
				<path d="M12.613,19.408c0.174,0.972-0.215,1.856-0.869,1.972c-0.654,0.117-1.326-0.575-1.5-1.547
					c-0.174-0.973,0.215-1.856,0.869-1.975C11.767,17.741,12.439,18.435,12.613,19.408z"/>
				<path fill="#049CBF" d="M12.613,19.408c0.174,0.972-0.215,1.856-0.869,1.972c-0.654,0.117-1.326-0.575-1.5-1.547
					c-0.174-0.973,0.215-1.856,0.869-1.975C11.767,17.741,12.439,18.435,12.613,19.408z"/>
				<path fill="#053F49" d="M10.943,10.293c0.778-0.609,1.74-0.68,2.15-0.156c0.41,0.524,0.112,1.441-0.665,2.051
					c-0.777,0.61-1.74,0.68-2.151,0.156S10.161,10.902,10.943,10.293z"/>
				<path d="M10.256,9.464c0.777-0.609,1.74-0.679,2.151-0.156c0.411,0.523,0.112,1.441-0.666,2.051
					c-0.778,0.61-1.74,0.68-2.151,0.156C9.179,10.991,9.478,10.07,10.256,9.464z"/>
				<path fill="#049CBF" d="M10.256,9.464c0.777-0.609,1.74-0.679,2.151-0.156c0.411,0.523,0.112,1.441-0.666,2.051
					c-0.778,0.61-1.74,0.68-2.151,0.156C9.179,10.991,9.478,10.07,10.256,9.464z"/>
				<path fill="#053F49" d="M17.669,24.992c0.115,0.64-0.311,1.252-0.951,1.367c-0.641,0.115-1.253-0.311-1.368-0.951
					c-0.115-0.64,0.311-1.252,0.951-1.367c0,0,0,0,0.001,0c0.64-0.115,1.251,0.311,1.367,0.949
					C17.669,24.991,17.669,24.991,17.669,24.992z"/>
				<path d="M17.558,24.37c0.115,0.641-0.311,1.254-0.951,1.369c-0.64,0.114-1.252-0.311-1.368-0.951s0.311-1.253,0.951-1.368
					c0,0,0.001,0,0.001,0C16.831,23.306,17.443,23.731,17.558,24.37z"/>
				<path fill="#049CBF" d="M17.558,24.37c0.115,0.641-0.311,1.254-0.951,1.369c-0.64,0.114-1.252-0.311-1.368-0.951
					s0.311-1.253,0.951-1.368c0,0,0.001,0,0.001,0C16.831,23.306,17.443,23.731,17.558,24.37z"/>
				<circle fill="#053F49" cx="22.296" cy="12.53" r="1.448"/>
				<path d="M23.934,12.65c-0.43,0.675-1.325,0.873-1.999,0.443c-0.675-0.43-0.873-1.325-0.443-2
					c0.43-0.674,1.324-0.873,1.998-0.444C24.165,11.079,24.364,11.974,23.934,12.65C23.935,12.649,23.934,12.65,23.934,12.65z"/>
				<path fill="#049CBF" d="M23.934,12.65c-0.43,0.675-1.325,0.873-1.999,0.443c-0.675-0.43-0.873-1.325-0.443-2
					c0.43-0.674,1.324-0.873,1.998-0.444C24.165,11.079,24.364,11.974,23.934,12.65C23.935,12.649,23.934,12.65,23.934,12.65z"/>
				<path fill="#053F49" d="M23.777,25.076c0.084,0.471-0.229,0.919-0.699,1.002c-0.471,0.084-0.918-0.229-1.002-0.699
					c-0.084-0.471,0.23-0.918,0.699-1.002c0.001,0,0.002,0,0.002,0C23.247,24.294,23.694,24.607,23.777,25.076z"/>
				<path d="M23.696,24.62c0.083,0.471-0.229,0.919-0.7,1.002c-0.469,0.084-0.918-0.229-1.001-0.699
					c-0.083-0.471,0.229-0.918,0.7-1.002c0,0,0,0,0.001,0C23.166,23.838,23.613,24.152,23.696,24.62L23.696,24.62z"/>
				<path fill="#049CBF" d="M23.696,24.62c0.083,0.471-0.229,0.919-0.7,1.002c-0.469,0.084-0.918-0.229-1.001-0.699
					c-0.083-0.471,0.229-0.918,0.7-1.002c0,0,0,0,0.001,0C23.166,23.838,23.613,24.152,23.696,24.62L23.696,24.62z"/>
				<path fill="#049CBF" d="M36.569,16.143c-0.265,0.055-0.618-0.562-0.791-1.378c-0.054-0.253-0.085-0.511-0.091-0.77
					c-0.007-0.45,0.085-0.773,0.261-0.81c0.265-0.055,0.619,0.562,0.791,1.379C36.912,15.381,36.833,16.087,36.569,16.143z"/>
				<path fill="#053F49" d="M35.687,14.06c0.03,0.501,0.14,0.995,0.323,1.462c-0.27,0.065-0.576,0.141-0.886,0.224
					c-0.014-0.555,0.066-1.109,0.237-1.638L35.687,14.06z"/>
				<path fill="#049CBF" d="M31.774,7.854c-0.2,0.182-0.819-0.171-1.38-0.788c-0.176-0.19-0.332-0.397-0.469-0.618
					c-0.234-0.385-0.317-0.71-0.186-0.83c0.2-0.183,0.818,0.17,1.381,0.788C31.682,7.024,31.974,7.671,31.774,7.854z"/>
				<path fill="#053F49" d="M29.958,6.503c0.252,0.439,0.601,0.815,1.02,1.1c-0.212,0.182-0.432,0.392-0.655,0.62
					c-0.289-0.464-0.497-0.974-0.614-1.508L29.958,6.503z"/>
				<path fill="#049CBF" d="M26.489,1.143c-0.085,0.257-0.8,0.253-1.589-0.01c-0.246-0.081-0.484-0.184-0.712-0.309
					c-0.394-0.221-0.625-0.463-0.567-0.633c0.084-0.257,0.799-0.253,1.588,0.01S26.578,0.884,26.489,1.143z"/>
				<path fill="#053F49" d="M24.25,0.855c0.448,0.226,0.93,0.379,1.426,0.456c-0.079,0.265-0.168,0.569-0.252,0.877
					c-0.488-0.267-0.928-0.615-1.301-1.029L24.25,0.855z"/>
				<g transform="translate(14.124 0.714)">
					<path fill="#049CBF" d="M2.96,0.258c0.057,0.265-0.559,0.621-1.375,0.8c-0.253,0.056-0.511,0.087-0.77,0.094
						c-0.45,0.009-0.773-0.083-0.811-0.258c-0.057-0.265,0.559-0.621,1.375-0.8S2.903-0.007,2.96,0.258z"/>
				</g>
				<path fill="#053F49" d="M15.004,1.862c0.506,0.003,1.005-0.109,1.461-0.329c0.051,0.275,0.122,0.57,0.207,0.878
					c-0.546,0.017-1.091-0.06-1.612-0.228L15.004,1.862z"/>
				<path fill="#053F49" d="M26.341,21.518c-0.299,0.94-1.058,1.54-1.69,1.338s-0.899-1.13-0.601-2.071
					c0.301-0.94,1.059-1.54,1.691-1.336C26.375,19.651,26.643,20.578,26.341,21.518z"/>
				<path d="M26.764,20.951c-0.3,0.941-1.058,1.541-1.691,1.338c-0.633-0.203-0.899-1.131-0.6-2.071
					c0.3-0.941,1.058-1.54,1.69-1.337C26.796,19.083,27.065,20.009,26.764,20.951z"/>
				<path fill="#049CBF" d="M26.764,20.951c-0.3,0.941-1.058,1.541-1.691,1.338c-0.633-0.203-0.899-1.131-0.6-2.071
					c0.3-0.941,1.058-1.54,1.69-1.337C26.796,19.083,27.065,20.009,26.764,20.951z"/>
				<path fill="#053F49" d="M19.989,16.865c0.175,0.972-0.472,1.902-1.445,2.077c-0.973,0.174-1.902-0.473-2.077-1.445
					c-0.174-0.972,0.472-1.902,1.445-2.076C18.884,15.245,19.814,15.892,19.989,16.865L19.989,16.865z"/>
				<path d="M19.805,15.842c0.175,0.972-0.473,1.902-1.445,2.077s-1.902-0.473-2.077-1.445c-0.174-0.972,0.472-1.902,1.445-2.077
					C18.701,14.223,19.63,14.87,19.805,15.842L19.805,15.842z"/>
				<path fill="#049CBF" d="M19.805,15.842c0.175,0.972-0.473,1.902-1.445,2.077s-1.902-0.473-2.077-1.445
					c-0.174-0.972,0.472-1.902,1.445-2.077C18.701,14.223,19.63,14.87,19.805,15.842L19.805,15.842z"/>
				<g transform="translate(8.073 23.541)">
					<path fill="#053F49" d="M18.206,2.141c0.1,0.118-0.018,0.424-0.365,0.856c-0.509,0.594-1.107,1.104-1.774,1.511
						c-0.458,0.289-0.938,0.544-1.435,0.763c-3.896,1.684-8.394,1.16-11.8-1.373C2.399,3.572,1.991,3.213,1.611,2.826
						C1.055,2.277,0.59,1.644,0.231,0.949c-0.239-0.5-0.284-0.826-0.159-0.916c0.273-0.201,1.112,0.594,2.576,1.543
						c0.364,0.238,0.775,0.478,1.217,0.722C4.307,2.54,4.794,2.771,5.318,2.978c2.246,0.934,4.708,1.221,7.108,0.827
						c0.558-0.081,1.08-0.207,1.57-0.329c0.491-0.122,0.941-0.273,1.352-0.423C16.987,2.464,17.985,1.883,18.206,2.141z"/>
				</g>
				<g transform="translate(6.274 19.132)">
					<path fill="#053F49" d="M0.905,0.03c0.594-0.103,1.159,0.295,1.262,0.889C2.27,1.514,1.872,2.078,1.278,2.182
						c-0.572,0.1-1.122-0.267-1.251-0.833C-0.094,0.742,0.299,0.153,0.905,0.03z"/>
				</g>
			</g>
			<g transform="translate(8.755 93.445)">
				<path fill="#5FBFF9" d="M3.369,0L3.369,0c1.86,0,3.369,1.508,3.369,3.368l0,0c0,1.86-1.508,3.368-3.369,3.368l0,0
					C1.508,6.737,0,5.229,0,3.368l0,0C0,1.508,1.508,0,3.369,0z"/>
				<path fill="#5FBFF9" d="M11.536,0L11.536,0c1.86,0,3.369,1.508,3.369,3.368l0,0c0,1.86-1.508,3.368-3.369,3.368l0,0
					c-1.86,0-3.369-1.508-3.369-3.368l0,0C8.168,1.508,9.676,0,11.536,0z"/>
				<path fill="#5FBFF9" d="M19.705,0L19.705,0c1.861,0,3.369,1.508,3.369,3.368l0,0c0,1.86-1.508,3.368-3.369,3.368l0,0
					c-1.86,0-3.369-1.508-3.369-3.368l0,0C16.337,1.508,17.845,0,19.705,0z"/>
				<path fill="#5FBFF9" d="M27.873,0L27.873,0c1.861,0,3.369,1.508,3.369,3.368l0,0c0,1.86-1.508,3.368-3.369,3.368l0,0
					c-1.859,0-3.368-1.508-3.368-3.368l0,0C24.505,1.508,26.014,0,27.873,0z"/>
				<path fill="#5FBFF9" d="M36.041,0L36.041,0c1.861,0,3.369,1.508,3.369,3.368l0,0c0,1.86-1.508,3.368-3.369,3.368l0,0
					c-1.859,0-3.368-1.508-3.368-3.368l0,0C32.673,1.508,34.182,0,36.041,0z"/>
			</g>
			<path fill="#5FBFF9" d="M14.956,11.193h27.471c3.469,0,6.281,2.812,6.281,6.281l0,0c0,3.469-2.812,6.28-6.281,6.28H14.956
				c-3.469,0-6.281-2.812-6.281-6.28l0,0C8.675,14.005,11.487,11.193,14.956,11.193z"/>
			<path opacity="0.5" fill="#FFFFFF" d="M48.974,2.677L8.9,104.602H8.4c-3.077-0.021-5.559-2.523-5.554-5.601V8.269
				c-0.005-3.077,2.477-5.58,5.554-5.6L48.974,2.677z"/>
			<path fill="#002832" d="M20.405,0.633h16.564c1.497,0,2.709,1.213,2.709,2.709l0,0c0,1.496-1.212,2.709-2.709,2.709H20.405
				c-1.496,0-2.709-1.213-2.709-2.709l0,0C17.696,1.846,18.909,0.633,20.405,0.633z"/>
		</g>
		<g transform="translate(34.484 95.058)">
			<path fill="#5FBFF9" stroke="#035E7B" stroke-width="0.5" stroke-miterlimit="10" d="M4.29,3.12C4.29,3.336,4.116,3.51,3.9,3.51
				l0,0H0.391c-0.216,0-0.39-0.175-0.39-0.391l0,0V0.976c0-0.216,0.174-0.39,0.39-0.39l0,0h0.78l0.39-0.586h1.17l0.39,0.586h0.78
				c0.216,0,0.39,0.174,0.39,0.39l0,0V3.12z"/>
			<circle fill="#5FBFF9" stroke="#035E7B" stroke-width="0.5" stroke-miterlimit="10" cx="2.145" cy="1.95" r="0.78"/>
		</g>
	</g>
	<g transform="translate(291.033 501.852)">
		<path fill="none" stroke="#035E7B" stroke-miterlimit="10" d="M0,4.232l2.668,2.7l2.67-2.7"/>
		<line fill="#5FBFF9" stroke="#035E7B" stroke-miterlimit="10" x1="2.668" y1="0" x2="2.668" y2="6.445"/>
	</g>
</g>
</svg>
