<?xml version="1.0" encoding="utf-8"?>
<!-- Generator: Adobe Illustrator 16.0.4, SVG Export Plug-In . SVG Version: 6.00 Build 0)  -->
<!DOCTYPE svg PUBLIC "-//W3C//DTD SVG 1.1//EN" "http://www.w3.org/Graphics/SVG/1.1/DTD/svg11.dtd">
<svg version="1.1" id="Layer_1" xmlns="http://www.w3.org/2000/svg" xmlns:xlink="http://www.w3.org/1999/xlink" x="0px" y="0px"
	 width="139.852px" height="110.688px" viewBox="0 0 139.852 110.688" enable-background="new 0 0 139.852 110.688"
	 xml:space="preserve">
<g transform="translate(66.104 9.673)">
	<path fill="#FFFFFF" d="M63.988,65.474H14.77l9.759-49.218h49.219L63.988,65.474z"/>
	<g transform="translate(18.634 19.822)">
		<path fill="#002832" d="M8.5,0L0,42.85c2.399,0,42.448,0,42.641,0l8.5-42.854L8.5,0z M36.376,34.966H9.435l5.368-27.078h26.944
			L36.376,34.966z"/>
		<line fill="none" x1="51.25" y1="0" x2="51.137" y2="0"/>
		<line fill="none" x1="41.818" y1="7.888" x2="41.746" y2="7.888"/>
		<path fill="#002832" d="M20.016,25.174c0.014-0.191,0.023-0.365,0.035-0.54c0.064-0.984,0.314-1.948,0.737-2.84
			c0.316-0.684,0.782-1.288,1.364-1.768c0.612-0.495,1.331-0.841,2.1-1.013c0.742-0.162,1.504-0.226,2.263-0.188
			c0.625,0.021,1.249,0.075,1.873,0.112c0.25,0.015,0.5,0.022,0.75,0.03c0.062-0.002,0.124-0.009,0.186-0.02
			c-0.014-0.074-0.021-0.139-0.037-0.2c-0.111-0.462-0.232-0.921-0.335-1.385c-0.172-0.81-0.218-1.641-0.134-2.463
			c0.099-0.946,0.319-1.876,0.653-2.767c0.101-0.29,0.219-0.576,0.33-0.863c0.019-0.046,0.04-0.093,0.062-0.138
			c0.158-0.291,0.522-0.398,0.813-0.24c0.238,0.129,0.359,0.402,0.297,0.666c-0.026,0.1-0.071,0.186-0.106,0.279
			c-0.101,0.257-0.2,0.515-0.293,0.771c-0.015,0.045-0.026,0.091-0.036,0.138c0.154,0.131,2.828,1.706,3.1,1.831
			c0.063-0.025,0.044-0.083,0.046-0.128c0.013-0.492-0.011-0.984-0.071-1.473c-0.007-0.051-0.017-0.101-0.018-0.149
			c-0.011-0.314,0.221-0.584,0.532-0.623c0.321-0.04,0.615,0.186,0.659,0.506c0.088,0.663,0.114,1.333,0.078,2
			c-0.02,0.366-0.062,0.731-0.126,1.092c-0.132,0.733-0.409,1.432-0.815,2.056c-0.316,0.451-0.705,0.849-1.15,1.174
			c-0.522,0.403-1.118,0.703-1.754,0.883c-0.047,0.013-0.091,0.034-0.146,0.055c0.003,0.061,0.011,0.121,0.021,0.181
			c0.062,0.269,0.087,0.544,0.076,0.819c-0.009,0.594-0.116,1.181-0.316,1.738c-0.326,0.875-0.931,1.62-1.72,2.119
			c-0.691,0.438-1.453,0.754-2.253,0.933c-0.405,0.1-0.821,0.147-1.239,0.146c-0.566,0-1.134-0.028-1.699-0.037
			c-0.459-0.007-0.918-0.016-1.376,0c-0.283,0.008-0.564,0.056-0.846,0.09c-0.055,0.011-0.107,0.026-0.159,0.046
			c-0.044,0.086,0,0.157,0.017,0.226c0.093,0.329,0.21,0.65,0.35,0.963c0.177,0.399,0.359,0.789,0.533,1.186
			c0.277,0.626,0.474,1.285,0.584,1.96c0.011,0.066,0.017,0.132,0.022,0.2c0.014,0.313-0.217,0.586-0.528,0.623
			c-0.323,0.037-0.618-0.19-0.663-0.513c-0.017-0.101-0.028-0.2-0.049-0.3c-0.035-0.172-0.075-0.342-0.115-0.521
			c-0.058-0.012-0.117-0.021-0.176-0.025c-1.01,0-2.02,0-3.029,0c-0.057,0.003-0.114,0.009-0.171,0.019
			c-0.08,0.213-0.137,0.434-0.171,0.659c-0.122,0.614-0.17,1.241-0.143,1.867c0.002,0.05,0.002,0.1,0,0.149
			c-0.012,0.269-0.206,0.493-0.47,0.543c-0.262,0.057-0.529-0.071-0.649-0.311c-0.05-0.097-0.076-0.204-0.078-0.312
			c-0.017-0.476,0-0.951,0.05-1.425c0.094-0.821,0.296-1.626,0.6-2.394c0.356-0.938,0.885-1.802,1.56-2.546
			c0.309-0.341,0.678-0.623,1.089-0.829C19.943,25.212,19.972,25.197,20.016,25.174z M23.874,20.395
			c0.065,0.056,0.1,0.089,0.141,0.117c0.4,0.3,0.8,0.6,1.2,0.9c1.01,0.751,2.019,1.502,3.029,2.253
			c0.045,0.033,0.1,0.06,0.138,0.085c0.277-0.167,0.51-0.398,0.678-0.675c-0.063-0.049-0.128-0.1-0.194-0.15l-2.561-1.877
			c-0.39-0.285-0.782-0.567-1.168-0.857c-0.075-0.066-0.177-0.095-0.275-0.076c-0.091,0.018-0.183,0.027-0.271,0.05
			C24.344,20.214,24.104,20.29,23.874,20.395L23.874,20.395z M22.74,21.095c-0.101,0.11-0.2,0.21-0.294,0.317
			c-0.108,0.106-0.193,0.233-0.25,0.374c0.092,0.069,0.178,0.134,0.265,0.2l1.973,1.452c0.5,0.364,1,0.727,1.487,1.1
			c0.106,0.096,0.255,0.129,0.392,0.086c0.256-0.076,0.513-0.146,0.768-0.224c0.018-0.005,0.027-0.035,0.042-0.054
			C26.919,24.157,22.94,21.199,22.74,21.095L22.74,21.095z M33.468,15.904c-0.048-0.034-0.1-0.076-0.155-0.108
			c-1.033-0.6-2.062-1.215-3.111-1.819c-0.026,0.048-0.047,0.099-0.063,0.15c-0.08,0.361-0.127,0.729-0.14,1.101l0.744,0.459
			l0.746,0.455c0.256,0.155,0.51,0.314,0.768,0.468c0.258,0.152,0.485,0.315,0.745,0.441C33.235,16.705,33.395,16.314,33.468,15.904
			L33.468,15.904z M20.176,26.481c-0.023,0.006-0.047,0.016-0.068,0.027c-0.071,0.058-0.144,0.113-0.211,0.176
			c-0.531,0.518-0.963,1.131-1.271,1.807c-0.012,0.041-0.019,0.083-0.021,0.126h2.165c0.067,0,0.134,0,0.2-0.007
			c0.009,0,0.018-0.002,0.024-0.007c0.006,0,0.008-0.014,0.025-0.049c-0.129-0.327-0.308-0.655-0.443-1
			C20.441,27.211,20.31,26.841,20.176,26.481L20.176,26.481z M24.009,24.661C24,24.635,24,24.616,23.99,24.608
			c-0.757-0.561-1.513-1.121-2.271-1.68c-0.021-0.011-0.044-0.02-0.067-0.024c-0.192,0.425-0.312,0.878-0.357,1.342
			c-0.037,0.173-0.049,0.35-0.034,0.525c0.07,0,0.142-0.005,0.211-0.014c0.336-0.062,0.678-0.091,1.02-0.09c0.417,0,0.834,0,1.25,0
			c0.089,0.013,0.18,0.01,0.268-0.009V24.661z M29.647,20.161h-0.328c-0.375,0.008-0.749-0.005-1.122-0.037
			c-0.34-0.036-0.681-0.049-1.021-0.07c-0.038,0-0.084-0.017-0.117,0.046c0.04,0.033,0.08,0.071,0.124,0.1
			c1.19,0.9,2.232,1.647,2.425,1.747C29.802,21.369,29.815,20.746,29.647,20.161L29.647,20.161z M30.556,18.803
			c0.589-0.146,1.136-0.424,1.601-0.813c-0.021-0.029-0.031-0.055-0.051-0.066c-0.652-0.399-1.306-0.8-1.959-1.2
			c-0.022-0.008-0.046-0.013-0.069-0.015C30.169,17.42,30.33,18.121,30.556,18.803L30.556,18.803z"/>
	</g>
	<path opacity="0.4" fill="#5FBFF9" d="M1.871,0l69.399,39.838H17.578L0,9.432L1.871,0z"/>
</g>
<path fill="#002832" d="M49.684,110.685H6.376c-3.422,0.124-6.296-2.55-6.42-5.972c-0.022-0.598,0.043-1.194,0.192-1.773l18.65-95.2
	c0.979-4.381,4.778-7.558,9.264-7.745h43.309c3.422-0.124,6.297,2.55,6.421,5.972c0.021,0.598-0.044,1.194-0.192,1.773l-18.651,95.2
	C57.969,107.321,54.169,110.498,49.684,110.685z"/>
<path fill="#EBE2E2" d="M74.54,8.478l-18.218,92.988c-0.713,3.234-3.509,5.587-6.817,5.735H7.919
	c-2.526,0.078-4.638-1.906-4.716-4.434c-0.014-0.438,0.036-0.877,0.147-1.302L21.569,8.478c0.712-3.234,3.508-5.587,6.815-5.735
	h41.587c2.526-0.077,4.638,1.908,4.716,4.436C74.7,7.617,74.651,8.054,74.54,8.478z"/>
<g transform="translate(9.458 95.769)">
	<path fill="#5FBFF9" d="M5.005,6.905H1.33C0.618,6.933,0.017,6.378-0.011,5.665C-0.016,5.539-0.002,5.412,0.03,5.29l0.72-3.676
		C0.952,0.701,1.745,0.037,2.681,0h3.675c0.712-0.029,1.312,0.524,1.341,1.236c0.005,0.128-0.009,0.255-0.041,0.378L6.936,5.29
		C6.734,6.204,5.941,6.867,5.005,6.905z"/>
	<path fill="#5FBFF9" d="M13.377,6.905H9.702C8.99,6.934,8.389,6.38,8.361,5.668C8.356,5.54,8.37,5.413,8.402,5.29l0.72-3.676
		C9.324,0.701,10.117,0.036,11.052,0h3.676c0.712-0.029,1.312,0.524,1.341,1.236c0.005,0.128-0.009,0.255-0.041,0.378l-0.72,3.676
		C15.105,6.204,14.312,6.867,13.377,6.905z"/>
	<path fill="#5FBFF9" d="M21.748,6.905h-3.671c-0.713,0.028-1.312-0.526-1.341-1.239c-0.005-0.126,0.009-0.253,0.041-0.375
		l0.72-3.676C17.699,0.701,18.492,0.036,19.427,0h3.676c0.712-0.029,1.312,0.524,1.341,1.236c0.005,0.128-0.009,0.255-0.041,0.378
		l-0.72,3.676C23.48,6.205,22.685,6.869,21.748,6.905z"/>
	<path fill="#5FBFF9" d="M30.119,6.905h-3.675c-0.713,0.028-1.312-0.526-1.341-1.239c-0.005-0.126,0.009-0.253,0.041-0.375
		l0.72-3.676C26.066,0.701,26.859,0.037,27.795,0h3.676c0.711-0.029,1.312,0.524,1.341,1.236c0.005,0.128-0.009,0.255-0.041,0.378
		L32.05,5.29C31.848,6.204,31.054,6.867,30.119,6.905z"/>
	<path fill="#5FBFF9" d="M38.491,6.905h-3.675c-0.713,0.028-1.312-0.526-1.341-1.239c-0.005-0.126,0.009-0.253,0.041-0.375
		l0.72-3.676C34.438,0.701,35.231,0.037,36.167,0h3.675c0.712-0.029,1.312,0.524,1.341,1.236c0.006,0.128-0.008,0.255-0.04,0.378
		L40.422,5.29C40.22,6.204,39.427,6.867,38.491,6.905z"/>
</g>
<path fill="#5FBFF9" d="M62.13,24.346H27.772c-1.471,0.057-2.71-1.089-2.767-2.56c-0.01-0.262,0.019-0.523,0.084-0.777l1.216-6.199
	c0.417-1.89,2.056-3.26,3.988-3.336H64.65c1.471-0.058,2.709,1.089,2.767,2.56c0.01,0.261-0.019,0.522-0.085,0.776l-1.215,6.199
	C65.7,22.898,64.062,24.269,62.13,24.346z"/>
<path fill="#5FBFF9" d="M38.032,38.641c0,0-1.54,5.535,2.543,9.274c3.027,2.771,8.07,6.525,5.849,16.053c0,0,1.19-3.529-2.767-7.355
	S34.368,45.701,38.032,38.641z"/>
<path fill="#035E7B" d="M37.645,60.969l5.391,4.984c0,0,0.222,0.046,0.707-1.016l-5.167-4.361L37.645,60.969z"/>
<path fill="#035E7B" d="M34.821,31.747c0,0,12.448,6.463,14.417,12.724c1.183,3.763-0.516,8.5-0.516,8.5
	c8.919-12.27-6.841-22.755-6.841-22.755L34.821,31.747z"/>
<path fill="#035E7B" d="M44.516,81.362c-7.244-0.854-12.347-5.256-12.921-11.192c-0.174-2.988,0.513-5.964,1.979-8.574
	c-11.163,11.42,1.489,22.679,1.489,22.679L44.516,81.362z"/>
<path fill="#035E7B" d="M51.347,46.849c0,0-0.464,3.557-6.421,6.404C40.44,55.4,33.445,57.808,29.46,68.121
	c0,0,1.069-3.594,7.057-6.562C42.503,58.589,49.87,55.802,51.347,46.849z"/>
<path fill="#034251" d="M30.342,69.429l1.4,1.784L31.6,70.169l-0.973-0.924L30.342,69.429z"/>
<path fill="#035E7B" d="M32.324,64.339l7.552,5.261c0,0,0.17-0.047,0.934-0.877l-7.869-4.938L32.324,64.339z"/>
<path fill="#035E7B" d="M30.697,68.86l7.172,2.492l-1.123,0.783l-6.282-2.649C30.464,69.486,30.075,69.46,30.697,68.86z"/>
<path fill="#5FBFF9" d="M40.217,39.991l7.601-1.092c0.124-0.1,0.144-0.28,0.045-0.403c-0.044-0.056-0.106-0.092-0.176-0.104
	c-1.488,0.106-6.56,0.461-6.56,0.461L40.217,39.991z"/>
<path fill="#5FBFF9" d="M44.337,36.076l2.51,0.069c0,0,0.515-0.431-0.133-0.584c-0.329-0.046-1.213-0.246-1.213-0.246L44.337,36.076
	z"/>
<path fill="#034251" d="M46.846,36.144l-2.9,1.657l-0.432-0.355l2.645-1.3"/>
<path fill="#034251" d="M47.799,38.898l-1.312,1.292l-0.461-0.481l1.104-0.713"/>
<path fill="#034251" d="M49.281,41.595l-0.627,1.515l-0.3-0.512l0.315-0.671"/>
<path fill="#034251" d="M49.976,45.285l-0.325,1.837l-0.083-1.1l-0.045-0.316"/>
<path fill="#2B96CC" d="M41.795,50.542h1.569l0.519,0.646l-1.39,0.03L41.795,50.542z"/>
<path fill="#5FBFF9" d="M41.767,50.511l7.71-5.753c0,0,0.467-0.185,0.615,0.154c0,0,0.101,0.166-0.242,0.512
	c-0.344,0.347-2.101,1.55-7.36,5.795C41.428,51.464,41.767,50.511,41.767,50.511z"/>
<path fill="#2B96CC" d="M39.147,46.942l1.042,0.646l-0.606-0.831l-0.809-0.737"/>
<path fill="#5FBFF9" d="M38.774,46.02c1.764-0.875,10.305-5.022,10.305-5.022s0.585,0,0.294,0.538
	c-1,0.692-10.226,5.406-10.226,5.406S38.044,46.943,38.774,46.02z"/>
<path fill="#2B96CC" d="M46.564,56.23c-0.174,0.896-0.552,1.739-1.106,2.464l0.44,0.892L46.564,56.23z"/>
<path fill="#034251" d="M30.67,73.96l2.593,1.131l-0.446-1.015l-2.073-0.369L30.67,73.96z"/>
<path fill="#035E7B" d="M30.699,73.106l4.026,0.415l-1.369,0.765l-2.613-0.323C30.743,73.963,30.073,73.706,30.699,73.106z"/>
<path fill="#5FBFF9" d="M21.165,78.244c10.422-3.629,16.749-5.831,20.974-11.011c2.515-3.158,4.053-6.98,4.426-11
	C51.219,72.868,22.54,84.395,22.54,84.395l-7.834-4.101C16.256,79.852,18.492,79.175,21.165,78.244z"/>
<path fill="#034251" d="M34.913,77.582l0.08,0.138c-0.765,1.196-1.707,2.271-2.793,3.185l-0.743-1.076L34.913,77.582z"/>
<path fill="#2B96CC" d="M37.433,47.1c0.14-0.825,0.487-1.601,1.01-2.254l-0.349-0.969C37.702,44.909,37.478,45.997,37.433,47.1z"/>
<path fill="#5FBFF9" d="M54.131,32.706c-6.513,1.061-11.199,4.252-12.711,5.892c-1.284,1.445-2.347,3.075-3.152,4.834l0,0
	c-0.495,1.274-0.776,2.622-0.834,3.988c-0.95-2.056-1.096-4.393-0.407-6.551c0.53-1.63,1.396-3.132,2.54-4.408
	c2.493-2.811,5.815-4.757,9.486-5.556L54.131,32.706z"/>
<path d="M46.519,40.056"/>
<path opacity="0.5" fill="#FFFFFF" d="M69.854,2.978L8.317,107.438H7.802c-2.526,0.077-4.638-1.908-4.715-4.435
	c-0.014-0.438,0.036-0.877,0.147-1.302L21.453,8.713c0.712-3.233,3.508-5.586,6.816-5.734H69.854z"/>
<path fill="#002832" d="M57.191,6.202h-17.38c-1.139,0.04-2.094-0.85-2.134-1.987c-0.007-0.198,0.015-0.396,0.063-0.587l0.079-0.399
	c0.326-1.455,1.588-2.511,3.078-2.574h17.38c1.138-0.041,2.093,0.848,2.134,1.985c0.007,0.198-0.015,0.396-0.063,0.589l-0.079,0.399
	C59.942,5.083,58.68,6.137,57.191,6.202z"/>
</svg>
