<svg xmlns="http://www.w3.org/2000/svg" xmlns:xlink="http://www.w3.org/1999/xlink" width="53.314" height="57.212" viewBox="0 0 53.314 57.212"><defs><style>.a{fill:none;}.b,.f{fill:#fff;}.c{fill:#ef9f8d;}.d{fill:#B3E0F5;}.e{clip-path:url(#a);}.f{opacity:0.5;}.g{clip-path:url(#b);}</style><clipPath id="a"><path class="a" d="M462.267,309.368c3.892,10.5,9.908,17.953,13.437,16.645s3.236-10.881-.656-21.382-9.907-17.953-13.436-16.645S458.376,298.867,462.267,309.368Z" transform="translate(-459.146 -287.838)"/></clipPath><clipPath id="b"><path class="a" d="M396.967,482.447a1.673,1.673,0,0,1-.761,2.795l-3.927,1.455a3.733,3.733,0,0,1-3.908-1.064L376.4,470.961a1.673,1.673,0,0,1,.761-2.795l3.926-1.455A3.733,3.733,0,0,1,385,467.776Z" transform="translate(-375.924 -466.527)"/></clipPath></defs><path class="b" d="M293.163,415.015c.209-3.067,7.4-6.056,7.4-6.056l2.517,6.793.094.254,2.517,6.793s-7.4,2.42-9.561.229A12.883,12.883,0,0,1,293.163,415.015Z" transform="translate(-293.151 -383.729)"/><path class="c" d="M320.885,468.272l-.863-2.328c-2.424.93-5.369,2.11-7.834,3.11C314.989,470.2,320.885,468.272,320.885,468.272Z" transform="translate(-308.342 -429.203)"/><path class="d" d="M356.278,299.315c-.19,8.78,3.572,18.93,3.572,18.93s3.762,10.15,9.627,16.686c0,0-10.733-6.554-34.479.422l-2.574-6.945-2.574-6.945C352.408,311.281,356.278,299.315,356.278,299.315Z" transform="translate(-322.437 -296.234)"/><path class="c" d="M462.267,309.368c3.892,10.5,9.908,17.953,13.437,16.645s3.236-10.881-.656-21.382-9.907-17.953-13.436-16.645S458.376,298.867,462.267,309.368Z" transform="translate(-425.614 -287.075)"/><g transform="translate(33.532 0.762)"><g class="e" transform="translate(0 0)"><g transform="translate(-4.904 14.596)"><path class="b" d="M438.11,372.8a1.16,1.16,0,0,0,1.665.646l9.665-5.051a1.585,1.585,0,0,0,.728-1.9l-1.992-5.4a1.57,1.57,0,0,0-1.781-.962l-10.6,2.5a1.17,1.17,0,0,0-.844,1.581Z" transform="translate(-434.867 -360.091)"/><path class="b" d="M483.424,360.858a1.791,1.791,0,0,0-.5-.721,1.357,1.357,0,0,0-.172.028l-2.325.549,3.25,8.821,2.12-1.108c.038-.02.075-.042.111-.065a1.817,1.817,0,0,0-.072-.965Z" transform="translate(-471.221 -360.128)"/></g></g></g><g transform="translate(9.285 11)"><path class="f" d="M339.113,353.766a42.7,42.7,0,0,0,21.917-15.251,35.9,35.9,0,0,0,1.572,7.626A69.2,69.2,0,0,1,340.224,357Z" transform="translate(-339.113 -338.515)"/></g><path class="c" d="M352.078,451.71c23.745-6.976,34.479-.422,34.479-.422a36.732,36.732,0,0,1-2.915-3.745,41.064,41.064,0,0,0-32.388,1.944Z" transform="translate(-339.517 -412.591)"/><path class="d" d="M396.967,482.447a1.673,1.673,0,0,1-.761,2.795l-3.927,1.455a3.733,3.733,0,0,1-3.908-1.064L376.4,470.961a1.673,1.673,0,0,1,.761-2.795l3.926-1.455A3.733,3.733,0,0,1,385,467.776Z" transform="translate(-359.204 -429.669)"/><path class="a" d="M396.967,482.447a1.673,1.673,0,0,1-.761,2.795l-3.927,1.455a3.733,3.733,0,0,1-3.908-1.064L376.4,470.961a1.673,1.673,0,0,1,.761-2.795l3.926-1.455A3.733,3.733,0,0,1,385,467.776Z" transform="translate(-359.204 -429.669)"/><path class="c" d="M423.3,482.546l-11.968-14.671a3.68,3.68,0,0,0-2.409-1.224c.061.062.119.126.173.193l11.968,14.671a1.673,1.673,0,0,1-.761,2.795l-3.927,1.455a3.3,3.3,0,0,1-1.5.159,3.763,3.763,0,0,0,3.736.872l3.927-1.455A1.673,1.673,0,0,0,423.3,482.546Z" transform="translate(-385.533 -429.768)"/><path class="d" d="M361.062,453.683a.87.87,0,0,0-.422,1.545l2.208,2.387a2.456,2.456,0,0,0,2.449.585l8.994-3.333a1.773,1.773,0,0,0,1.079-2l-.432-1.87a1.407,1.407,0,0,0-1.792-1.042Z" transform="translate(-346.747 -416.393)"/><g transform="translate(17.111 33.498)"><path class="c" d="M389.37,452.865l-.432-1.87a1.407,1.407,0,0,0-1.792-1.042l-.335.1a1.414,1.414,0,0,1,.714.939l.432,1.87a1.773,1.773,0,0,1-1.079,2l-8.994,3.333-.027.008a2.343,2.343,0,0,0,1.439-.008l8.994-3.333A1.773,1.773,0,0,0,389.37,452.865Z" transform="translate(-377.858 -449.891)"/></g><g transform="translate(16.721 36.858)"><g class="g" transform="translate(0 0)"><g transform="translate(8.615 3.173)"><path class="b" d="M427.434,483.308a1.641,1.641,0,0,1-.969,2.109l-5.682,2.105a1.641,1.641,0,0,1-2.109-.968h0a1.641,1.641,0,0,1,.968-2.109l5.682-2.105a1.641,1.641,0,0,1,2.109.969Z" transform="translate(-418.573 -482.236)"/><path class="b" d="M452.658,512.2a1.641,1.641,0,0,1-.968,2.109l-5.682,2.106a1.641,1.641,0,0,1-2.109-.969h0a1.641,1.641,0,0,1,.969-2.109l5.681-2.106a1.641,1.641,0,0,1,2.109.969Z" transform="translate(-438.701 -505.291)"/></g></g></g><g transform="translate(32.774)"><path class="b" d="M465.54,319.583a53.231,53.231,0,0,1-10.132-27.341c-.136-4.453.883-7.211,2.949-7.977s4.637.662,7.435,4.129a53.224,53.224,0,0,1,10.132,27.341c.137,4.453-.883,7.211-2.949,7.976S468.338,323.05,465.54,319.583Zm-5.555-13.49c4,10.786,9.777,17.194,12.463,16.2s2.895-9.622-1.1-20.408-9.776-17.194-12.463-16.2S455.988,295.307,459.985,306.093Z" transform="translate(-455.395 -284.064)"/></g></svg>