<?xml version="1.0" encoding="utf-8"?>
<!-- Generator: Adobe Illustrator 16.0.4, SVG Export Plug-In . SVG Version: 6.00 Build 0)  -->
<!DOCTYPE svg PUBLIC "-//W3C//DTD SVG 1.1//EN" "http://www.w3.org/Graphics/SVG/1.1/DTD/svg11.dtd">
<svg version="1.1" id="Layer_1" xmlns="http://www.w3.org/2000/svg" xmlns:xlink="http://www.w3.org/1999/xlink" x="0px" y="0px"
	 width="141.73px" height="100.5px" viewBox="0 0 141.73 100.5" enable-background="new 0 0 141.73 100.5" xml:space="preserve">
<path fill="#FFFFFF" d="M78.09,43.817c0,0-0.089-2.65-0.256-5.65s0-7.75-3.334-11.25s-2.229-2.521-4.062-6.188
	c-1.833-3.667-3.188-4.875-5.375-6.562c-2.45-1.89-3.375-3.125-3.125-7.188c0.231-3.753,0.667-3.521,2-3.188
	s3.792,1.792,5.625,2.125s2.833-0.208,5,0.125s1.479,1.479,3.812,0.312s4.75-2.75,5.062-2.125c1.212,2.423,0.875,1.625,0.438,3.625
	c-0.478,2.185-1.932,3.083-0.312,3.188c4.875,0.312,5.125,1.521,5.625,2.188s8.188,3.062,8.25,4.375
	c0.099,2.061,1.167,1.354,3,3.188s2.586,1.925,5.396,3.375c2.666,1.375,4.062,1.875,5.729,2.875s3.062,2.25,4.375,4
	c1.442,1.923,5.995,3.152,7.75,5.188c1.562,1.812,2.625,2.5,3.625,6.062c0.963,3.43,0.94,4.224,2.125,6
	c1.125,1.688,0.812,2.167,3.312,2.5s4.5-0.938,4.5,1.062s-0.209,4.021-1.875,5.688s-2.812,2.062-3.125,2.188
	c-1.709,0.684-3.688,0.688-6.562-1.312c-3.488-2.427-2.693-3.523-4.625-5.188c-2.25-1.938-2.205-9.143-3.188-9.812
	s0.803,4.733,0.375,6.688c-0.438,2,1.917,3.562,1.75,5.562s0,4.25,0,4.25s-6.062,0.771-6.062-0.062s0.021-0.979,0.188-2.312
	s-0.537-2.096-0.812-2.75c-0.275-0.653-1.316-1.831-1.812-2.438c-0.562-0.688-2.187-2.43-0.75-0.312
	c1.437,2.117,1.916,1.625,1.75,3.792s0.057,3.364-0.062,3.958c-0.125,0.625-4.604,0.209-4.604,0.209s-0.043-1-0.209-3.334
	c-0.096-1.338-2.062-4-4.438-6.188c-1.585-1.459-1.312-2.75-2.25-4.188c-1.979-3.036-1.188-6.125-3.125-6.688
	c-3.224-0.936-7.062-1.375-7.125,0.438c-0.071,2.061-0.76,4.093-0.76,4.093L78.09,43.817z"/>
<path fill="#87C699" d="M11.711,52.162c0-0.303-0.242-0.547-0.542-0.555v-0.002l-1.026,0c-0.023-0.182-0.059-0.36-0.112-0.532
	l0.932-0.584l-0.001-0.001c0.25-0.167,0.324-0.503,0.163-0.76c-0.161-0.256-0.495-0.335-0.754-0.183l0-0.001l-0.851,0.535
	c-0.14-0.184-0.297-0.353-0.472-0.502l0.564-0.841l-0.001,0c0.161-0.254,0.091-0.591-0.16-0.76c-0.251-0.168-0.59-0.104-0.763,0.141
	l-0.001-0.001l-0.601,0.896c-0.185-0.069-0.378-0.121-0.578-0.155v-1.037H7.504c-0.008-0.3-0.253-0.542-0.556-0.542
	c-0.302,0-0.547,0.242-0.555,0.542H6.392v1.044C6.216,48.895,6.047,48.941,5.883,49l-0.471-0.891l-0.002,0
	c-0.147-0.262-0.476-0.361-0.743-0.22c-0.269,0.142-0.372,0.469-0.239,0.738l-0.001,0l0.489,0.926
	c-0.148,0.125-0.286,0.262-0.41,0.411l-0.852-0.544l-0.001,0.001c-0.257-0.155-0.593-0.079-0.756,0.176
	c-0.163,0.255-0.092,0.592,0.157,0.76L3.052,50.36l0.904,0.578c-0.059,0.165-0.104,0.333-0.135,0.508l-1.039,0.001v0.001
	c-0.3,0.008-0.542,0.253-0.542,0.556c0,0.303,0.242,0.547,0.542,0.556v0.001l1.036-0.001c0.021,0.118,0.046,0.233,0.079,0.346
	L2.97,53.489l0,0.001c-0.25,0.167-0.324,0.503-0.163,0.759c0.161,0.257,0.496,0.336,0.755,0.183l0,0.001l0.834-0.523
	c0.136,0.185,0.292,0.354,0.463,0.504l-0.568,0.85l0.001,0.001c-0.161,0.253-0.091,0.591,0.16,0.759
	c0.251,0.169,0.59,0.104,0.764-0.142l0.001,0.001l0.596-0.889c0.133,0.052,0.27,0.094,0.411,0.128l-0.001,1.097h0.001
	c0.008,0.301,0.252,0.543,0.555,0.543c0.303,0.001,0.549-0.241,0.557-0.542h0.002l0.001-1.03c0.182-0.021,0.359-0.058,0.531-0.107
	l0.585,0.934h0.001c0.167,0.25,0.502,0.325,0.759,0.164c0.256-0.16,0.336-0.496,0.184-0.754H9.4L8.872,54.58
	c0.187-0.139,0.357-0.296,0.51-0.471l0.829,0.557l0-0.001c0.254,0.161,0.591,0.092,0.76-0.159s0.105-0.589-0.139-0.764l0.001-0.001
	l-0.876-0.589c0.054-0.139,0.098-0.283,0.132-0.432l1.082-0.001l-0.001-0.001C11.47,52.709,11.711,52.464,11.711,52.162z
	 M6.97,54.046c-1.126,0-2.038-0.912-2.038-2.037s0.912-2.038,2.038-2.038c1.125,0,2.037,0.913,2.037,2.038S8.095,54.046,6.97,54.046
	z"/>
<path fill="#87C699" d="M32.081,44.806c0.09-0.304-0.08-0.622-0.378-0.72l0-0.001l-1.031-0.306c0.031-0.19,0.047-0.38,0.046-0.568
	l1.11-0.31l0-0.001c0.301-0.093,0.476-0.408,0.39-0.714c-0.085-0.305-0.398-0.484-0.704-0.407l0-0.002L30.5,42.06
	c-0.085-0.226-0.193-0.443-0.324-0.646l0.817-0.677l-0.001-0.001c0.237-0.208,0.269-0.567,0.066-0.811s-0.561-0.28-0.809-0.086
	l-0.001-0.001l-0.871,0.722c-0.166-0.125-0.343-0.235-0.535-0.328l0.31-1.042l-0.001,0c0.081-0.304-0.093-0.62-0.397-0.709
	c-0.304-0.09-0.623,0.08-0.72,0.378l-0.001,0l-0.311,1.048c-0.186-0.021-0.37-0.023-0.552-0.013l-0.208-1.037l-0.002,0
	c-0.07-0.307-0.371-0.505-0.682-0.443c-0.312,0.062-0.514,0.361-0.46,0.671l-0.001,0l0.215,1.075
	c-0.187,0.082-0.366,0.178-0.535,0.292l-0.693-0.801l-0.002,0c-0.212-0.232-0.572-0.256-0.812-0.048
	c-0.239,0.208-0.269,0.567-0.069,0.811l-0.001,0.001l0.735,0.85c-0.107,0.147-0.204,0.303-0.287,0.47l-1.044-0.308l0,0.001
	c-0.304-0.081-0.62,0.094-0.709,0.397c-0.09,0.304,0.08,0.622,0.379,0.72v0.001l1.041,0.308c-0.015,0.124-0.023,0.247-0.024,0.37
	l-1.106,0.309l0,0.002c-0.301,0.092-0.475,0.408-0.389,0.714c0.085,0.305,0.398,0.484,0.703,0.408v0.002l0.995-0.278
	c0.083,0.226,0.188,0.442,0.315,0.645l-0.823,0.684l0.001,0.001c-0.237,0.208-0.268,0.566-0.065,0.811
	c0.203,0.245,0.561,0.28,0.809,0.086l0.001,0.001l0.863-0.716c0.118,0.091,0.243,0.175,0.375,0.251l-0.327,1.103l0.001,0
	c-0.082,0.304,0.092,0.62,0.396,0.71c0.304,0.09,0.622-0.079,0.721-0.379l0.001,0l0.309-1.036c0.189,0.034,0.378,0.05,0.565,0.05
	l0.31,1.113l0.001,0c0.093,0.301,0.407,0.476,0.713,0.392c0.305-0.085,0.485-0.398,0.41-0.703h0.001l-0.279-1.005
	c0.229-0.084,0.448-0.191,0.653-0.321l0.666,0.806l0.001,0c0.207,0.237,0.566,0.269,0.811,0.066
	c0.245-0.202,0.281-0.561,0.087-0.809l0.001-0.001l-0.704-0.853c0.096-0.125,0.183-0.255,0.261-0.395l1.086,0.322v-0.001
	C31.676,45.285,31.992,45.11,32.081,44.806z M26.756,45.287c-1.13-0.335-1.775-1.523-1.44-2.654s1.524-1.775,2.654-1.44
	c1.13,0.335,1.775,1.523,1.439,2.654C29.075,44.977,27.886,45.623,26.756,45.287z"/>
<path fill="#87C699" d="M46.823,39.006c0.202-0.514-0.043-1.09-0.547-1.305l0.002-0.002l-1.74-0.686
	c0.083-0.324,0.141-0.651,0.167-0.977l1.969-0.368l0-0.002c0.536-0.115,0.886-0.635,0.785-1.177c-0.102-0.542-0.616-0.9-1.156-0.813
	v-0.003l-1.8,0.336c-0.113-0.405-0.267-0.796-0.463-1.167l1.518-1.048l-0.002-0.002c0.442-0.323,0.55-0.941,0.237-1.395
	c-0.313-0.454-0.929-0.571-1.388-0.272l-0.001-0.002l-1.618,1.118c-0.268-0.241-0.561-0.459-0.876-0.65l0.693-1.757l-0.003-0.001
	c0.188-0.514-0.066-1.087-0.579-1.29c-0.513-0.202-1.089,0.043-1.304,0.547l-0.003-0.001l-0.698,1.767
	c-0.317-0.062-0.636-0.095-0.953-0.105l-0.202-1.827h-0.003c-0.074-0.542-0.566-0.931-1.113-0.87
	c-0.549,0.061-0.944,0.547-0.899,1.092l-0.003,0l0.209,1.896c-0.335,0.111-0.66,0.252-0.971,0.422l-1.079-1.493L35,28.972
	c-0.332-0.434-0.953-0.531-1.399-0.207c-0.447,0.323-0.552,0.941-0.243,1.393l-0.003,0.001l1.144,1.584
	c-0.208,0.238-0.398,0.494-0.568,0.77L32.17,31.82l-0.001,0.002c-0.515-0.187-1.087,0.067-1.289,0.58
	c-0.203,0.513,0.044,1.089,0.547,1.305l-0.001,0.002l1.756,0.691c-0.043,0.212-0.077,0.425-0.096,0.638l-1.963,0.367l0,0.003
	c-0.535,0.115-0.886,0.634-0.784,1.177c0.102,0.542,0.616,0.899,1.157,0.814v0.002l1.765-0.33c0.108,0.403,0.257,0.794,0.448,1.165
	l-1.53,1.058l0.001,0.002c-0.442,0.323-0.551,0.94-0.237,1.394c0.314,0.454,0.93,0.57,1.388,0.272l0.001,0.002l1.605-1.108
	c0.191,0.175,0.395,0.339,0.611,0.49l-0.737,1.861l0.002,0c-0.187,0.514,0.066,1.087,0.578,1.291
	c0.513,0.203,1.09-0.042,1.306-0.545l0.002,0l0.692-1.747c0.323,0.086,0.647,0.143,0.972,0.172l0.366,1.976l0.003,0
	c0.114,0.535,0.632,0.887,1.174,0.786c0.542-0.1,0.901-0.614,0.816-1.155h0.003l-0.33-1.784c0.408-0.11,0.804-0.262,1.179-0.456
	l1.031,1.498l0.002-0.002c0.322,0.442,0.939,0.551,1.394,0.239c0.454-0.312,0.573-0.927,0.275-1.387l0.002-0.001l-1.09-1.583
	c0.184-0.201,0.356-0.415,0.512-0.644l1.832,0.722l0-0.003C46.047,39.772,46.621,39.519,46.823,39.006z M37.526,39.027
	c-1.906-0.753-2.841-2.909-2.089-4.815c0.753-1.907,2.909-2.842,4.815-2.09c1.907,0.753,2.843,2.909,2.089,4.815
	C41.589,38.844,39.434,39.78,37.526,39.027z"/>
<path fill="#FFFFFF" d="M8.528,68.797H5.447c0,0-1.183,0.141-1.183-1.34c0-1.477,0-7.422,0-8.589c0-1.166,1.073-1.275,1.073-1.275
	s1.681,0,3.206,0c1.276,0,1.384,1.151,1.384,1.151s0,7.189,0,8.667C9.928,68.891,8.528,68.797,8.528,68.797z"/>
<path fill="#FFFFFF" d="M33.732,56.503l3.644-1.207c0,0,0.795-0.079,0.517-0.874c-0.278-0.794-1.798-2.564-2.781-3.138
	c-1.451-0.848-4.485-1.292-6.157-1.231c-1.927,0.069-4.568,0.556-5.918,1.351c-1.351,0.793-2.979,2.534-3.53,3.818
	c-0.596,1.385-1.192,3.708-0.834,6.568c0.358,2.859,2.15,4.932,3.213,5.739c1.167,0.889,3.625,1.857,6.951,1.907
	c3.18,0.048,6.178-0.605,8.5-2.264c1.112-0.795,1.112-0.795,1.112-0.795l0.04-6.474c0,0,0.119-1.231-0.874-1.231
	c-0.993,0-7.349,0-7.349,0s-1.107-0.114-1.112,0.675c-0.002,0.517,0,2.224,0,2.224s-0.084,0.755,0.775,0.775
	c0.655,0.015,2.403,0,2.403,0s0.636-0.14,0.636,0.654c0,0.796,0,1.191,0,1.191s-0.357,1.073-2.145,1.113
	c-1.787,0.04-3.734-0.118-4.727-0.992c-0.993-0.875-1.673-2.836-1.668-4.25c0.004-1.195,0.189-3.084,1.311-4.41
	c0.805-0.951,2.063-1.309,2.939-1.351c1.36-0.064,3.058,0.517,3.495,1.231c0.438,0.716,0.478,0.954,0.875,1.032
	C33.444,56.647,33.732,56.503,33.732,56.503z"/>
<path fill="#FFFFFF" d="M64.074,50.151c0,0,1.291,0.018,1.291,2.024c0,2.006-1.204,2.041-1.204,2.041h-7.283
	c0,0-0.985,0.262-0.985,1.57c0,1.308,0.977,1.526,0.977,1.526h6.41c0,0,1.265,0.165,1.265,2.067c0,1.901-1.168,1.814-1.168,1.814
	h-6.429c0,0-1.09,0.356-1.09,1.901c0,1.542,1.117,1.804,1.117,1.804h7.249c0,0,1.247,0.08,1.247,2.262
	c0,2.18-1.247,2.092-1.247,2.092H51.417c0,0-1.295,0.054-1.295-1.295c0-1.347,0-16.315,0-16.315s-0.048-1.509,1.252-1.509
	C52.673,50.135,64.074,50.151,64.074,50.151z"/>
<path fill="#FFFFFF" d="M84.048,50.351h-6.851c0,0-0.716-0.079-0.716,0.716c0,0.793,0,17.795,0,17.795s0.06,0.595,0.557,0.595
	c0.496,0,3.734,0,3.734,0s0.636,0.02,0.636-0.516c0-0.537,0-7.766,0-7.766s-0.002-0.844,0.843-0.844s0.845,0.823,0.845,0.823
	l2.045,7.607c0,0,0.081,0.615,0.616,0.615c0.536,0,3.456,0,3.456,0s0.456,0.079,0.714-0.596c0.259-0.676,2.105-7.965,2.105-7.965
	s0.1-0.903,0.904-0.903c0.804,0,0.765,0.903,0.765,0.903v7.945c0,0,0.06,0.675,0.597,0.675c0.535,0,3.753,0,3.753,0
	s0.596-0.06,0.596-0.795c0-0.734,0-17.596,0-17.596s0-0.755-0.636-0.755c-0.637,0-6.872,0-6.872,0s-0.417,0.04-0.654,0.814
	c-0.238,0.774-2.126,7.884-2.126,7.884s-0.278,0.864-0.864,0.864c-0.585,0-0.864-0.904-0.864-0.904l-1.906-7.784
	C84.724,51.166,84.665,50.351,84.048,50.351z"/>
<g>
	<path fill="#87C699" d="M16.577,73.266c0,0.001,0,0.002,0,0.002S16.578,73.267,16.577,73.266z"/>
	<path fill="#87C699" d="M16.377,72.103c0,0.003,0,0.003,0,0.004C16.377,72.106,16.377,72.106,16.377,72.103z"/>
	<path fill="#87C699" d="M36.975,84.675c0,0-3.464-0.725-4.876-1.223c0.001,0,0.003,0,0.006,0c-0.87,0.12-1.856,0.181-2.99,0.165
		c-5.442-0.078-6.753-1.19-8.699-2.621c-1.494-1.099-2.578-3.115-3.292-5.496l-0.044-0.03c0,0-2.667-2.686-3.709-3.812
		c0.114,1.523,0.889,4.571,0.889,4.571c0.873,2.106,1.907,5.601,5.362,8.063s9.513,2.284,11.459,2.205
		C33.027,86.417,36.975,84.675,36.975,84.675z"/>
	<path fill="#87C699" d="M74.988,63.383l-0.06,0.236c0,0-0.761,4.248-2.322,6.722c-1.777,2.817-4.136,4.68-6.695,6.101
		c-1.775,0.987-5.641,2.781-7.612,3.672c-1.739,0.785-4.78,2.645-5.694,3.571c0.141,0.024,0.28,0.05,0.42,0.071
		c-0.021,2.701,0.04,6.951,0.04,8.401c0.159,1.391,1.49,2.125,2.384,2.104c1.032-0.021,3.376,0.318,4.19-0.416
		c1.108-1.001,1.251-1.807,1.251-2.482s0-7.31,0-7.31s4.568-0.853,5.323-1.29c0.973,1.589,3.296,5.818,3.296,5.818
		s1.124,2.005,2.623,2.205c0.894,0.119,4.012-0.974,5.024-2.86c0.487-0.908-0.694-3.077-0.694-3.077l-3.297-5.602
		c0,0,3.733-3.179,4.328-4.052c1.014,0.636,6.158,3.615,6.158,3.615s1.39,0.893,2.582,0.755c1.629-0.191,1.905-0.915,1.905-0.915
		l1.51-2.701c0,0,1.052-1.925-1.072-3.257c-1.841-1.153-3.218-1.828-3.218-1.828h-9.532c0,0-0.676-0.315-0.755-0.952L74.988,63.383z
		"/>
</g>
<linearGradient id="SVGID_1_" gradientUnits="userSpaceOnUse" x1="78.3691" y1="38.1626" x2="83.0614" y2="38.99">
	<stop  offset="0.1801" style="stop-color:#87C699"/>
	<stop  offset="0.4946" style="stop-color:#69BCEA"/>
	<stop  offset="0.764" style="stop-color:#065F7C"/>
</linearGradient>
<polyline fill="url(#SVGID_1_)" points="79.193,33.489 79.958,43.261 82.302,43.301 82.439,35.783 "/>
<linearGradient id="SVGID_2_" gradientUnits="userSpaceOnUse" x1="63.52" y1="32.8008" x2="135.5273" y2="32.8008">
	<stop  offset="0.086" style="stop-color:#87C699"/>
	<stop  offset="0.1419" style="stop-color:#83C4A8"/>
	<stop  offset="0.2564" style="stop-color:#76C1CC"/>
	<stop  offset="0.3618" style="stop-color:#69BCEA"/>
	<stop  offset="0.7052" style="stop-color:#065F7C"/>
	<stop  offset="1" style="stop-color:#012E2C"/>
</linearGradient>
<path fill="url(#SVGID_2_)" d="M131.565,52.317l-3.427-2.651l-1.816-4.678l-1.876-5.57l-2.415-2.592l-4.199-2.95l-2.979-1.43
	l-2.74-3.217l-5.096-2.89l-4.08-2.085l-4.558-2.889l-2.95-2.771l-3.127-2.205l-2.235-1.103l-3.784-1.966l-0.147-0.686l-4.171-0.983
	l-0.207,0.115l-0.083-0.872l0.114-1.091L82.46,8.6l0.49-1.757l-0.222-0.701L82.52,6.229l-0.287-0.462l-5.401,2.624l-3.177-0.812
	l-5.369-0.656L64.47,5.628l-0.95,0.069l0.104,1.139c0,0,2.813,0.88,4.575,2.158c1.761,1.277,2.037,2.313,2.037,2.313l-0.639,0.086
	c0,0,0.431,1.45,1.45,1.812c1.018,0.362,1.347,0.242,1.847,0.483c0.501,0.242,0.466,0.812,0.915,1.018
	c0.449,0.208,1.64,0.225,2.123-0.88c0.483-1.105,0.483-1.985,0.483-1.985s-1.122,0.207-2.211,0.224
	c-1.087,0.018-2.02-1.243-2.02-1.243s2.004,0.259,2.504,0.242c0.502-0.017,1.226-0.379,1.52-0.742
	c0.293-0.362,0.655-0.207,0.655-0.207s0.035,0.483,0.26,0.639c0.224,0.155,3.056-2.054,3.056-2.054l2.1-2.161l0.049,0.285
	l-0.39,1.63l-1.157,1.858l-0.395,0.978l-0.095,1.288l-1.873,1.039l-1.399,2.503l0.059,1.579l-1.906,1.877l1.817,0.923l2.383-1.876
	l2.503,0.953c0,0-0.923,1.103-1.966,1.728c-1.044,0.625-2.324,1.132-2.324,1.132l3.427,2.622c0,0-0.478,0.833-0.447,1.251
	c0.029,0.417,2.115,1.906,2.115,1.906l2.979,2.711l1.103,6.941v4.38h1.698l0.804-13.764l14.271,6.852c0,0,0.686,0.358,1.102,0.238
	c0.418-0.119,1.788-0.954,1.788-0.954s0.208,2.325,0.506,3.158c0.298,0.834,3.158,5.72,3.575,6.167
	c0.418,0.447,1.877,2.801,2.234,3.605c0.347,0.782,0.553,2.969,0.538,4.103l-3.49-4.73l-1.406,0.413l-3.595-4.82l-2.533-0.298
	l-1.37,0.268l2.532,5.542l4.11,5.124l1.698,3.217l0.12,3.605l1.965-0.029v-3.604l-0.952-2.622l-1.401-2.532l-0.142-3.11l0.338,0.37
	l1.536,1.619l2.18,2.61l0.825,0.833l0.229-0.019c0.531,0.937,1.2,1.808,1.2,1.808l0.208,4.379l3.249,0.238l-0.209-5.778l-1.787-4.5
	l0.148-1.52l-0.417-1.995l-0.18-4.648l0.566-2.502l0.835-0.03l1.221,0.714c0,0,0.745-0.387,1.162,0.208
	c0.418,0.596,3.039,4.022,3.218,4.827c0.178,0.804,1.341,5.541,1.877,6.584c0.535,1.042,1.906,3.157,1.906,3.157l0.864-1.787
	c0,0,2.085,2.294,3.664,2.412c1.578,0.12,3.188-0.089,3.188-0.089l0.893-2.025L131.565,52.317z"/>
<g>
	<polygon fill="#010202" points="70.226,8.823 72.113,9.597 71.497,8.365 	"/>
	<path fill="#010202" d="M78.797,10.253c0.454-0.411,1.602-1.799,1.602-1.799s-2.029,0.787-2.479,1.105
		c-0.921,0.651-0.481,1.643-0.481,1.643S78.345,10.664,78.797,10.253z"/>
	<path fill="#010202" d="M119.057,54.203c0,0-0.89-1.443-1.208-2.114c-0.318-0.67-0.587-1.929-0.502-2.264
		c0.083-0.335,0.435-0.319,0.401-0.822c-0.033-0.503-0.57-1.274-0.688-1.761c-0.116-0.487-0.436-0.57-0.084-1.023
		c0.354-0.453,0.343-0.625,0.052-1.349c-0.45-1.12-0.319-3.583-0.27-4.187c0.05-0.604,0.286-1.442,0.286-1.442
		s1.206,1.728,1.594,3.355c0.385,1.627,0.988,4.981,1.104,5.837c0.118,0.856,1.294,3.673,1.377,3.808
		c0.084,0.134,0.989-1.174,0.989-1.174s0.319,2.331,0.553,3.035c0.235,0.705,1.36,2.415,2.818,3.405
		c1.459,0.989,5.267,1.711,5.267,1.711l-0.704-1.593c0,0,0.906,0.403,1.459,0.653c0.554,0.252,1.662-0.336,1.862-0.42
		c0.201-0.083,1.694-1.408,1.862-1.794c0.167-0.386,1.09-1.795,1.057-3.02s-0.033-1.225-0.033-1.225s-0.906,0-1.946,0.051
		c-1.039,0.05-2.214,0.084-3.153-0.503c-0.939-0.587-2.767-2.365-3.321-4.277c-0.554-1.912-1.174-4.21-1.995-6.256
		c-0.822-2.046-2.114-3.556-3.925-4.981c-1.812-1.425-6.374-3.522-6.374-3.522s-1.173-3.003-4.494-4.68
		c-3.322-1.677-6.811-3.153-7.867-3.673s-7.278-5.603-7.278-5.603l0.704-0.554c0,0-3.321-1.996-4.831-2.616
		c-1.511-0.621-3.389-1.275-3.389-1.275l-0.033-0.67l-0.72-0.05l0.099-0.654c0,0-2.615-0.755-3.588-0.889
		c-0.973-0.135-2.265-0.387-2.265-0.387l0.066-1.106c0,0,1.157-2.063,1.325-2.6c0.169-0.537-0.167-2.533-0.167-2.533
		s-2.214,0.855-2.886,1.208c-0.67,0.352-2.5,1.376-2.851,1.476c-0.354,0.101-0.808,0.017-0.808,0.017s-1.107-0.754-1.712-0.905
		c-0.604-0.151-4.595-0.084-5.115-0.034c-0.521,0.051-6.139-2.398-6.29-2.432c-0.151-0.034-0.521,0.838-0.537,0.989
		c-0.017,0.151-0.269,2.751-0.084,3.07c0.185,0.318,0.654,0.939,0.654,0.939l-0.637,0.033c0,0-0.135,1.476,0.251,2.046
		c0.386,0.57,3.12,2.55,3.489,2.918c0.37,0.369,2.952,2.868,3.422,3.891c0.47,1.023,2.416,4.026,2.514,4.613
		c0.102,0.587,2.036,1.593,4.363,6.139c0.267,0.522,1.382,1.442,1.626,4.243c0.094,1.072,0.687,10.702,0.687,10.702l4.312-0.302
		l0.101-6.374l0.486,0.403l0.117,5.836l5.2,0.269l0.403-6.189c0,0,2.096,0.486,3.187,0.537c1.09,0.05,3.136-0.335,3.739-0.101
		c0.604,0.235,3.071,1.258,3.071,1.258s0.185,2.885,0.586,3.757c0.403,0.872,2.466,5.552,3.355,6.576
		c0.889,1.022,2.516,3.103,3.119,3.841s1.712,2.164,1.695,2.466c-0.016,0.26,0.03,2.839,0.046,3.576h-7.436v1.112h35.115v-1.112
		h-16.956L119.057,54.203z M129.956,52.496c0,0,0.969,0.566,2.264,0.774c1.296,0.209,2.547,0.074,2.547,0.074
		s-0.371,1.237-0.654,1.759c-0.283,0.52-1.371,1.861-2.323,1.907c-0.954,0.044-3.158-0.582-3.158-0.582s0.67,1.206,0.238,1.281
		c-0.901,0.155-2.397-1.236-2.397-1.236s2.1-0.851,2.801-1.579C129.972,54.165,129.956,52.496,129.956,52.496z M129.137,51.916
		c0.21,0.491,0.03,1.027-0.073,1.653c-0.105,0.626-0.448,0.729-0.775,1.057c-0.327,0.328-1.594,0.895-2.176,0.865
		c-0.58-0.031-1.549-1.014-2.069-1.624c-0.521-0.61-0.908-2.89-0.908-2.89s1.325-0.06,2.264-0.357
		c0.938-0.298,1.937-1.281,1.937-1.281S128.928,51.423,129.137,51.916z M125.89,45.271c0,0,0.164,0.552,0.565,1.326
		c0.402,0.774,0.493,1.921,0.493,1.921s-0.851,0.849-1.699,1.37c-0.849,0.521-2.293,0.596-2.293,0.596l-0.164-1.371
		c0,0-0.954,0.79-1.087,0.76c-0.135-0.03-0.521-0.641-0.789-1.534c-0.27-0.894-0.358-2.13-0.358-2.13s1.921,0.968,3.247,0.85
		C125.131,46.94,125.89,45.271,125.89,45.271z M123.611,39.462c0,0,1.132,2.115,1.787,3.962c0.655,1.847-1.803,2.741-1.803,2.741
		c-2.086,0.223-3.113-1.058-3.113-1.058l-0.789-3.56c0,0,1.563,0.03,2.384-0.312C122.896,40.892,123.611,39.462,123.611,39.462z
		 M119.888,36.081c0,0,1.222,0.596,1.787,1.088c0.565,0.492,1.162,1.221,1.162,1.221s-0.343,1.415-0.775,1.772
		c-0.431,0.357-1.906,0.67-1.906,0.67l-1.698-1.653c0,0,0.834-0.551,1.058-1.251C119.737,37.229,119.888,36.081,119.888,36.081z
		 M119.054,35.396c0,0,0.193,1.237-0.045,1.817c-0.239,0.581-0.686,1.191-1.06,1.191c-0.371,0-0.773-0.998-0.759-1.548
		c0.017-0.552-0.148-1.356-0.386-1.773c-0.239-0.417-0.269-1.117-0.269-1.117L119.054,35.396z M110.623,28.842
		c0,0,2.531,1.638,3.59,3.724c0.876,1.727,1.46,3.769,1.578,4.677c0.118,0.909-0.357,2.294-0.357,2.294l-4.082,3.262l-4.26-0.373
		l-1.848-3.47l5.229-3.933L110.623,28.842z M115.791,46.538l-0.044,0.908l-1.938,1.847l-2.562-0.611l-3.678-5.272l4.259,0.268
		l3.456-2.681l0.521,4.305l-0.372,0.358L115.791,46.538z M69.054,15.257c-0.357-0.134-1.263-1.564-1.919-2.033
		c-0.655-0.469-2.383-1.355-2.673-1.586c-0.291-0.23-0.47-1.132-0.47-1.132l2.205,0.834c0,0,0.037-0.73-0.239-0.968
		c-0.275-0.238-0.663-0.543-1.102-0.529c-0.44,0.015-0.418-0.015-0.559-0.156c-0.142-0.142-0.551-1.601-0.64-1.795
		c-0.089-0.194,0.104-0.566,0.104-0.566l0.715,0.127l-0.693-0.872c0,0,0.246-0.625,0.335-0.647c0.09-0.023,0.812,0.275,1.237,0.476
		s2.89,1.229,3.396,1.364c0.507,0.134,2.242,0.387,3.016,0.29c0.775-0.096,2.161,0.053,2.422,0.12
		c0.26,0.067,1.499,0.442,1.499,0.442s-0.715,3.221-1.073,4.052c-0.357,0.83-0.956,1.619-1.588,1.827
		C73.026,14.502,69.412,15.392,69.054,15.257z M71.561,18.722c-0.368-0.779-1.77-2.847-1.77-2.847s4.249-0.736,4.56-1.033
		c0.312-0.298,1.346-2.408,1.657-3.017c0.312-0.608,1.133-3.101,1.133-3.101l5.099-2.479c0,0-0.162,1.402-0.608,2.224
		c-0.439,0.807-1.686,2.931-2.451,3.144c-0.765,0.212-1.925-0.113-1.925-0.113s0,1.02-0.114,1.473
		c-0.113,0.454-0.837,1.87-1.487,2.209c-0.65,0.34-1.982,0.708-1.982,0.708s0.694,0.963,0.808,1.09
		c0.113,0.127,1.188,0.41,2.039,0.184c0.85-0.227,1.587-1.997,1.84-2.351c0.256-0.354,1.262-0.482,1.262-0.482l-0.396,3.909
		l-5.566,4.518C73.656,22.758,71.93,19.501,71.561,18.722z M76.079,25.118l-1.221-2.025l5.108-4.439l1.818-6.51l3.888,0.819
		l-0.834,1.073l2.278,0.238c0,0-0.744,2.756-1.088,3.858c-0.342,1.102-2.114,4.305-2.114,4.305L76.079,25.118z M78.91,28.902
		l-1.922-3.069l7.924-2.89l3.739-7.731c0,0,1.639,0.611,2.354,0.954s2.354,1.504,2.354,1.504s-0.641,0.611-0.924,0.983
		s-0.67,1.668-1.312,2.905c-0.639,1.236-3.112,5.034-3.112,5.034L78.91,28.902z M79.595,34.055l2.101,2.831
		c0,0,0.164,2.056-0.016,2.472c-0.179,0.417-0.208,0.552-0.461,0.462c-0.253-0.09-0.909-0.909-0.983-1.476
		C80.16,37.779,79.595,34.055,79.595,34.055z M81.665,43.022l-1.16-0.044l0.044-2.667l0.641,0.641l0.67-0.521L81.665,43.022z
		 M88.22,42.755l-2.667-0.239l-0.327-4.812l1.638,1.072l1.4-1.25L88.22,42.755z M88.473,35.635l-1.758,1.892l-1.861-1.624
		l-0.268-2.666l1.876,0.253l2.25-2.904L88.473,35.635z M89.113,27.948l-3.143,4.587l-1.832-0.283l-4.111-2.442l8.594-2.637
		l4.663-7.492l0.982-1.087l2.369,2.129l-0.774,6.823l-5.467,3.158L89.113,27.948z M96.65,35.188l-4.408-0.521l-1.968-1.49
		l0.06-1.103l6.436-4.156l0.67-6.599l5.095,3.649l-0.312,6.495L96.65,35.188z M97.781,35.545l5.333-3.575l0.268-6.45l6.197,2.651
		l-0.014,6.539l-4.917,3.605c0,0-2.382-1.162-3.41-1.535C100.211,36.409,97.781,35.545,97.781,35.545z M102.891,45.674
		c-0.744-0.492-1.25-2.577-1.25-2.577s0.268-0.342,1.235-0.313c0.969,0.03,1.372,0.283,1.372,0.283s1.339,1.921,1.534,2.384
		c0.193,0.461-0.299,1.028-0.866,1.057C104.351,46.538,103.636,46.166,102.891,45.674z M105.409,49.83
		c-0.462-0.461-1.639-2.77-1.639-2.77l1.505,0.417l1.072-1.162c0,0,0.506,0.387,0.863,0.774c0.358,0.387,1.013,1.281,0.969,1.772
		c-0.045,0.492-0.029,2.19-0.224,2.398s-0.521,0.238-0.908,0.149C106.66,51.319,105.871,50.292,105.409,49.83z M110.771,59.392
		h-1.059c0,0-0.015-2.323-0.015-2.727c0-0.4-0.312-1.503-0.64-2.084c-0.329-0.581-1.624-2.294-1.624-2.294l0.773,0.104l0.508-0.699
		c0,0,1.37,2.457,1.802,3.53C110.949,56.294,110.771,59.392,110.771,59.392z M114.801,59.506h-2.977l-0.03-3.476
		c0,0-0.185-1.645-0.855-2.5c-0.67-0.854-1.342-1.979-1.375-2.482c-0.033-0.503,0.067-1.896,0.067-1.896s2.332,2.852,2.75,3.406
		c0.42,0.553,2.281,2.448,2.382,3.354C114.847,56.665,114.814,58.801,114.801,59.506z M115.88,59.408c0,0-0.104-3.917-0.163-4.41
		c-0.061-0.49-1.832-2.814-1.832-2.814l-1.758-2.249l2.145,0.387l2.012-1.937c0,0-0.254,0.775-0.343,0.878
		c-0.091,0.105,0.104,1.609,0.282,2.279c0.179,0.671,1.579,3.009,1.579,3.009l0.223,4.871L115.88,59.408z"/>
	<circle fill="#010202" cx="83.697" cy="13.763" r="0.399"/>
	<circle fill="#010202" cx="82.371" cy="13.345" r="0.399"/>
	<circle fill="#010202" cx="89.343" cy="16.518" r="0.399"/>
	<circle fill="#010202" cx="90.772" cy="17.382" r="0.399"/>
	<circle fill="#010202" cx="94.184" cy="19.959" r="0.4"/>
	<circle fill="#010202" cx="95.509" cy="20.704" r="0.399"/>
	<circle fill="#010202" cx="98.31" cy="23.325" r="0.4"/>
	<circle fill="#010202" cx="99.77" cy="24.487" r="0.399"/>
	<circle fill="#010202" cx="101.14" cy="25.351" r="0.399"/>
	<circle fill="#010202" cx="104.417" cy="27.138" r="0.399"/>
	<circle fill="#010202" cx="106.175" cy="28.181" r="0.399"/>
	<circle fill="#010202" cx="107.933" cy="28.926" r="0.399"/>
	<circle fill="#010202" cx="111.715" cy="30.981" r="0.399"/>
	<circle fill="#010202" cx="113.026" cy="32.769" r="0.399"/>
	<circle fill="#010202" cx="113.771" cy="34.556" r="0.399"/>
	<circle fill="#010202" cx="114.307" cy="36.374" r="0.4"/>
	<circle fill="#010202" cx="114.724" cy="38.221" r="0.399"/>
	<circle fill="#010202" cx="87.734" cy="33.424" r="0.399"/>
	<circle fill="#010202" cx="87.734" cy="35.182" r="0.399"/>
	<circle fill="#010202" cx="87.495" cy="39.591" r="0.399"/>
</g>
<g>
	<path fill="#FFFFFF" d="M119.307,69.397l-1.507-4.389h0.645l0.719,2.162c0.197,0.592,0.369,1.127,0.492,1.641h0.014
		c0.13-0.508,0.322-1.062,0.526-1.635l0.781-2.168h0.637l-1.65,4.389H119.307z"/>
	<path fill="#FFFFFF" d="M122.656,65.359c0.006,0.196-0.145,0.353-0.384,0.353c-0.213,0-0.363-0.156-0.363-0.353
		c0-0.201,0.158-0.356,0.376-0.356C122.512,65.002,122.656,65.158,122.656,65.359z M121.985,69.397v-3.152h0.601v3.152H121.985z"/>
	<path fill="#FFFFFF" d="M123.587,64.774h0.604v4.623h-0.604V64.774z"/>
	<path fill="#FFFFFF" d="M125.203,67.098c0-0.326-0.006-0.592-0.027-0.854h0.534l0.034,0.521h0.015
		c0.164-0.3,0.547-0.593,1.095-0.593c0.459,0,1.171,0.262,1.171,1.342v1.882h-0.603v-1.816c0-0.509-0.199-0.931-0.767-0.931
		c-0.397,0-0.705,0.266-0.809,0.584c-0.026,0.072-0.04,0.171-0.04,0.27v1.894h-0.604V67.098z"/>
	<path fill="#FFFFFF" d="M129.676,65.359c0.008,0.196-0.144,0.353-0.383,0.353c-0.213,0-0.362-0.156-0.362-0.353
		c0-0.201,0.157-0.356,0.376-0.356C129.532,65.002,129.676,65.158,129.676,65.359z M129.006,69.397v-3.152h0.603v3.152H129.006z"/>
	<path fill="#FFFFFF" d="M133.381,68.538c0,0.326,0.008,0.613,0.027,0.859h-0.533l-0.034-0.515h-0.015
		c-0.157,0.255-0.507,0.587-1.096,0.587c-0.521,0-1.144-0.274-1.144-1.38v-1.845h0.604v1.746c0,0.599,0.19,1.003,0.739,1.003
		c0.404,0,0.686-0.268,0.795-0.52c0.034-0.087,0.055-0.191,0.055-0.294v-1.936h0.602V68.538z"/>
	<path fill="#FFFFFF" d="M134.3,68.811c0.179,0.112,0.493,0.229,0.795,0.229c0.438,0,0.644-0.209,0.644-0.47
		c0-0.272-0.171-0.423-0.616-0.579c-0.597-0.201-0.879-0.515-0.879-0.893c0-0.508,0.434-0.925,1.145-0.925
		c0.336,0,0.631,0.092,0.816,0.195l-0.151,0.416c-0.13-0.078-0.369-0.181-0.677-0.181c-0.357,0-0.556,0.195-0.556,0.43
		c0,0.26,0.198,0.378,0.63,0.534c0.575,0.208,0.869,0.481,0.869,0.95c0,0.555-0.451,0.945-1.239,0.945
		c-0.363,0-0.699-0.084-0.931-0.216L134.3,68.811z"/>
</g>
<g>
	<path fill="#FFFFFF" d="M110.583,72.188h0.502v3.585h1.658v0.435h-2.16V72.188z"/>
	<path fill="#FFFFFF" d="M113.804,72.188v4.02h-0.502v-4.02H113.804z"/>
	<path fill="#FFFFFF" d="M115.416,72.63h-1.181v-0.442h2.875v0.442h-1.188v3.577h-0.507V72.63z"/>
	<path fill="#FFFFFF" d="M118.043,72.188v1.682h1.878v-1.682h0.507v4.02h-0.507v-1.884h-1.878v1.884h-0.502v-4.02H118.043z"/>
	<path fill="#FFFFFF" d="M121.797,72.188v2.38c0,0.901,0.386,1.282,0.905,1.282c0.577,0,0.944-0.394,0.944-1.282v-2.38h0.508v2.344
		c0,1.234-0.629,1.741-1.469,1.741c-0.795,0-1.395-0.471-1.395-1.718v-2.367H121.797z"/>
	<path fill="#FFFFFF" d="M125.456,74.943l-0.403,1.265h-0.519l1.318-4.02h0.605l1.324,4.02h-0.534l-0.415-1.265H125.456z
		 M126.729,74.539l-0.38-1.157c-0.087-0.263-0.145-0.502-0.203-0.733h-0.011c-0.058,0.237-0.122,0.483-0.195,0.728l-0.38,1.163
		H126.729z"/>
	<path fill="#FFFFFF" d="M128.353,76.208v-4.02h0.548l1.243,2.034c0.289,0.471,0.514,0.895,0.699,1.306l0.01-0.006
		c-0.046-0.536-0.058-1.026-0.058-1.652v-1.682h0.474v4.02h-0.508l-1.232-2.039c-0.271-0.447-0.531-0.907-0.727-1.341l-0.017,0.005
		c0.028,0.508,0.04,0.99,0.04,1.657v1.718H128.353z"/>
	<path fill="#FFFFFF" d="M132.645,72.188v4.02h-0.503v-4.02H132.645z"/>
	<path fill="#FFFFFF" d="M134.147,74.943l-0.403,1.265h-0.519l1.318-4.02h0.605l1.325,4.02h-0.536l-0.414-1.265H134.147z
		 M135.421,74.539l-0.381-1.157c-0.086-0.263-0.144-0.502-0.201-0.733h-0.013c-0.058,0.237-0.12,0.483-0.194,0.728l-0.381,1.163
		H135.421z"/>
</g>
<g>
	<path fill="#FFFFFF" d="M121.255,84.638v-0.396l0.53-0.494c1.274-1.162,1.85-1.779,1.857-2.499c0-0.485-0.245-0.934-0.99-0.934
		c-0.453,0-0.828,0.221-1.06,0.404l-0.215-0.457c0.346-0.279,0.837-0.485,1.414-0.485c1.073,0,1.526,0.706,1.526,1.391
		c0,0.883-0.668,1.596-1.719,2.566l-0.4,0.353v0.016h2.242v0.535H121.255z"/>
	<path fill="#FFFFFF" d="M128.51,82.198c0,1.625-0.629,2.521-1.735,2.521c-0.975,0-1.635-0.874-1.65-2.455
		c0-1.604,0.722-2.486,1.735-2.486C127.91,79.778,128.51,80.675,128.51,82.198z M125.8,82.271c0,1.242,0.4,1.948,1.014,1.948
		c0.689,0,1.021-0.771,1.021-1.992c0-1.177-0.314-1.948-1.014-1.948C126.229,80.279,125.8,80.969,125.8,82.271z"/>
	<path fill="#FFFFFF" d="M129.131,84.638v-0.396l0.529-0.494c1.274-1.162,1.851-1.779,1.858-2.499c0-0.485-0.246-0.934-0.991-0.934
		c-0.452,0-0.829,0.221-1.059,0.404l-0.216-0.457c0.346-0.279,0.839-0.485,1.414-0.485c1.074,0,1.527,0.706,1.527,1.391
		c0,0.883-0.668,1.596-1.719,2.566l-0.4,0.353v0.016h2.242v0.535H129.131z"/>
	<path fill="#FFFFFF" d="M133.068,84.638v-0.396l0.529-0.494c1.275-1.162,1.852-1.779,1.859-2.499c0-0.485-0.247-0.934-0.992-0.934
		c-0.452,0-0.828,0.221-1.059,0.404l-0.215-0.457c0.346-0.279,0.838-0.485,1.413-0.485c1.075,0,1.528,0.706,1.528,1.391
		c0,0.883-0.669,1.596-1.72,2.566l-0.4,0.353v0.016h2.242v0.535H133.068z"/>
</g>
<path fill="#69BCEA" d="M17.079,75.47l0.044,0.03c-0.431-1.433-0.727-2.999-0.898-4.574c-0.36-3.3,0.093-11.647,0.658-14.845
	c1.149-6.505,3.245-12.93,3.89-15.005c1.271-4.09,3.866-10.195,5.633-13.01c1.767-2.814,3.076-3.567,3.943-4.139
	c0.867-0.573,2.83-0.942,3.927-0.933c3.653,0.03,6.833,1.598,9.971,2.79c3.138,1.191,5.164,3.853,5.561,4.925
	c0.397,1.073,0.919,2.953,0.119,6.792c-0.794,3.813-5.759,12.354-6.633,14.101c-0.873,1.748-1.832,3.35-2.104,6.396
	c-0.278,3.099-0.159,11.082-0.12,13.545c0.041,2.462-1.033,6.634-2.423,8.261c-1.14,1.337-2.6,3.104-6.548,3.649
	c1.412,0.498,4.876,1.223,4.876,1.223l0.102-0.003c0.615-0.292,1.28-0.627,2.008-1.015c-0.318,0.654-0.994,1.669-1.073,1.827
	s-0.754,1.986,0.278,2.859s2.582,2.265,4.131,2.265c1.548,0,1.946-0.874,2.78-1.985c0.834-1.112,3.456-5.88,3.615-6.079
	c0,0,1.865,0.777,3.79,1.141c0.914-0.927,3.955-2.786,5.694-3.571c1.971-0.891,5.836-2.685,7.612-3.672
	c2.559-1.421,4.917-3.283,6.695-6.101c1.562-2.474,2.322-6.722,2.322-6.722l0.06-0.236c-0.043-6.095-0.074-14.244-0.074-14.244
	s0-0.755,0.674-0.795c0.675-0.04,10.089-0.04,10.089-0.04l3.299-2.105c0,0,1.071-0.556,0.952-2.065
	c-0.119-1.509-2.303-3.932-2.303-3.932s-0.359-0.556-1.512-0.517c-0.755,0.026-1.786,0.517-1.786,0.517l-6.237,3.615
	c0,0-2.423-2.879-4.328-4.171c1.409-2.185,3.987-6.67,4.289-7.11c0.566-0.824,0.119-2.264-0.398-2.661
	c-0.514-0.397-2.977-1.907-2.977-1.907s-0.954-0.397-1.908-0.119c-1.073,0.313-1.469,0.993-1.469,0.993l-4.092,7.189
	c0,0-2.78-1.191-6.355-1.509c0-1.43,0.079-7.309,0.079-7.309s0.06-1.747-0.804-2.512c-0.785-0.695-1.937-0.596-1.937-0.596
	l-2.741-0.03c0,0-0.974,0.129-1.609,0.805s-0.615,1.777-0.615,1.777l-0.239,3.496c0,0-1.301-3.188-2.691-4.379
	c-1.39-1.192-4.678-3.188-7.557-4.201c-1.595-0.561-6.713-1.788-8.5-1.788c-1.788,0-3.962,0.532-5.958,1.867
	c-2.642,1.767-4.258,4.647-5.264,6.494c-1.112,2.044-2.581,5.564-2.998,6.495c-1.967,4.388-4.338,13.363-4.886,15.45
	c-0.557,2.125-1.585,7.838-1.985,12.274c-0.237,2.631-0.106,6.306,0.223,9.292C14.413,72.785,17.079,75.47,17.079,75.47z
	 M58.905,45.048c2.383,0.08,4.647,0.954,6.197,1.708c1.549,0.755,4.33,2.463,6.435,6.872c1.921,4.025,1.351,7.825,0.398,10.924
	c-0.955,3.099-4.688,6.791-6.595,7.705c-1.906,0.914-5.524,2.953-11.599,1.471c-3.416-0.834-5.441-2.781-6.752-3.894
	c-1.311-1.112-3.298-4.567-3.337-5.719c-0.062-1.83-0.159-7.032,1.073-9.375c0.397-0.755,3.058-5.958,3.972-6.713
	C52.018,45.284,56.92,44.983,58.905,45.048z"/>
<path fill="#FFFFFF" d="M104.062,50.167"/>
</svg>
