<?xml version="1.0" encoding="utf-8"?>
<!-- Generator: Adobe Illustrator 16.0.4, SVG Export Plug-In . SVG Version: 6.00 Build 0)  -->
<!DOCTYPE svg PUBLIC "-//W3C//DTD SVG 1.1//EN" "http://www.w3.org/Graphics/SVG/1.1/DTD/svg11.dtd">
<svg version="1.1" id="Layer_1" xmlns="http://www.w3.org/2000/svg" xmlns:xlink="http://www.w3.org/1999/xlink" x="0px" y="0px"
	 width="18.348px" height="50.107px" viewBox="0 0 18.348 50.107" enable-background="new 0 0 18.348 50.107" xml:space="preserve">
<path fill="#9BDFF9" d="M14.677,15.783v3.166L3.316,50.107H1.835c-0.48,0.006-0.945-0.179-1.29-0.515
	C0.197,49.285-0.002,48.843,0,48.378v-3.455c-0.001-0.464,0.197-0.906,0.545-1.215c0.346-0.334,0.81-0.519,1.29-0.513H3.67V20.969
	H1.835c-0.48,0.007-0.944-0.179-1.29-0.514C0.197,20.147-0.001,19.705,0,19.24v-3.456c-0.001-0.465,0.198-0.907,0.545-1.215
	c0.346-0.334,0.81-0.519,1.29-0.512h11.009c0.481-0.007,0.945,0.177,1.29,0.512C14.48,14.877,14.678,15.319,14.677,15.783z"/>
<ellipse fill="#9BDFF9" cx="8.796" cy="5.806" rx="6.164" ry="5.806"/>
<path fill="#5FBFF9" d="M18.347,44.923v3.455c0.001,0.465-0.197,0.907-0.546,1.215c-0.345,0.336-0.809,0.521-1.29,0.515H3.312
	l11.36-31.158v24.245h1.835c0.481-0.007,0.945,0.178,1.29,0.513C18.147,44.014,18.347,44.458,18.347,44.923z"/>
</svg>
