<svg xmlns="http://www.w3.org/2000/svg" width="136.457" height="108" viewBox="0 0 136.457 108"><defs><style>.a,.i{fill:#fff;}.b{fill:#faccbf;opacity:0.45;}.c{fill:#002733;}.d{fill:#ebe2e2;}.e{fill:#ef9f8d;}.f{fill:#108387;}.g{fill:#054d54;}.h{fill:#a86b62;}.i{opacity:0.4;}</style></defs><g transform="translate(64.499 9.438)"><path class="a" d="M497.454,410.686H449.431l9.522-48.023h48.023Z" transform="translate(-435.019 -346.802)"/><path class="b" d="M419.954,328.213l67.715,38.871H435.28l-17.151-29.668Z" transform="translate(-418.129 -328.213)"/><g transform="translate(18.181 19.341)"><path class="c" d="M465.911,370.22l-8.293,41.81c2.342,0,41.418,0,41.606,0,0,0,8.29-41.813,8.29-41.813Zm27.2,34.117H466.824l5.237-26.42h26.29Z" transform="translate(-457.618 -370.22)"/><line class="c" x1="0.111" transform="translate(49.896 0)"/><line class="c" x1="0.07" transform="translate(40.733 7.696)"/><path class="c" d="M496.148,407.112c.012-.187.022-.357.034-.527a7.638,7.638,0,0,1,.719-2.771,4.9,4.9,0,0,1,1.331-1.725,4.987,4.987,0,0,1,2.045-.988,8.393,8.393,0,0,1,2.208-.184c.61.021,1.218.074,1.828.109.244.014.488.023.732.03a1.339,1.339,0,0,0,.18-.019c-.013-.072-.021-.135-.036-.2-.109-.451-.226-.9-.326-1.351a7.8,7.8,0,0,1-.131-2.4,10.924,10.924,0,0,1,.638-2.7c.1-.283.214-.563.322-.844.017-.045.039-.089.059-.134a.582.582,0,0,1,1.084.415c-.027.094-.07.182-.1.273-.1.251-.192.5-.286.753a1.378,1.378,0,0,0-.035.134c.151.128,2.759,1.664,3.029,1.786.061-.025.043-.081.045-.125a9.629,9.629,0,0,0-.07-1.437c-.006-.048-.015-.1-.017-.146a.592.592,0,0,1,.519-.608.577.577,0,0,1,.642.5,10.446,10.446,0,0,1,.076,1.948,8.6,8.6,0,0,1-.123,1.066,5.43,5.43,0,0,1-.8,2.005,4.9,4.9,0,0,1-1.122,1.146,5.062,5.062,0,0,1-1.711.861c-.046.013-.089.034-.142.054a1.507,1.507,0,0,0,.02.175,3.1,3.1,0,0,1,.074.8,5.231,5.231,0,0,1-.309,1.7,4.169,4.169,0,0,1-1.677,2.068,6.94,6.94,0,0,1-2.2.91,4.982,4.982,0,0,1-1.209.141c-.553,0-1.106-.027-1.66-.036-.448-.007-.9-.015-1.343,0-.276.008-.55.055-.825.088a.923.923,0,0,0-.157.045c-.042.084,0,.153.017.22a6.817,6.817,0,0,0,.342.939c.172.387.35.77.52,1.158a7.89,7.89,0,0,1,.57,1.912c.011.064.015.129.021.194a.581.581,0,0,1-.515.608.59.59,0,0,1-.647-.5c-.017-.1-.028-.193-.047-.289-.034-.167-.073-.333-.112-.507a1.358,1.358,0,0,0-.172-.025q-1.478,0-2.956,0a1.461,1.461,0,0,0-.167.017,3.167,3.167,0,0,0-.167.643,7.693,7.693,0,0,0-.14,1.821,1.41,1.41,0,0,1,0,.146.563.563,0,0,1-.458.53.574.574,0,0,1-.634-.3.689.689,0,0,1-.076-.3,9.883,9.883,0,0,1,.048-1.39,9.16,9.16,0,0,1,.582-2.336,7.823,7.823,0,0,1,1.521-2.483,3.632,3.632,0,0,1,1.062-.809C496.078,407.151,496.106,407.135,496.148,407.112Zm3.765-4.663c.064.054.1.087.137.115q.586.439,1.173.875,1.477,1.1,2.955,2.2c.044.033.093.058.134.083a1.97,1.97,0,0,0,.662-.659c-.062-.048-.125-.1-.19-.146l-2.5-1.831c-.38-.278-.763-.554-1.14-.837a.321.321,0,0,0-.27-.075c-.088.017-.177.026-.263.048A3.176,3.176,0,0,0,499.913,402.449Zm-1.107.682c-.1.107-.2.2-.287.309a1.1,1.1,0,0,0-.244.365c.09.067.174.131.258.193l1.925,1.417c.485.356.972.709,1.451,1.073a.4.4,0,0,0,.382.084c.249-.075.5-.144.748-.218.017-.005.028-.034.041-.052C502.884,406.121,499,403.234,498.806,403.131Zm10.468-5.065c-.047-.033-.1-.074-.151-.105-1.009-.588-2.012-1.186-3.037-1.775a.862.862,0,0,0-.062.147,5.835,5.835,0,0,0-.136,1.07l.726.448q.363.223.727.444c.25.152.5.307.749.456s.473.308.727.431A2.907,2.907,0,0,0,509.274,398.066ZM496.3,408.387a.274.274,0,0,0-.066.028c-.07.055-.141.11-.206.171a5.855,5.855,0,0,0-1.24,1.763.473.473,0,0,0-.019.123h2.113c.065,0,.13,0,.194-.007a.037.037,0,0,0,.023-.007c.006,0,.008-.013.025-.047-.126-.32-.3-.64-.433-.977S496.436,408.739,496.3,408.387Zm3.74-1.776c-.008-.025-.009-.044-.018-.052q-1.107-.82-2.215-1.639a.266.266,0,0,0-.067-.024,4.14,4.14,0,0,0-.348,1.31,1.745,1.745,0,0,0-.033.512,1.707,1.707,0,0,0,.206-.012,5.386,5.386,0,0,1,.995-.087c.407,0,.813,0,1.22,0A.751.751,0,0,0,500.044,406.61Zm5.5-4.39h-.321a10.126,10.126,0,0,1-1.095-.036c-.331-.036-.664-.048-1-.068-.037,0-.081-.016-.114.044.039.033.078.07.121.1,1.161.876,2.178,1.608,2.367,1.7A2.926,2.926,0,0,0,505.546,402.22Zm.887-1.325a3.878,3.878,0,0,0,1.56-.795c-.02-.028-.03-.053-.049-.065q-.955-.585-1.912-1.167a.236.236,0,0,0-.069-.015A10.9,10.9,0,0,0,506.433,400.9Z" transform="translate(-476.618 -382.55)"/></g></g><path class="c" d="M326.518,415.715H284.261a6.053,6.053,0,0,1-6.077-7.557l18.2-92.885a9.676,9.676,0,0,1,9.038-7.557h42.258a6.053,6.053,0,0,1,6.077,7.557l-18.2,92.885A9.676,9.676,0,0,1,326.518,415.715Z" transform="translate(-278.041 -307.715)"/><path class="d" d="M354.477,319.125,336.7,409.857a7.139,7.139,0,0,1-6.652,5.6H289.473a4.466,4.466,0,0,1-4.458-5.6l17.777-90.732a7.137,7.137,0,0,1,6.65-5.6h40.576A4.466,4.466,0,0,1,354.477,319.125Z" transform="translate(-281.746 -310.852)"/><g transform="translate(9.228 93.445)"><path class="e" d="M302.966,517.409h-3.586a1.259,1.259,0,0,1-1.267-1.576l.7-3.586a2.011,2.011,0,0,1,1.885-1.576h3.586a1.259,1.259,0,0,1,1.267,1.576l-.7,3.586A2.011,2.011,0,0,1,302.966,517.409Z" transform="translate(-298.083 -510.672)"/><path class="e" d="M320.708,517.409h-3.586a1.259,1.259,0,0,1-1.267-1.576l.7-3.586a2.01,2.01,0,0,1,1.884-1.576h3.586a1.258,1.258,0,0,1,1.267,1.576l-.7,3.586A2.012,2.012,0,0,1,320.708,517.409Z" transform="translate(-307.657 -510.672)"/><path class="e" d="M338.449,517.409h-3.586a1.259,1.259,0,0,1-1.267-1.576l.7-3.586a2.01,2.01,0,0,1,1.884-1.576h3.586a1.259,1.259,0,0,1,1.267,1.576l-.7,3.586A2.012,2.012,0,0,1,338.449,517.409Z" transform="translate(-317.229 -510.672)"/><path class="e" d="M356.19,517.409H352.6a1.259,1.259,0,0,1-1.267-1.576l.7-3.586a2.011,2.011,0,0,1,1.885-1.576h3.586a1.259,1.259,0,0,1,1.267,1.576l-.7,3.586A2.011,2.011,0,0,1,356.19,517.409Z" transform="translate(-326.802 -510.672)"/><path class="e" d="M373.931,517.409h-3.586a1.259,1.259,0,0,1-1.267-1.576l.7-3.586a2.011,2.011,0,0,1,1.884-1.576h3.586a1.259,1.259,0,0,1,1.267,1.576l-.7,3.586A2.011,2.011,0,0,1,373.931,517.409Z" transform="translate(-336.375 -510.672)"/></g><path class="e" d="M367.279,344.587H333.756a2.6,2.6,0,0,1-2.617-3.255l1.186-6.052a4.154,4.154,0,0,1,3.892-3.255H369.74a2.6,2.6,0,0,1,2.617,3.255l-1.186,6.052A4.153,4.153,0,0,1,367.279,344.587Z" transform="translate(-306.658 -320.833)"/><path class="e" d="M357.234,389.605s-1.5,5.4,2.482,9.049c2.954,2.7,7.874,6.366,5.707,15.664,0,0,1.161-3.444-2.7-7.177S353.656,396.493,357.234,389.605Z" transform="translate(-320.125 -351.901)"/><path class="f" d="M357.818,436.476l5.26,4.863s.216.045.69-.991l-5.042-4.255Z" transform="translate(-321.087 -376.986)"/><path class="g" d="M351.835,373.246s12.146,6.306,14.067,12.415c1.154,3.67-.5,8.3-.5,8.3,8.7-11.972-6.674-22.2-6.674-22.2Z" transform="translate(-317.859 -342.269)"/><path class="g" d="M354.6,457.535c-7.068-.832-12.046-5.128-12.607-10.921a15.276,15.276,0,0,1,1.93-8.366c-10.892,11.142,1.453,22.128,1.453,22.128Z" transform="translate(-311.169 -378.148)"/><path class="f" d="M361.829,407s-.452,3.471-6.264,6.25c-4.378,2.093-11.2,4.443-15.092,14.506,0,0,1.043-3.507,6.885-6.4S360.387,415.736,361.829,407Z" transform="translate(-311.728 -361.288)"/><path class="c" d="M342.342,454.641l1.362,1.741-.139-1.02-.948-.9Z" transform="translate(-312.737 -386.897)"/><path class="f" d="M346.542,443.43l7.369,5.133s.166-.045.911-.855l-7.678-4.818Z" transform="translate(-315.003 -380.653)"/><path class="f" d="M342.694,453.646l7,2.431-1.1.765-6.13-2.585S342.084,454.232,342.694,453.646Z" transform="translate(-312.74 -386.457)"/><path class="e" d="M363.269,390.634l7.413-1.066a.28.28,0,0,0-.128-.495c-1.452.1-6.4.45-6.4.45Z" transform="translate(-324.028 -351.614)"/><path class="e" d="M372,383.3l2.449.067s.5-.42-.129-.57c-.321-.045-1.184-.24-1.184-.24Z" transform="translate(-328.739 -348.096)"/><path class="c" d="M373.5,384.313l-2.834,1.618-.422-.348,2.581-1.27" transform="translate(-327.793 -349.046)"/><path class="c" d="M377.308,390.148l-1.281,1.261-.45-.469,1.078-.7" transform="translate(-330.67 -352.195)"/><path class="c" d="M381.423,395.866l-.612,1.477-.288-.5.309-.654" transform="translate(-333.338 -355.28)"/><path class="c" d="M383.434,403.685l-.317,1.792-.081-1.076-.044-.308" transform="translate(-334.671 -359.499)"/><path class="h" d="M366.613,414.824h1.531l.507.63-1.357.03Z" transform="translate(-325.833 -365.509)"/><path class="e" d="M366.5,408.123l7.523-5.613s.455-.18.6.15c0,0,.1.162-.237.5s-2.048,1.511-7.182,5.653C366.169,409.053,366.5,408.123,366.5,408.123Z" transform="translate(-325.745 -358.839)"/><path class="h" d="M360.575,406.141l1.017.63-.592-.81-.789-.72" transform="translate(-322.379 -360.338)"/><path class="e" d="M359.924,399.5c1.721-.854,10.055-4.9,10.055-4.9s.57,0,.287.525c-.973.675-9.978,5.275-9.978,5.275S359.207,400.4,359.924,399.5Z" transform="translate(-322.091 -354.596)"/><path class="h" d="M375.456,426.878a5.757,5.757,0,0,1-1.079,2.4l.43.871Z" transform="translate(-330.022 -372.013)"/><path class="c" d="M343.037,464.162l2.53,1.1-.436-.991-2.023-.36Z" transform="translate(-313.111 -391.997)"/><path class="f" d="M342.793,462.643l3.928.405-1.336.746-2.549-.315S342.183,463.228,342.793,462.643Z" transform="translate(-312.839 -391.312)"/><path class="e" d="M315.508,448.358c10.169-3.541,16.342-5.69,20.464-10.743a20.228,20.228,0,0,0,4.319-10.737c4.542,16.231-23.441,27.478-23.441,27.478l-7.643-4C310.718,449.924,312.9,449.266,315.508,448.358Z" transform="translate(-294.857 -372.013)"/><path class="c" d="M348.078,472.129l.078.135a13.732,13.732,0,0,1-2.725,3.106l-.725-1.05Z" transform="translate(-314.013 -396.43)"/><path class="h" d="M357.369,403.818a4.81,4.81,0,0,1,.986-2.2l-.34-.946A9.965,9.965,0,0,0,357.369,403.818Z" transform="translate(-320.845 -357.865)"/><path class="e" d="M372.714,374.965c-6.355,1.035-10.933,4.148-12.4,5.748a19.047,19.047,0,0,0-3.076,4.716h0a12.177,12.177,0,0,0-.814,3.892,8.836,8.836,0,0,1-.4-6.392,12,12,0,0,1,2.478-4.3,17.29,17.29,0,0,1,9.257-5.421Z" transform="translate(-319.896 -343.053)"/><path class="c" d="M376.624,392.6" transform="translate(-331.234 -353.516)"/><path class="i" d="M349.771,314.025,289.728,415.949h-.5a4.466,4.466,0,0,1-4.457-5.6l17.776-90.732a7.139,7.139,0,0,1,6.65-5.6Z" transform="translate(-281.613 -311.12)"/><path class="c" d="M376.944,314.508H359.985A2.012,2.012,0,0,1,357.966,312l.077-.395a3.215,3.215,0,0,1,3-2.512h16.959a2.011,2.011,0,0,1,2.019,2.512l-.077.395A3.216,3.216,0,0,1,376.944,314.508Z" transform="translate(-321.141 -308.457)"/></svg>