<?xml version="1.0" encoding="utf-8"?>
<!-- Generator: Adobe Illustrator 16.0.4, SVG Export Plug-In . SVG Version: 6.00 Build 0)  -->
<!DOCTYPE svg PUBLIC "-//W3C//DTD SVG 1.1//EN" "http://www.w3.org/Graphics/SVG/1.1/DTD/svg11.dtd">
<svg version="1.1" id="Layer_1" xmlns="http://www.w3.org/2000/svg" xmlns:xlink="http://www.w3.org/1999/xlink" x="0px" y="0px"
	 width="140.148px" height="110.461px" viewBox="0 0 140.148 110.461" enable-background="new 0 0 140.148 110.461"
	 xml:space="preserve">
<path fill="#FFFFFF" d="M130.333,75.161h-49.5l9.814-49.5h49.5L130.333,75.161z"/>
<g transform="translate(86.23 30.163)">
	<g transform="translate(5.8 0)">
		<path d="M2.23,0L0,11.249h11.246L13.477,0H2.23z M9.445,9h-6.75l1.338-6.75h6.75L9.445,9z"/>
		<path d="M7.641,6.749H5.388l0.446-2.25h2.254L7.641,6.749z"/>
	</g>
	<g transform="translate(0 29.249)">
		<path d="M2.23,0L0,11.249h11.249L13.48,0H2.23z M9.445,9H2.696l1.339-6.749h6.75L9.445,9z"/>
		<path d="M7.641,6.75h-2.25L5.837,4.5h2.25L7.641,6.75z"/>
	</g>
	<g transform="translate(17.523 14.626)">
		<path d="M2.231,0L0,11.249h11.251L13.481,0H2.231z M9.445,9H2.696l1.338-6.749h6.749L9.445,9z"/>
		<path d="M7.641,6.749H5.393l0.445-2.25h2.25L7.641,6.749z"/>
	</g>
	<g transform="translate(29.693 26.999)">
		<path d="M2.23-0.003L0,11.246h11.249L13.48-0.003H2.23z M9.445,8.997H2.696l1.338-6.75h6.75L9.445,8.997z"/>
		<path d="M7.641,6.749h-2.25l0.445-2.25h2.25L7.641,6.749z"/>
	</g>
	<path d="M15.749,40.498h-2.253l0.445-2.25h2.25L15.749,40.498z"/>
	<path d="M20.694,38.248h-2.25l0.446-2.25h2.25L20.694,38.248z"/>
	<path d="M21.587,33.749h-2.25l0.446-2.25h2.25L21.587,33.749z"/>
	<path d="M18.891,35.999h-2.25l0.446-2.25h2.25L18.891,35.999z"/>
	<path d="M14.391,35.999h-2.25l0.446-2.25h2.25L14.391,35.999z"/>
	<path d="M17.979,29.249h-2.25l0.446-2.25h2.25L17.979,29.249z"/>
	<path d="M24.728,29.249h-2.25l0.446-2.25h2.25L24.728,29.249z"/>
	<path d="M26.531,31.499H24.28l0.446-2.25h2.25L26.531,31.499z"/>
	<path d="M27.89,35.999h-2.25l0.446-2.25h2.25L27.89,35.999z"/>
	<path d="M26.081,33.749h-2.25l0.445-2.25h2.25L26.081,33.749z"/>
	<path d="M25.194,38.248h-2.25l0.446-2.25h2.25L25.194,38.248z"/>
	<path d="M24.748,40.498h-2.25l0.445-2.25h2.25L24.748,40.498z"/>
	<path d="M13.925,27h-2.25l0.446-2.25h2.25L13.925,27z"/>
	<path d="M32.37,24.752h-2.249l0.445-2.25h2.25L32.37,24.752z"/>
	<path d="M34.619,24.752h-2.25l0.445-2.25h2.25L34.619,24.752z"/>
	<path d="M36.865,24.752h-2.25l0.446-2.25h2.25L36.865,24.752z"/>
	<path d="M36.865,24.752h-2.25l0.446-2.25h2.25L36.865,24.752z"/>
	<path d="M11.211,18.001h-2.25l0.445-2.25h2.25L11.211,18.001z"/>
	<path d="M13.906,15.75h-2.25l0.446-2.25h2.25L13.906,15.75z"/>
	<path d="M45.83,2.249H21.083l0.445-2.25h24.746L45.83,2.249z"/>
	<path d="M28.065,6.749h-7.874l0.446-2.25h7.874L28.065,6.749z"/>
	<path d="M35.047,11.248H19.299l0.446-2.25h15.748L35.047,11.248z"/>
	<path d="M17.068,22.5h-2.254l0.446-2.25h2.25L17.068,22.5z"/>
	<path d="M18.852,13.501h-2.25l0.446-2.25h2.25L18.852,13.501z"/>
	<path d="M17.959,18.001h-2.248l0.445-2.25h2.25L17.959,18.001z"/>
	<path d="M6.728,29.249h-2.25l0.446-2.25h2.25L6.728,29.249z"/>
	<path d="M14.371,24.752h-9l0.445-2.25h9L14.371,24.752z"/>
	<path d="M15.263,20.25h-9L6.709,18h9L15.263,20.25z"/>
	<path d="M4.926,26.999h-2.25l2.677-13.5h2.25L4.926,26.999z"/>
	<path d="M29.247,40.498h-2.25l0.445-2.25h2.25L29.247,40.498z"/>
	<path d="M35.996,40.498h-2.25l0.445-2.25h2.25L35.996,40.498z"/>
	<path d="M40.496,40.498h-2.25l0.445-2.25h2.25L40.496,40.498z"/>
	<path d="M43.618,24.752h-2.25l0.445-2.25h2.25L43.618,24.752z"/>
	<path d="M40.923,27h-2.25l0.446-2.25h2.25L40.923,27z"/>
	<path d="M39.565,22.5h-2.25l0.446-2.25h2.25L39.565,22.5z"/>
	<path d="M37.763,20.25h-2.25L35.959,18h2.25L37.763,20.25z"/>
	<path d="M35.957,18.001h-2.25l0.445-2.25h2.25L35.957,18.001z"/>
	<path d="M34.154,15.75h-2.25l0.446-2.25h2.25L34.154,15.75z"/>
	<path d="M36.85,13.501H34.6l0.446-2.25h2.25L36.85,13.501z"/>
	<path d="M35.938,6.751h-2.25l0.446-2.25h2.25L35.938,6.751z"/>
	<path d="M31.439,6.751h-2.25l0.446-2.25h2.25L31.439,6.751z"/>
	<path d="M33.24,9.002h-2.25l0.446-2.25h2.25L33.24,9.002z"/>
	<path d="M34.138,4.501h-2.25l0.446-2.25h2.25L34.138,4.501z"/>
	<path d="M38.183,6.751h-2.25l0.446-2.25h2.25L38.183,6.751z"/>
	<path d="M39.992,9.002h-2.25l0.445-2.25h2.25L39.992,9.002z"/>
	<path d="M41.795,11.251h-2.25l0.445-2.25h2.25L41.795,11.251z"/>
	<path d="M43.134,4.501h-2.25l0.446-2.25h2.25L43.134,4.501z"/>
	<path d="M40.904,15.75h-2.25L39.1,13.5h2.25L40.904,15.75z"/>
	<path d="M45.403,15.75h-2.25l3.123-15.751h2.25L45.403,15.75z"/>
</g>
<path opacity="0.4" fill="#5FBFF9" d="M67.985,10.132l69.79,40.063H83.781L66.105,19.617L67.985,10.132z"/>
<path fill="#002832" d="M49.583,110.461H6.362c-3.417,0.121-6.285-2.551-6.406-5.968c-0.021-0.593,0.043-1.187,0.191-1.761
	l18.612-95c0.979-4.371,4.77-7.541,9.244-7.73h43.222c3.417-0.121,6.285,2.551,6.406,5.968c0.021,0.594-0.044,1.187-0.191,1.762
	l-18.613,95C57.848,107.103,54.058,110.272,49.583,110.461z"/>
<path fill="#EBE2E2" d="M74.388,8.461l-18.182,92.8c-0.71,3.228-3.499,5.574-6.8,5.724h-41.5c-2.521,0.077-4.629-1.904-4.706-4.426
	c-0.014-0.438,0.036-0.875,0.147-1.298l18.182-92.8c0.71-3.227,3.499-5.574,6.8-5.723h41.5c2.521-0.077,4.628,1.905,4.705,4.427
	C74.549,7.602,74.499,8.038,74.388,8.461z"/>
<g transform="translate(17.796 28.528)">
	<path fill="#FFFFFF" d="M37.534,37.533H0L7.571-0.001h37.534L37.534,37.533z"/>
	<g transform="translate(4.1 3.41)">
		<g transform="translate(4.474 0)">
			<path d="M1.721,0L0,8.531h8.531L10.252,0H1.721z M7.169,6.824H2.051l1.033-5.118h5.118L7.169,6.824z"/>
			<path d="M5.807,5.118H4.1l0.345-1.706h1.706L5.807,5.118z"/>
		</g>
		<g transform="translate(0 22.181)">
			<path d="M1.721,0L0,8.529h8.53L10.252,0H1.721z M7.169,6.824H2.05l1.03-5.118h5.117L7.169,6.824z"/>
			<path d="M5.807,5.118H4.101l0.344-1.706h1.706L5.807,5.118z"/>
		</g>
		<g transform="translate(13.327 11.091)">
			<path d="M1.721,0L0,8.53h8.53L10.251,0H1.721z M7.168,6.824H2.05l1.029-5.115h5.118L7.168,6.824z"/>
			<path d="M5.806,5.118H4.1l0.344-1.706H6.15L5.806,5.118z"/>
		</g>
		<g transform="translate(22.524 20.475)">
			<path d="M1.721,0L0,8.53h8.53L10.25,0H1.721z M7.169,6.823H2.049l1.033-5.117h5.118L7.169,6.823z"/>
			<path d="M5.806,5.118H4.1l0.344-1.706H6.15L5.806,5.118z"/>
		</g>
		<path d="M11.943,30.71h-1.706l0.345-1.705h1.706L11.943,30.71z"/>
		<path d="M15.698,29.005h-1.705l0.344-1.706h1.706L15.698,29.005z"/>
		<path d="M16.385,25.593h-1.7l0.344-1.706h1.706L16.385,25.593z"/>
		<path d="M14.337,27.299h-1.706l0.344-1.706h1.706L14.337,27.299z"/>
		<path d="M10.922,27.299h-1.7l0.344-1.706h1.706L10.922,27.299z"/>
		<path d="M13.663,22.181h-1.706l0.344-1.706h1.706L13.663,22.181z"/>
		<path d="M18.781,22.181h-1.705l0.344-1.706h1.706L18.781,22.181z"/>
		<path d="M20.143,23.887h-1.706l0.344-1.706h1.706L20.143,23.887z"/>
		<path d="M21.161,27.299h-1.706l0.344-1.706h1.706L21.161,27.299z"/>
		<path d="M19.799,25.593h-1.706l0.344-1.706h1.706L19.799,25.593z"/>
		<path d="M19.111,29.005h-1.706l0.345-1.706h1.706L19.111,29.005z"/>
		<path d="M18.767,30.71h-1.706l0.344-1.705h1.706L18.767,30.71z"/>
		<path d="M10.592,20.475h-1.7l0.344-1.706h1.706L10.592,20.475z"/>
		<path d="M24.588,18.769h-1.706l0.344-1.706h1.706L24.588,18.769z"/>
		<path d="M26.294,18.769h-1.706l0.344-1.706h1.706L26.294,18.769z"/>
		<path d="M28,18.769h-1.706l0.344-1.706h1.706L28,18.769z"/>
		<path d="M28,18.769h-1.706l0.344-1.706h1.706L28,18.769z"/>
		<path d="M8.559,13.65H6.853l0.344-1.706h1.706L8.559,13.65z"/>
		<path d="M10.61,11.944H8.904l0.345-1.706h1.706L10.61,11.944z"/>
		<path d="M34.854,1.706H16.087L16.431,0h18.767L34.854,1.706z"/>
		<path d="M21.37,5.118h-5.972l0.345-1.706h5.971L21.37,5.118z"/>
		<path d="M26.652,8.531h-11.94l0.344-1.706h11.943L26.652,8.531z"/>
		<path d="M12.99,17.062h-1.705l0.344-1.706h1.706L12.99,17.062z"/>
		<path d="M14.366,10.238h-1.711L13,8.532h1.706L14.366,10.238z"/>
		<path d="M13.678,13.65h-1.706l0.344-1.706h1.706L13.678,13.65z"/>
		<path d="M5.13,22.181h-1.7l0.344-1.706H5.48L5.13,22.181z"/>
		<path d="M10.939,18.769H4.115l0.345-1.706h6.823L10.939,18.769z"/>
		<path d="M11.628,15.356H4.804l0.344-1.706h6.824L11.628,15.356z"/>
		<path d="M3.771,20.475H2.065L4.13,10.238h1.706L3.771,20.475z"/>
		<path d="M22.177,30.71h-1.7l0.344-1.705h1.706L22.177,30.71z"/>
		<path d="M27.298,30.71h-1.706l0.344-1.705h1.706L27.298,30.71z"/>
		<path d="M30.71,30.71h-1.706l0.344-1.705h1.706L30.71,30.71z"/>
		<path d="M33.118,18.769h-1.706l0.344-1.706h1.706L33.118,18.769z"/>
		<path d="M31.068,20.475h-1.706l0.345-1.706h1.706L31.068,20.475z"/>
		<path d="M30.05,17.062h-1.706l0.344-1.706h1.706L30.05,17.062z"/>
		<path d="M28.689,15.356h-1.706l0.345-1.706h1.705L28.689,15.356z"/>
		<path d="M27.327,13.65h-1.706l0.344-1.706h1.706L27.327,13.65z"/>
		<path d="M25.965,11.944h-1.706l0.344-1.706h1.706L25.965,11.944z"/>
		<path d="M28.015,10.238h-1.706l0.344-1.706h1.706L28.015,10.238z"/>
		<path d="M27.341,5.119h-1.706l0.344-1.706h1.706L27.341,5.119z"/>
		<path d="M23.929,5.119h-1.706l0.344-1.706h1.706L23.929,5.119z"/>
		<path d="M25.291,6.826h-1.71l0.344-1.706h1.706L25.291,6.826z"/>
		<path d="M25.98,3.413h-1.706l0.345-1.706h1.705L25.98,3.413z"/>
		<path d="M29.048,5.119h-1.706l0.344-1.706h1.706L29.048,5.119z"/>
		<path d="M30.409,6.826h-1.706l0.344-1.706h1.706L30.409,6.826z"/>
		<path d="M31.771,8.532h-1.706l0.345-1.706h1.705L31.771,8.532z"/>
		<path d="M32.803,3.413h-1.706l0.344-1.706h1.706L32.803,3.413z"/>
		<path d="M31.082,11.944h-1.709l0.344-1.706h1.706L31.082,11.944z"/>
		<path d="M34.495,11.944h-1.706L35.198,0h1.706L34.495,11.944z"/>
	</g>
</g>
<g transform="translate(18.388 71.18)">
	<path fill="#5FBFF9" d="M27.198,9.263H3.728C1.73,9.341,0.047,7.783-0.031,5.785C-0.044,5.429-0.005,5.074,0.084,4.73l0.038-0.2
		C0.69,1.963,2.916,0.1,5.544-0.003h23.467c1.999-0.077,3.682,1.48,3.759,3.479c0.015,0.355-0.024,0.71-0.114,1.054l-0.039,0.2
		C32.05,7.297,29.825,9.159,27.198,9.263z"/>
	<g transform="translate(7.859 2.067)">
		<path d="M1.471,4.707c-0.29,0.015-0.58-0.044-0.842-0.17c-0.234-0.13-0.44-0.305-0.604-0.517C0.016,4.01,0.01,3.997,0.005,3.985
			C0,3.965,0,3.943,0.005,3.923c0.011-0.039,0.034-0.074,0.066-0.1c0.028-0.029,0.067-0.047,0.107-0.049
			c0.042,0,0.079,0.023,0.101,0.059c0.13,0.196,0.311,0.354,0.521,0.458c0.219,0.105,0.458,0.159,0.7,0.155
			C1.711,4.449,1.92,4.413,2.117,4.34c0.179-0.065,0.34-0.171,0.472-0.308c0.125-0.129,0.209-0.291,0.242-0.467
			C2.877,3.383,2.848,3.19,2.753,3.028c-0.1-0.142-0.233-0.256-0.389-0.332C2.189,2.606,2.01,2.524,1.826,2.454
			c-0.149-0.062-0.296-0.125-0.44-0.19C1.249,2.203,1.122,2.123,1.008,2.026C0.899,1.932,0.819,1.81,0.776,1.673
			C0.728,1.501,0.725,1.319,0.768,1.148c0.042-0.216,0.141-0.416,0.285-0.58c0.159-0.179,0.357-0.32,0.578-0.412
			c0.253-0.105,0.525-0.158,0.8-0.153C2.672,0,2.91,0.046,3.132,0.136c0.2,0.074,0.369,0.216,0.478,0.4
			c0.026,0.041,0.04,0.089,0.038,0.138C3.637,0.711,3.612,0.743,3.58,0.765C3.548,0.793,3.507,0.81,3.464,0.812
			C3.432,0.813,3.403,0.798,3.386,0.773C3.328,0.667,3.25,0.574,3.155,0.5C3.053,0.421,2.937,0.36,2.814,0.323
			C2.674,0.28,2.528,0.259,2.382,0.261c-0.204-0.002-0.407,0.031-0.6,0.1C1.603,0.426,1.44,0.528,1.305,0.661
			c-0.13,0.129-0.217,0.295-0.25,0.475C1.011,1.304,1.038,1.482,1.132,1.629C1.23,1.765,1.36,1.874,1.511,1.948
			c0.163,0.086,0.33,0.164,0.5,0.233C2.166,2.237,2.318,2.3,2.469,2.368c0.144,0.062,0.277,0.147,0.396,0.251
			c0.114,0.102,0.198,0.233,0.243,0.38c0.049,0.188,0.051,0.386,0.005,0.574C3.069,3.781,2.971,3.973,2.83,4.13
			C2.673,4.306,2.478,4.446,2.262,4.542C2.013,4.651,1.743,4.708,1.471,4.707z"/>
		<path d="M8.096,0.442C8.125,0.463,8.139,0.496,8.138,0.53C8.134,0.568,8.117,0.604,8.092,0.631
			C8.069,0.659,8.037,0.677,8.001,0.68C7.97,0.683,7.937,0.675,7.911,0.657c-0.163-0.129-0.345-0.229-0.54-0.301
			C7.157,0.28,6.93,0.243,6.703,0.246c-0.277,0-0.553,0.052-0.811,0.153C5.629,0.504,5.384,0.65,5.169,0.835
			c-0.222,0.19-0.412,0.416-0.562,0.667C4.45,1.765,4.341,2.052,4.283,2.353c-0.061,0.279-0.063,0.568-0.01,0.85
			c0.047,0.242,0.149,0.471,0.3,0.667c0.146,0.188,0.335,0.337,0.552,0.435c0.236,0.105,0.492,0.158,0.751,0.154
			c0.24,0,0.479-0.037,0.708-0.112C6.811,4.273,7.03,4.174,7.236,4.052c0.029-0.02,0.064-0.028,0.1-0.025
			c0.032,0.003,0.061,0.022,0.075,0.052c0.017,0.03,0.019,0.067,0.006,0.1C7.406,4.214,7.382,4.245,7.349,4.264
			C7.209,4.349,7.062,4.421,6.911,4.48C6.736,4.55,6.555,4.606,6.372,4.646c-0.18,0.041-0.364,0.062-0.549,0.062
			C5.531,4.712,5.241,4.652,4.975,4.532c-0.246-0.113-0.461-0.283-0.63-0.494C4.175,3.819,4.056,3.565,3.999,3.293
			c-0.065-0.31-0.065-0.629,0-0.938c0.063-0.332,0.187-0.65,0.364-0.938c0.172-0.281,0.388-0.532,0.639-0.745
			c0.245-0.208,0.523-0.375,0.822-0.493c0.292-0.116,0.604-0.177,0.918-0.177c0.253-0.002,0.505,0.037,0.745,0.117
			C7.709,0.188,7.916,0.298,8.096,0.442z"/>
		<path d="M10.528,0.398l-2.469,4.16C8.046,4.583,8.026,4.605,8.002,4.619c-0.022,0.015-0.05,0.022-0.077,0.022
			C7.89,4.646,7.857,4.634,7.833,4.608C7.815,4.587,7.807,4.56,7.81,4.531c0-0.023,0.007-0.046,0.019-0.066l2.607-4.328
			c0.023-0.056,0.08-0.09,0.141-0.085c0.029-0.002,0.058,0.006,0.081,0.023c0.019,0.016,0.03,0.037,0.033,0.062l0.911,4.327
			c0.003,0.018,0.003,0.036,0,0.054c-0.007,0.036-0.027,0.068-0.058,0.09c-0.029,0.021-0.063,0.033-0.1,0.033
			c-0.027,0.002-0.055-0.007-0.077-0.022c-0.021-0.015-0.034-0.037-0.037-0.062l-0.882-4.211L10.528,0.398z M8.766,3.224
			l0.143-0.263h2.118l0.015,0.263H8.766z"/>
		<path d="M16.66,0.069c0.032-0.003,0.063,0.011,0.084,0.035c0.018,0.026,0.023,0.059,0.016,0.088l-0.844,4.31
			c-0.006,0.042-0.029,0.081-0.062,0.106c-0.029,0.023-0.064,0.035-0.101,0.037c-0.018-0.001-0.036-0.006-0.052-0.014
			c-0.018-0.008-0.032-0.021-0.041-0.039l-2.222-4.145l0.1-0.047l-0.809,4.134c-0.008,0.031-0.025,0.059-0.052,0.077
			c-0.026,0.021-0.061,0.033-0.095,0.033c-0.031,0.003-0.063-0.009-0.085-0.033c-0.018-0.021-0.023-0.051-0.017-0.077L13.33,0.2
			c0.005-0.04,0.026-0.076,0.06-0.1c0.024-0.019,0.054-0.029,0.085-0.031c0.017,0.001,0.034,0.004,0.05,0.011
			c0.017,0.007,0.03,0.021,0.039,0.036l2.213,4.119l-0.078,0.131l0.818-4.172c0.007-0.035,0.026-0.067,0.056-0.088
			C16.596,0.085,16.628,0.071,16.66,0.069z"/>
	</g>
</g>
<path opacity="0.5" fill="#FFFFFF" d="M69.716,2.738L8.305,106.984H7.792c-2.521,0.078-4.628-1.904-4.706-4.426
	c-0.013-0.437,0.036-0.873,0.147-1.297l18.181-92.8c0.711-3.227,3.5-5.574,6.8-5.723L69.716,2.738z"/>
<path fill="#002832" d="M57.075,6.189H39.73c-1.136,0.04-2.089-0.849-2.129-1.985c-0.007-0.197,0.015-0.394,0.063-0.584l0.079-0.4
	c0.324-1.453,1.585-2.506,3.072-2.569h17.345c1.136-0.04,2.089,0.847,2.129,1.983c0.007,0.197-0.015,0.395-0.063,0.586l-0.079,0.4
	C59.823,5.073,58.562,6.127,57.075,6.189z"/>
</svg>
