<?xml version="1.0" encoding="utf-8"?>
<!-- Generator: Adobe Illustrator 25.2.3, SVG Export Plug-In . SVG Version: 6.00 Build 0)  -->
<svg version="1.1" id="Layer_1" xmlns="http://www.w3.org/2000/svg" xmlns:xlink="http://www.w3.org/1999/xlink" x="0px" y="0px"
	 viewBox="0 0 50 50" style="enable-background:new 0 0 50 50;" xml:space="preserve">
<style type="text/css">
	.st0{fill:#064D55;}
	.st1{fill:#064D55;stroke:#FFFFFF;stroke-width:1.5;stroke-miterlimit:10;}
</style>
<g id="kalbos_ikona" transform="translate(15 15)">
	<g transform="matrix(1, 0, 0, 1, -15, -15)">
		<path id="modelio_lango_ikonų_laukelio_fonas-2" class="st0" d="M15,0h20c8.3,0,15,6.7,15,15v20c0,8.3-6.7,15-15,15H15
			C6.7,50,0,43.3,0,35V15C0,6.7,6.7,0,15,0z"/>
	</g>
	<g id="Group_247" transform="translate(12 15)">
		<path id="Path_144" class="st1" d="M-3.4,4.4c0,0.2-0.1,0.3-0.2,0.4C-3.7,4.9-3.8,5-4,5h-10.5c-0.2,0-0.3-0.1-0.4-0.2
			C-14.9,4.7-15,4.6-15,4.4v-18.8c0-0.2,0.1-0.3,0.2-0.4c0.2-0.2,0.6-0.2,0.9,0c0.1,0.1,0.2,0.2,0.2,0.4V3.8H-4
			c0.2,0,0.3,0.1,0.4,0.2C-3.5,4.1-3.4,4.2-3.4,4.4z"/>
		<path id="Path_145" class="st1" d="M10-14.5c0,0.2-0.1,0.3-0.2,0.4c-0.1,0.1-0.2,0.1-0.4,0.1H3.1V4.4C3.1,4.7,2.8,5,2.5,5
			c0,0,0,0,0,0C2.4,5,2.2,4.9,2.1,4.8C2,4.7,1.9,4.6,1.9,4.4v-18.3h-6.4c-0.1,0-0.3-0.1-0.4-0.2C-4.9-14.2-5-14.3-5-14.5
			c0-0.2,0.1-0.3,0.2-0.4c0.1-0.1,0.2-0.2,0.4-0.2H9.5c0.1,0,0.3,0.1,0.4,0.2C10-14.7,10-14.6,10-14.5z"/>
	</g>
</g>
</svg>
