<?xml version="1.0" encoding="utf-8"?>
<!-- Generator: Adobe Illustrator 16.0.4, SVG Export Plug-In . SVG Version: 6.00 Build 0)  -->
<!DOCTYPE svg PUBLIC "-//W3C//DTD SVG 1.1//EN" "http://www.w3.org/Graphics/SVG/1.1/DTD/svg11.dtd">
<svg version="1.1" id="Layer_1" xmlns="http://www.w3.org/2000/svg" xmlns:xlink="http://www.w3.org/1999/xlink" x="0px" y="0px"
	 width="53.314px" height="57.211px" viewBox="0 0 53.314 57.211" enable-background="new 0 0 53.314 57.211" xml:space="preserve">
<path fill="#9BDFF9" d="M0.011,31.286c0.21-3.067,7.4-6.056,7.4-6.056l2.517,6.793l0.095,0.254l2.517,6.793
	c0,0-7.399,2.421-9.561,0.229C1.107,37.043,0.06,34.217,0.011,31.286z"/>
<path fill="#0692C9" d="M12.543,39.069l-0.862-2.328c-2.425,0.93-5.369,2.11-7.835,3.11C6.647,40.997,12.543,39.069,12.543,39.069z"
	/>
<path fill="#0692C9" d="M36.653,22.293c3.892,10.5,9.908,17.954,13.437,16.645c3.529-1.309,3.236-10.881-0.655-21.382
	C45.542,7.055,39.527-0.397,35.998,0.911S32.761,11.792,36.653,22.293z"/>
<g transform="translate(33.532 0.762)">
	<g transform="translate(0 0)">
		<g transform="translate(-4.904 14.596)">
			<path fill="#A2E4F9" d="M3.243,12.709c0.203,0.608,0.86,0.936,1.468,0.733c0.068-0.023,0.135-0.052,0.197-0.087l9.665-5.051
				c0.671-0.374,0.978-1.174,0.728-1.9l-1.991-5.4c-0.28-0.712-1.032-1.118-1.781-0.962l-10.6,2.5
				C0.296,2.676-0.109,3.296,0.025,3.929C0.039,3.995,0.058,4.06,0.084,4.123L3.243,12.709z"/>
			<path fill="#A2E4F9" d="M12.203,0.73c-0.104-0.278-0.276-0.526-0.5-0.721c-0.058,0.005-0.115,0.015-0.172,0.028L9.206,0.586
				l3.25,8.821l2.12-1.108c0.038-0.02,0.075-0.042,0.111-0.065c0.063-0.322,0.038-0.655-0.072-0.965L12.203,0.73z"/>
		</g>
	</g>
</g>
<path fill="#5FBFF9" d="M33.841,3.081c-0.189,8.78,3.572,18.93,3.572,18.93s3.762,10.15,9.627,16.687c0,0-10.732-6.555-34.479,0.422
	l-2.574-6.945l-2.574-6.945C29.97,15.047,33.841,3.081,33.841,3.081z"/>
<g transform="translate(9.285 11)">
	<path fill="#6ECFFF" d="M0,15.251C8.748,12.641,16.43,7.296,21.917,0c0.246,2.591,0.773,5.148,1.572,7.626
		c-6.742,4.941-14.324,8.621-22.378,10.859L0,15.251z"/>
</g>
<path fill="#0692C9" d="M12.561,39.12c23.745-6.977,34.479-0.423,34.479-0.423c-1.051-1.185-2.025-2.435-2.915-3.745
	c-10.604-3.825-22.316-3.122-32.388,1.944L12.561,39.12z"/>
<path d="M37.763,52.778c0.649,0.656,0.645,1.716-0.012,2.366c-0.208,0.206-0.467,0.354-0.75,0.429l-3.927,1.455
	c-1.398,0.444-2.928,0.028-3.908-1.064L17.196,41.292c-0.65-0.656-0.646-1.715,0.011-2.365c0.208-0.207,0.467-0.354,0.75-0.43
	l3.926-1.455c1.4-0.445,2.933-0.029,3.913,1.065L37.763,52.778z"/>
<path fill="#5FBFF9" d="M37.763,52.778c0.649,0.656,0.645,1.716-0.012,2.366c-0.208,0.206-0.467,0.354-0.75,0.429l-3.927,1.455
	c-1.398,0.444-2.928,0.028-3.908-1.064L17.196,41.292c-0.65-0.656-0.646-1.715,0.011-2.365c0.208-0.207,0.467-0.354,0.75-0.43
	l3.926-1.455c1.4-0.445,2.933-0.029,3.913,1.065L37.763,52.778z"/>
<path fill="#0692C9" d="M37.767,52.778L25.799,38.107c-0.618-0.698-1.479-1.136-2.408-1.224c0.061,0.062,0.118,0.125,0.173,0.193
	l11.968,14.67c0.65,0.656,0.646,1.716-0.011,2.366c-0.208,0.206-0.467,0.354-0.75,0.429l-3.928,1.455
	c-0.48,0.168-0.994,0.223-1.5,0.159c0.993,0.952,2.426,1.286,3.736,0.872l3.927-1.455c0.894-0.236,1.427-1.151,1.19-2.045
	C38.121,53.245,37.973,52.987,37.767,52.778z"/>
<path fill="#5FBFF9" d="M14.315,37.29c-0.477,0.064-0.81,0.504-0.745,0.979c0.03,0.224,0.146,0.427,0.323,0.565l2.208,2.387
	c0.646,0.631,1.587,0.855,2.448,0.586l8.994-3.333c0.796-0.318,1.25-1.16,1.079-2l-0.432-1.87c-0.167-0.76-0.917-1.239-1.676-1.072
	c-0.039,0.008-0.078,0.018-0.116,0.03L14.315,37.29z"/>
<g transform="translate(17.111 33.498)">
	<path fill="#0692C9" d="M11.512,2.973L11.08,1.104c-0.167-0.76-0.917-1.239-1.676-1.072C9.365,0.04,9.326,0.049,9.288,0.062
		L8.953,0.163c0.363,0.193,0.624,0.536,0.714,0.938l0.432,1.87c0.171,0.84-0.283,1.682-1.079,2L0.026,8.303l-0.027,0.009
		C0.468,8.46,0.971,8.458,1.438,8.303l8.994-3.332C11.227,4.653,11.682,3.813,11.512,2.973z"/>
</g>
<g transform="translate(16.721 36.858)">
	<g transform="translate(0 0)">
		<g transform="translate(8.615 3.173)">
			<path fill="#9BDFF9" d="M8.861,1.072C9.175,1.923,8.742,2.866,7.892,3.18l0,0L2.21,5.286C1.36,5.6,0.416,5.168,0.101,4.318l0,0
				c-0.315-0.85,0.118-1.794,0.968-2.108l5.682-2.105C7.601-0.21,8.545,0.223,8.861,1.072L8.861,1.072L8.861,1.072z"/>
			<path fill="#9BDFF9" d="M13.957,6.909c0.315,0.85-0.118,1.794-0.968,2.109l-5.682,2.105c-0.851,0.314-1.794-0.119-2.109-0.969
				l0,0l0,0c-0.314-0.85,0.119-1.794,0.969-2.109l0,0l5.682-2.105C12.698,5.626,13.642,6.059,13.957,6.909L13.957,6.909
				L13.957,6.909z"/>
		</g>
	</g>
</g>
<g transform="translate(32.774)">
	<path fill="#9BDFF9" d="M10.145,35.519C4.288,27.526,0.779,18.057,0.013,8.178c-0.136-4.453,0.883-7.211,2.949-7.977
		c2.065-0.766,4.637,0.662,7.435,4.129c5.856,7.993,9.366,17.462,10.132,27.34c0.138,4.453-0.883,7.211-2.948,7.977
		C15.514,40.413,12.943,38.986,10.145,35.519z M4.59,22.029c4,10.786,9.777,17.194,12.463,16.2c2.687-0.994,2.896-9.622-1.1-20.408
		C11.958,7.035,6.177,0.627,3.49,1.621C0.803,2.615,0.593,11.243,4.59,22.029z"/>
</g>
</svg>
