<?xml version="1.0" encoding="utf-8"?>
<!-- Generator: Adobe Illustrator 16.0.4, SVG Export Plug-In . SVG Version: 6.00 Build 0)  -->
<!DOCTYPE svg PUBLIC "-//W3C//DTD SVG 1.1//EN" "http://www.w3.org/Graphics/SVG/1.1/DTD/svg11.dtd">
<svg version="1.1" id="Layer_1" xmlns="http://www.w3.org/2000/svg" xmlns:xlink="http://www.w3.org/1999/xlink" x="0px" y="0px"
	 width="55.727px" height="55.641px" viewBox="0 0 55.727 55.641" enable-background="new 0 0 55.727 55.641" xml:space="preserve">
<g transform="translate(0.912)">
	<line fill="none" stroke="#B3E0F5" stroke-width="2" stroke-miterlimit="10" x1="25.99" y1="7.365" x2="52.928" y2="7.365"/>
	<line fill="none" stroke="#B3E0F5" stroke-width="2" stroke-miterlimit="10" x1="25.99" y1="24.823" x2="52.928" y2="24.823"/>
	<line fill="none" stroke="#B3E0F5" stroke-width="2" stroke-miterlimit="10" x1="1.407" y1="30.418" x2="53.143" y2="30.418"/>
	<line fill="none" stroke="#B3E0F5" stroke-width="2" stroke-miterlimit="10" x1="25.99" y1="12.96" x2="52.928" y2="12.96"/>
	
		<text transform="matrix(1 0 0 1 -1.220703e-04 23.0002)" fill="none" stroke="#B3E0F5" stroke-miterlimit="10" font-family="'ArialMT'" font-size="12">T</text>
	<g transform="translate(0.998 36.349)">
		<line fill="none" stroke="#B3E0F5" stroke-width="2" stroke-miterlimit="10" x1="0" y1="0" x2="10.645" y2="0"/>
		<path fill="none" stroke="#B3E0F5" stroke-width="2" stroke-miterlimit="10" d="M15.268,0h28.569"/>
		<line fill="none" stroke="#B3E0F5" stroke-width="2" stroke-miterlimit="10" x1="48.462" y1="0" x2="51.736" y2="0"/>
	</g>
	<g transform="translate(26.4 18.891)">
		<line fill="none" stroke="#B3E0F5" stroke-width="2" stroke-miterlimit="10" x1="0" y1="0" x2="6.394" y2="0"/>
		<path fill="none" stroke="#B3E0F5" stroke-width="2" stroke-miterlimit="10" d="M11.062,0h14.63"/>
	</g>
	<line fill="none" stroke="#B3E0F5" stroke-width="2" stroke-miterlimit="10" x1="1.407" y1="42.281" x2="53.143" y2="42.281"/>
	<line fill="none" stroke="#B3E0F5" stroke-width="2" stroke-miterlimit="10" x1="0.588" y1="54.141" x2="53.143" y2="54.141"/>
	<g transform="translate(2.637 48.21)">
		<path fill="none" stroke="#B3E0F5" stroke-width="2" stroke-miterlimit="10" d="M24.332,0h26.346"/>
		<path fill="none" stroke="#B3E0F5" stroke-width="2" stroke-miterlimit="10" d="M0,0h19.626"/>
	</g>
</g>
</svg>
